<svg width="96" height="92" viewBox="0 0 96 92" fill="none" xmlns="http://www.w3.org/2000/svg">
<path d="M92.4149 34.0864C91.6183 34.2823 90.8216 34.6741 90.2241 35.0659C89.4274 35.4577 88.8299 36.0454 88.2324 36.6331C88.2324 36.6331 88.2324 36.2413 88.2324 35.8495C88.2324 35.4577 88.2324 34.6741 88.2324 34.0864C88.2324 33.6946 88.2324 33.4987 88.2324 33.1069C88.2324 32.7151 88.2324 32.5192 88.2324 32.3233C88.2324 31.7356 88.2324 31.5397 88.2324 31.5397C89.6266 31.7356 90.8216 31.3438 91.6183 30.5603C92.0166 30.1685 92.4149 29.7767 92.6141 29.189C92.8133 28.9931 92.8133 28.6013 93.0125 28.4054C93.2116 28.0136 93.2116 27.8177 93.2116 27.4259C93.4108 26.8382 93.4108 26.2505 93.61 25.6628C93.61 25.0751 93.61 24.4874 93.61 24.0956C93.61 23.8997 93.61 23.7038 93.61 23.5079C93.61 23.312 93.61 23.1161 93.61 22.9202C93.61 22.7243 93.61 22.5284 93.61 22.5284C93.61 22.5284 92.4149 23.1161 91.2199 23.8997C90.6224 24.2915 89.8257 24.8792 89.2282 25.4669C88.6307 26.0546 88.0332 26.6423 87.6349 27.4259C87.6349 27.4259 87.6349 27.0341 87.4357 26.6423C87.2365 26.2505 87.2365 25.4669 87.0373 24.8792C86.8382 24.2915 86.639 23.7038 86.639 23.1161C86.4398 22.7243 86.4398 22.3325 86.4398 22.3325C87.834 22.3325 89.029 21.5489 89.6266 20.5694C90.2241 19.5899 90.4232 18.2186 90.6224 17.0432C90.6224 15.8678 90.4232 14.6924 90.2241 13.7129C89.8257 12.7334 89.6266 12.1457 89.6266 12.1457C89.6266 12.1457 89.4274 12.3416 89.029 12.7334C88.6307 13.1252 88.0332 13.517 87.6349 14.1047C86.639 15.2801 85.444 16.6514 84.8465 18.2186C84.8465 18.2186 84.6473 17.8268 84.4481 17.435C84.4481 17.2391 84.249 17.0432 84.0498 16.6514C83.8506 16.4555 83.8506 16.0637 83.6515 15.8678C83.4523 15.2801 83.0539 14.6924 82.8548 14.3006C82.6556 13.9088 82.4564 13.517 82.4564 13.517C83.8506 13.1252 84.6473 12.3416 85.0456 11.1662C85.2448 10.5785 85.444 9.99085 85.444 9.40316C85.444 8.81546 85.444 8.22776 85.2448 7.64006C85.2448 7.24827 85.0456 7.05237 85.0456 6.66057C85.0456 6.26877 84.8465 6.07287 84.8465 5.87697C84.6473 5.28927 84.4481 4.89748 84.249 4.30978C83.8506 3.52618 83.4523 2.93849 83.4523 2.93849C83.4523 2.93849 82.4564 4.11388 81.6598 5.28927C81.2614 5.87697 80.8631 6.66057 80.4647 7.44416C80.0664 8.22776 79.8672 9.01136 79.8672 9.79495C79.8672 9.79495 79.668 9.59905 79.2697 9.20726C79.0705 9.01136 78.8714 8.81546 78.6722 8.61956C78.473 8.42366 78.2739 8.03186 78.0747 7.83596C78.0747 7.64006 77.8755 7.64006 77.8755 7.44416C79.668 1.95899 70.3071 0 70.3071 0C70.3071 0 71.1037 9.79495 77.4772 8.61956C77.4772 8.61956 77.4772 8.81546 77.6763 8.81546C77.8755 9.01136 78.0747 9.20726 78.2739 9.59905C78.473 9.79495 78.6722 9.99085 78.8714 10.1868C79.0705 10.5785 79.2697 10.7744 79.2697 10.7744C78.473 10.5785 77.6763 10.5785 76.8797 10.7744C76.083 10.9703 75.2863 11.1662 74.4896 11.558C73.0954 12.1457 72.0996 12.9293 72.0996 12.9293C72.0996 12.9293 72.4979 13.1252 73.0954 13.517C73.2946 13.7129 73.6929 13.9088 74.0913 14.1047C74.2905 14.3006 74.4896 14.3006 74.6888 14.4965C74.888 14.6924 75.0871 14.6924 75.2863 14.8883C75.6846 15.0842 76.2822 15.2801 76.6805 15.476C77.278 15.6719 77.6763 15.6719 78.2739 15.6719C79.2697 15.6719 80.4647 15.476 81.4606 14.4965C81.4606 14.4965 81.6597 14.6924 81.8589 15.2801C82.0581 15.6719 82.4564 16.2596 82.6556 16.8473C82.8548 17.0432 82.8548 17.435 83.0539 17.6309C83.2531 17.8268 83.2531 18.2186 83.4523 18.4145C83.6515 18.4145 83.6515 18.8063 83.6515 18.8063C82.2573 18.0227 80.2656 18.2186 78.8714 18.4145C78.0747 18.6104 77.4772 18.8063 76.8797 18.8063C76.4813 19.0022 76.083 19.0022 76.083 19.0022C76.083 19.0022 76.2822 19.394 76.8797 19.7858C77.278 20.1776 77.8755 20.9612 78.8714 21.5489C79.668 22.1366 80.6639 22.7243 81.6598 23.1161C82.6556 23.312 83.8506 23.312 85.2448 22.5284C85.2448 22.5284 85.2448 22.9202 85.444 23.312C85.6432 23.7038 85.6432 24.4874 85.8423 25.0751C86.0415 25.6628 86.0415 26.2505 86.2407 26.8382C86.4398 27.23 86.4398 27.6218 86.4398 27.6218C85.8423 27.0341 85.0456 26.8382 84.249 26.4464C83.4523 26.2505 82.6556 26.0546 81.8589 26.0546C80.2656 26.0546 79.0705 26.2505 79.0705 26.2505C79.0705 26.2505 79.0705 26.4464 79.2697 26.4464C79.2697 26.4464 79.4689 26.6423 79.4689 26.8382C79.4689 27.0341 79.6681 27.0341 79.6681 27.23C79.8672 27.6218 80.0664 27.8177 80.2656 28.2095C80.4647 28.6013 80.8631 28.9931 81.0622 29.3849C81.2614 29.5808 81.4606 29.7767 81.6598 29.9726C81.8589 30.1685 82.0581 30.3644 82.2573 30.5603C82.6556 30.9521 83.0539 31.148 83.6515 31.5397C84.6473 31.9315 85.8423 32.3233 87.2365 31.7356C87.2365 31.7356 87.2365 32.1274 87.2365 32.5192C87.2365 32.7151 87.2365 33.1069 87.2365 33.3028C87.2365 33.6946 87.2365 33.8905 87.2365 34.2823C87.2365 34.87 87.2365 35.6536 87.2365 36.0454C87.2365 36.4372 87.2365 36.829 87.2365 36.829C86.8382 36.2413 86.0415 35.6536 85.2448 35.2618C84.4481 34.87 83.6515 34.6741 82.8548 34.4782C81.4606 34.0864 80.0664 33.8905 80.0664 33.8905C80.0664 33.8905 80.0664 34.2823 80.4647 35.0659C80.4647 35.2618 80.6639 35.4577 80.6639 35.6536C80.6639 35.8495 80.8631 36.0454 80.8631 36.2413C81.0622 36.6331 81.2614 37.0249 81.4606 37.6126C81.6598 38.0044 81.8589 38.5921 82.2573 38.9839C82.4564 39.1798 82.6556 39.3757 82.8548 39.5716C83.0539 39.7675 83.2531 39.9634 83.4523 40.1593C84.249 40.747 85.444 41.3347 86.8382 41.1388C86.8382 41.1388 86.8382 41.5306 86.639 41.9224C86.639 42.3142 86.4398 43.0978 86.2407 43.6855C86.2407 43.8814 86.2407 44.0773 86.2407 44.0773C86.2407 44.2732 86.2407 44.4691 86.0415 44.4691C86.0415 44.665 85.8423 45.0568 85.8423 45.2527C85.8423 45.4486 85.6432 45.6445 85.6432 45.8404C85.6432 46.0363 85.6432 46.0363 85.6432 46.0363C85.2448 45.2527 84.8465 44.665 84.0498 44.0773C83.6515 43.8814 83.4523 43.4896 83.0539 43.2937C82.6556 43.0978 82.2573 42.9019 82.0581 42.706C80.6639 41.9224 79.4689 41.7265 79.4689 41.7265C79.4689 41.7265 79.4689 41.9224 79.4689 42.1183C79.4689 42.3142 79.4689 42.5101 79.4689 42.9019C79.4689 43.6855 79.668 44.4691 79.8672 45.4486C80.0664 46.4281 80.4647 47.4076 81.0622 48.1912C81.6598 48.9748 82.6556 49.7584 84.0498 49.9543C84.0498 49.9543 83.8506 50.3461 83.6515 50.7379C83.4523 51.1297 83.2531 51.7174 82.8548 52.305C82.6556 52.5009 82.6556 52.8927 82.4564 53.0886C82.4564 53.2845 82.2573 53.2845 82.2573 53.4804C82.2573 53.6763 82.0581 53.6763 82.0581 53.8722C81.8589 54.264 81.6598 54.6558 81.6598 54.6558C81.4606 53.0886 80.0664 51.7174 78.8714 50.7379C77.6763 49.7584 76.6805 49.1707 76.6805 49.1707C76.6805 49.1707 76.4813 49.5625 76.4813 50.1502C76.4813 50.3461 76.4813 50.542 76.4813 50.7379C76.4813 50.9338 76.4813 51.1297 76.4813 51.3256C76.4813 51.7174 76.4813 52.305 76.4813 52.6968C76.4813 53.6763 76.6805 54.8517 77.0788 55.8312C77.4772 56.8107 78.2739 57.7902 79.6681 58.182C79.6681 58.182 79.6681 58.182 79.4689 58.3779C79.4689 58.5738 79.2697 58.5738 79.0705 58.7697C78.8714 59.1615 78.473 59.7492 78.0747 60.141C77.6764 60.7287 77.278 61.1205 76.8797 61.5123C76.6805 61.7082 76.6805 61.9041 76.4813 61.9041C76.4813 62.1 76.2822 62.1 76.2822 62.1C76.2822 61.9041 76.2822 61.7082 76.2822 61.5123C76.2822 61.3164 76.2822 61.1205 76.083 60.9246C76.083 60.5328 75.8838 60.141 75.6846 59.7492C75.2863 58.9656 74.888 58.182 74.4896 57.5943C73.4938 56.4189 72.6971 55.4394 72.6971 55.4394C72.6971 55.4394 72.6971 55.6353 72.4979 55.6353C72.4979 55.8312 72.2988 56.0271 72.0996 56.4189C71.9004 56.8107 71.9004 57.2025 71.7012 57.5943C71.5021 57.9861 71.5021 58.3779 71.3029 58.9656C71.3029 59.5533 71.1037 59.9451 71.1037 60.5328C71.1037 61.1205 71.1037 61.5123 71.3029 62.1C71.5021 63.0795 72.0996 64.059 73.2946 65.0385C73.2946 65.0385 73.0954 65.2344 72.6971 65.6262C72.2988 66.018 71.9004 66.4098 71.3029 66.8016C71.1037 66.9975 70.9046 67.1934 70.5062 67.3893C70.3071 67.5852 70.1079 67.7811 69.9087 67.977C69.5104 68.1729 69.3112 68.3688 69.3112 68.3688C69.5104 67.5852 69.5104 66.8016 69.3112 66.018C69.112 65.2344 68.9129 64.4508 68.5145 63.6672C67.917 62.2959 67.1203 61.3164 67.1203 61.3164C67.1203 61.3164 66.9212 61.7082 66.5228 62.2959C66.3237 62.4918 66.1245 62.8836 65.9253 63.2754C65.7261 63.4713 65.7261 63.6672 65.527 63.8631C65.3278 64.059 65.3278 64.2549 65.1286 64.4508C64.9295 64.8426 64.7303 65.4303 64.5311 65.8221C64.332 66.4098 64.3319 66.8016 64.3319 67.3893C64.3319 68.3688 64.5311 69.5442 65.527 70.5237C65.527 70.5237 65.3278 70.7196 64.7303 70.9155C64.3319 71.1114 63.7344 71.5032 63.1369 71.6991C62.9378 71.895 62.5394 71.895 62.3402 72.0909C62.1411 72.2868 61.7427 72.2868 61.5436 72.4827C61.1452 72.6786 60.7469 72.8745 60.7469 72.8745C61.5436 71.5032 61.3444 69.5442 61.1452 68.1729C60.9461 67.3893 60.7469 66.8016 60.7469 66.2139C60.5477 65.8221 60.5477 65.4303 60.5477 65.4303C60.5477 65.4303 60.1494 65.6262 59.751 66.2139C59.5519 66.4098 59.5519 66.4098 59.3527 66.6057C59.1535 66.8016 58.9544 66.8016 58.9544 66.9975C58.556 67.3893 58.3568 67.7811 57.9585 68.1729C57.361 68.9565 56.7635 69.936 56.5643 70.9155C56.3651 71.895 56.3651 73.0704 57.1618 74.2457C57.1618 74.2457 56.7635 74.2457 56.3651 74.4416C55.9668 74.6375 55.3693 74.6375 54.971 74.8334C51.9834 75.8129 49.195 76.5965 47.0042 77.576C44.6141 76.5965 42.0249 75.8129 39.0373 74.8334C38.4398 74.6375 38.0415 74.6375 37.6432 74.4416C37.2448 74.2457 36.8465 74.2457 36.8465 74.2457C37.6432 73.0704 37.6432 71.895 37.444 70.9155C37.2448 69.936 36.6473 68.9565 36.0498 68.1729C35.6515 67.7811 35.4523 67.3893 35.0539 66.9975C34.8548 66.8016 34.6556 66.6057 34.6556 66.6057C34.4564 66.4098 34.4564 66.4098 34.2573 66.2139C33.6598 65.8221 33.4606 65.4303 33.4606 65.4303C33.4606 65.4303 33.2614 65.6262 33.2614 66.2139C33.0622 66.6057 32.8631 67.3893 32.8631 68.1729C32.6639 69.7401 32.4647 71.5032 33.2614 72.8745C33.2614 72.8745 33.0622 72.6786 32.4647 72.4827C32.2656 72.4827 32.0664 72.2868 31.668 72.0909C31.4689 71.895 31.0705 71.895 30.8714 71.6991C30.2739 71.5032 29.6763 71.1114 29.278 70.9155C28.8797 70.7196 28.4813 70.5237 28.4813 70.5237C29.4772 69.5442 29.8755 68.3688 29.6763 67.3893C29.6763 66.8016 29.4772 66.4098 29.4772 65.8221C29.278 65.2344 29.0788 64.8426 28.8797 64.4508C28.6805 64.2549 28.6805 64.059 28.4813 63.8631C28.2822 63.6672 28.2822 63.4713 28.083 63.2754C27.8838 62.8836 27.6846 62.4918 27.4855 62.2959C27.0871 61.7082 26.888 61.3164 26.888 61.3164C26.888 61.3164 26.2905 62.2959 25.4938 63.6672C25.2946 64.4508 24.8963 65.2344 24.6971 66.018C24.4979 66.8016 24.4979 67.5852 24.6971 68.3688C24.6971 68.3688 24.4979 68.1729 24.0996 67.977C23.9004 67.7811 23.7012 67.5852 23.5021 67.3893C23.3029 67.1934 23.1037 66.9975 22.7054 66.8016C22.3071 66.4098 21.7095 66.018 21.3112 65.6262C20.9129 65.2344 20.7137 65.0385 20.7137 65.0385C21.9087 64.2549 22.5062 63.2754 22.7054 62.1C22.9046 61.5123 22.9046 61.1205 22.9046 60.5328C22.9046 59.9451 22.7054 59.5533 22.7054 58.9656C22.5062 58.3779 22.5062 57.9861 22.3071 57.5943C22.1079 57.2025 22.1079 56.8107 21.9087 56.4189C21.7095 56.0271 21.7095 55.8312 21.5104 55.6353C21.5104 55.4394 21.3112 55.4394 21.3112 55.4394C21.3112 55.4394 20.3154 56.223 19.5187 57.5943C19.1203 58.182 18.5228 58.9656 18.3237 59.7492C18.1245 60.141 17.9253 60.5328 17.9253 60.9246C17.9253 61.1205 17.9253 61.3164 17.7261 61.5123C17.7261 61.7082 17.7261 61.9041 17.7261 62.1C17.7261 62.1 17.7261 62.1 17.527 61.9041C17.527 61.7082 17.3278 61.7082 17.1286 61.5123C16.7303 61.1205 16.332 60.7287 15.9336 60.141C15.5353 59.5533 15.1369 59.1615 14.9378 58.7697C14.7386 58.5738 14.7386 58.3779 14.5394 58.3779C14.5394 58.182 14.3402 58.182 14.3402 58.182C15.7344 57.5943 16.5311 56.8107 16.9295 55.8312C17.3278 54.8517 17.527 53.6763 17.527 52.6968C17.527 52.305 17.527 51.7174 17.527 51.3256C17.527 51.1297 17.527 50.9338 17.527 50.7379C17.527 50.542 17.527 50.3461 17.527 50.1502C17.527 49.5625 17.3278 49.1707 17.3278 49.1707C17.3278 49.1707 16.3319 49.7584 15.1369 50.7379C13.9419 51.7174 12.7469 53.0886 12.3485 54.6558C12.3485 54.6558 12.1494 54.4599 11.9502 53.8722C11.9502 53.6763 11.751 53.6763 11.751 53.4804C11.751 53.2845 11.5519 53.2845 11.5519 53.0886C12.1494 52.6968 11.9502 52.5009 11.9502 52.1091C11.751 51.5215 11.3527 50.9338 11.1535 50.542C10.9544 50.1502 10.7552 49.7584 10.7552 49.7584C12.3485 49.5625 13.1452 48.9748 13.9419 47.9953C14.5394 47.2117 14.9378 46.2322 15.1369 45.2527C15.3361 44.2732 15.5353 43.2937 15.5353 42.706C15.5353 42.3142 15.5353 42.1183 15.5353 41.9224C15.5353 41.7265 15.5353 41.5306 15.5353 41.5306C15.5353 41.5306 14.3402 41.9224 12.9461 42.5101C12.5477 42.706 12.3485 42.9019 11.9502 43.0978C11.5519 43.2937 11.3527 43.4896 10.9544 43.8814C10.3568 44.4691 9.75934 45.0568 9.361 45.8404C9.361 45.8404 9.361 45.8404 9.361 45.6445C9.361 45.4486 9.361 45.2527 9.16183 45.0568C9.16183 44.8609 8.96266 44.4691 8.96266 44.2732C8.96266 44.0773 8.96266 43.8814 8.76349 43.8814C8.76349 43.6855 8.76349 43.4896 8.76349 43.4896C8.56432 42.9019 8.56431 42.3142 8.36514 41.7265C8.36514 41.3347 8.16597 40.9429 8.16597 40.9429C9.95851 40.9429 10.9544 40.5511 11.9502 39.7675C12.1494 39.5716 12.3485 39.3757 12.5477 39.1798C12.7469 38.9839 12.9461 38.788 13.1452 38.5921C13.5436 38.2003 13.7427 37.8085 13.9419 37.2208C14.1411 36.829 14.3402 36.2413 14.5394 35.8495C14.5394 35.6536 14.7386 35.4577 14.7386 35.2618C14.7386 35.0659 14.9378 34.87 14.9378 34.6741C15.1369 34.0864 15.3361 33.4987 15.3361 33.4987C15.3361 33.4987 14.1411 33.4987 12.5477 34.0864C11.5519 34.4782 10.7552 34.87 9.95851 35.2618C9.16183 35.6536 8.56432 36.2413 7.9668 36.829C7.9668 36.829 7.9668 36.4372 7.9668 36.0454C7.9668 35.6536 7.9668 34.87 7.9668 34.2823C7.9668 33.8905 7.9668 33.6946 7.9668 33.3028C7.9668 32.911 7.9668 32.7151 7.9668 32.5192C7.9668 32.1274 7.9668 31.7356 7.9668 31.7356C9.361 32.1274 10.556 31.9315 11.5519 31.5397C11.9502 31.3438 12.5477 30.9521 12.9461 30.5603C13.1452 30.3644 13.3444 30.1685 13.5436 29.9726C13.7427 29.7767 13.9419 29.5808 14.1411 29.3849C14.5394 28.9931 14.7386 28.6013 14.9378 28.2095C15.1369 27.8177 15.3361 27.4259 15.5353 27.23C15.5353 27.0341 15.7344 27.0341 15.7344 26.8382C15.9336 26.6423 15.9336 26.6423 15.9336 26.4464C15.9336 26.2505 16.1328 26.2505 16.1328 26.2505C16.1328 26.2505 14.9378 26.0546 13.3444 26.0546C12.5477 26.0546 11.751 26.2505 10.9544 26.4464C10.1577 26.6423 9.361 27.0341 8.76349 27.6218C8.76349 27.6218 8.76349 27.23 8.96266 26.8382C9.16183 26.4464 9.16183 25.6628 9.361 25.0751C9.56017 24.4874 9.75934 23.8997 9.75934 23.312C9.95851 22.9202 9.95851 22.5284 9.95851 22.5284C11.1535 23.312 12.3485 23.312 13.5436 23.1161C14.5394 22.9202 15.5353 22.3325 16.3319 21.5489C17.1286 20.9612 17.7261 20.3735 18.3237 19.7858C18.722 19.394 19.1203 19.0022 19.1203 19.0022C19.1203 19.0022 18.722 19.0022 18.3237 18.8063C17.7261 18.6104 17.1286 18.4145 16.3319 18.4145C14.7386 18.0227 12.9461 18.0227 11.5519 18.8063C11.5519 18.8063 11.751 18.6104 11.9502 18.0227C11.9502 17.8268 11.9502 17.435 12.1494 17.2391C12.3485 17.0432 12.3485 16.6514 12.5477 16.4555C12.7469 15.8678 13.1452 15.2801 13.3444 14.8883C13.5436 14.4965 13.7427 14.1047 13.7427 14.1047C14.9378 15.0842 15.9336 15.476 17.1286 15.476C17.7261 15.476 18.1245 15.2801 18.722 15.2801C19.3195 15.0842 19.7178 14.8883 20.1162 14.6924C20.3154 14.4965 20.5145 14.4965 20.7137 14.3006C20.9129 14.1047 21.112 14.1047 21.3112 13.9088C21.7095 13.7129 22.1079 13.517 22.3071 13.3211C22.9046 12.9293 23.3029 12.7334 23.3029 12.7334C23.3029 12.7334 22.3071 12.1457 20.9129 11.3621C20.1162 10.9703 19.3195 10.7744 18.5228 10.5785C17.7261 10.3827 16.9295 10.3827 16.1328 10.5785C16.1328 10.5785 16.332 10.3826 16.5311 9.99085C16.7303 9.79495 16.9295 9.59905 17.1286 9.40316C17.3278 9.20726 17.527 9.01136 17.7261 8.61956C17.7261 8.61956 17.7261 8.42366 17.9253 8.42366C24.0996 9.79495 24.8963 0 24.8963 0C24.8963 0 15.5353 1.95899 17.1286 7.64006C16.9295 7.83596 16.9295 7.83596 16.7303 8.03186C16.5311 8.22776 16.332 8.42366 16.1328 8.81546C15.9336 9.01136 15.9336 9.20726 15.7344 9.40316C15.3361 9.79495 15.1369 9.99085 15.1369 9.99085C15.1369 9.20726 14.9378 8.42366 14.5394 7.64006C14.3402 6.85647 13.9419 6.07287 13.5436 5.28927C12.7469 4.11388 11.9502 3.13438 11.9502 3.13438C11.9502 3.13438 11.5519 3.72208 11.1535 4.50568C10.9544 4.89748 10.7552 5.48517 10.556 5.87697C10.3568 6.26877 10.3568 6.46467 10.1577 6.85647C10.1577 7.05237 9.95851 7.44416 9.95851 7.83596C9.95851 8.42366 9.75934 9.01136 9.75934 9.59905C9.75934 10.1868 9.95851 10.7744 10.1577 11.3621C10.556 12.3416 11.3527 13.3211 12.7469 13.7129C12.7469 13.7129 12.5477 13.9088 12.3485 14.4965C12.1494 14.6924 11.751 15.2801 11.5519 15.8678C11.3527 16.2596 11.3527 16.4555 11.1535 16.8473C10.9544 17.0432 10.7552 17.2391 10.7552 17.435C10.556 18.0227 10.3568 18.2186 10.3568 18.2186C9.95851 16.6514 8.76349 15.2801 7.76763 14.1047C7.17012 13.517 6.57261 13.1252 6.37344 12.7334C5.9751 12.3416 5.57676 12.1457 5.57676 12.1457C5.57676 12.1457 5.37759 12.7334 5.17842 13.7129C4.97925 14.4965 4.78008 15.6719 4.78008 17.0432C4.78008 18.4145 4.97925 19.5899 5.77593 20.5694C6.37344 21.5489 7.36929 22.1366 8.96266 22.3325C8.96266 22.3325 8.96266 22.7243 8.76349 23.1161C8.56432 23.5079 8.36514 24.2915 8.36514 24.8792C7.9668 25.4669 7.9668 26.0546 7.76763 26.4464C7.76763 27.0341 7.56846 27.4259 7.56846 27.4259C7.17012 26.6423 6.57261 26.0546 5.9751 25.4669C5.37759 24.8792 4.58091 24.2915 3.9834 23.8997C2.58921 23.1161 1.59336 22.5284 1.59336 22.5284C1.59336 22.5284 1.59336 22.7243 1.59336 22.9202C1.59336 23.1161 1.59336 23.312 1.59336 23.5079C1.59336 23.7038 1.59336 23.8997 1.59336 24.0956C1.59336 24.4874 1.59336 25.0751 1.59336 25.6628C1.59336 26.2505 1.79253 26.8382 1.9917 27.4259C1.9917 27.8177 2.19087 28.0136 2.19087 28.4054C2.39004 28.6013 2.39004 28.9931 2.58921 29.189C2.78838 29.7767 3.18672 30.1685 3.58506 30.5603C4.38174 31.3438 5.57676 31.7356 6.97095 31.5397C6.97095 31.5397 6.97095 31.9315 6.97095 32.3233C6.97095 32.5192 6.97095 32.911 6.97095 33.1069C6.97095 33.4987 6.97095 33.6946 6.97095 34.0864C6.97095 34.6741 6.97095 35.4577 6.97095 35.8495C6.97095 36.4372 6.97095 36.6331 6.97095 36.6331C6.37344 36.0454 5.77593 35.4577 4.97925 35.0659C4.18257 34.6741 3.38589 34.2823 2.78838 34.0864C1.19502 33.6946 0 33.3028 0 33.3028C0 33.3028 0 33.8905 0.19917 34.87C0.19917 35.0659 0.39834 35.2618 0.39834 35.6536C0.39834 35.8495 0.59751 36.2413 0.59751 36.4372C0.796681 37.0249 0.995851 37.6126 1.39419 38.2003C1.79253 38.788 1.9917 39.3757 2.39004 39.7675C2.58921 39.9634 2.78838 40.1593 2.98755 40.3552C3.18672 40.5511 3.38589 40.747 3.78423 40.9429C4.78008 41.5306 5.9751 41.7265 7.36929 41.1388C7.36929 41.1388 7.36929 41.5306 7.56846 41.9224C7.56846 42.3142 7.76763 43.0978 7.9668 43.6855C7.9668 43.8814 7.9668 44.0773 7.9668 44.0773C7.9668 44.2732 7.9668 44.4691 8.16597 44.4691C8.16597 44.8609 8.36514 45.0568 8.36514 45.2527C8.36514 45.4486 8.56432 45.6445 8.56432 45.8404C8.56432 46.0363 8.56432 46.0363 8.56432 46.0363C7.96681 45.6445 7.17012 45.2527 6.37344 44.8609C5.9751 44.665 5.57676 44.665 5.17842 44.4691C4.78008 44.4691 4.38174 44.2732 3.9834 44.2732C2.39004 44.0773 1.19502 44.0773 1.19502 44.0773C1.19502 44.0773 1.19502 44.2732 1.39419 44.4691C1.59336 44.665 1.59336 45.0568 1.79253 45.4486C2.19087 46.2322 2.78838 47.4076 3.78423 48.3871C4.58091 49.3666 5.57676 50.1502 6.77178 50.542C7.76763 50.9338 8.96266 50.7379 10.1577 49.9543C10.1577 49.9543 10.3568 50.3461 10.556 50.7379C10.7552 51.1297 10.9544 51.7174 11.3527 52.305C11.5519 52.6968 11.5519 52.8927 11.751 53.0886C11.751 53.2845 11.9502 53.2845 11.9502 53.4804C11.9502 53.6763 12.1494 53.6763 12.1494 53.8722C11.9502 54.6558 11.9502 54.8517 11.9502 54.8517C10.3568 54.264 8.56432 54.264 6.97095 54.264C5.37759 54.4599 4.18257 54.8517 4.18257 54.8517C4.18257 54.8517 4.58091 55.4394 5.17842 56.0271C5.37759 56.223 5.57676 56.4189 5.57676 56.6148C5.77593 56.8107 5.9751 57.0066 6.17427 57.2025C6.57261 57.5943 6.97095 57.9861 7.56846 58.3779C8.56431 59.1615 9.75934 59.7492 10.9544 59.9451C12.1494 60.141 13.3444 59.7492 14.3402 58.5738C14.3402 58.5738 14.3402 58.5738 14.5394 58.7697C14.5394 58.9656 14.7386 58.9656 14.9378 59.3574C15.1369 59.7492 15.5353 60.3369 15.9336 60.7287C16.332 61.3164 16.7303 61.7082 17.1286 62.1C17.3278 62.2959 17.3278 62.4918 17.527 62.4918C17.527 62.6877 17.527 62.6877 17.527 62.6877C17.3278 62.6877 17.1286 62.6877 16.9295 62.6877C16.7303 62.6877 16.5311 62.6877 16.3319 62.6877C15.9336 62.6877 15.5353 62.6877 15.1369 62.8836C14.3402 63.0795 13.3444 63.2754 12.7469 63.4713C10.9544 63.8631 9.95851 64.2549 9.95851 64.2549C9.95851 64.2549 9.95851 64.4508 10.1577 64.6467C10.3568 64.8426 10.7552 65.0385 10.9544 65.4303C11.3527 65.8221 11.751 66.018 12.3485 66.4098C12.9461 66.8016 13.3444 66.9975 13.9419 67.1934C14.5394 67.3893 15.1369 67.5852 15.7344 67.7811C16.332 67.977 16.9295 67.977 17.527 67.7811C18.722 67.5852 19.7178 66.9975 20.3154 65.8221C20.3154 65.8221 20.5145 66.018 20.9129 66.4098C21.3112 66.8016 21.7095 67.1934 22.3071 67.5852C22.5062 67.7811 22.9046 67.977 23.1037 68.1729C23.3029 68.3688 23.5021 68.5647 23.7012 68.7606C24.0996 69.1524 24.2988 69.3483 24.2988 69.3483C23.5021 69.3483 22.7054 69.5442 21.9087 69.936C21.112 70.3278 20.3154 70.7196 19.7178 71.1114C18.3237 71.895 17.3278 72.6786 17.3278 72.6786C17.3278 72.6786 17.9253 73.0704 18.722 73.4621C19.1203 73.658 19.7178 73.8539 20.3154 74.0498C20.5145 74.2457 20.9129 74.2457 21.112 74.2457C21.5104 74.2457 21.7095 74.4416 22.1079 74.4416C22.7054 74.6375 23.3029 74.6375 23.9004 74.6375C24.4979 74.6375 25.0954 74.4416 25.6929 74.2457C26.6888 73.854 27.6846 73.0703 28.083 71.6991C28.083 71.6991 28.2822 71.895 28.8797 72.0909C29.278 72.2868 29.8755 72.6786 30.473 72.8745C30.6722 73.0704 31.0705 73.0704 31.2697 73.2663C31.4689 73.4622 31.8672 73.4621 32.0664 73.658C32.4647 73.8539 32.8631 74.0498 32.8631 74.0498C31.2697 74.4416 29.6763 75.617 28.6805 76.7924C28.083 77.3801 27.6846 77.7719 27.2863 78.1637C26.888 78.5555 26.6888 78.7514 26.6888 78.7514C26.6888 78.7514 27.2863 78.9473 28.2822 79.1432C28.4813 79.1432 28.6805 79.3391 29.0788 79.3391C29.278 79.3391 29.6763 79.3391 29.8755 79.535C30.473 79.535 31.0705 79.7309 31.668 79.535C32.8631 79.535 34.2573 79.1432 35.2531 78.5555C36.249 77.9678 36.8465 76.9883 36.8465 75.4211C36.8465 75.4211 37.2448 75.617 37.6432 75.617C38.0415 75.8129 38.8382 76.0088 39.4357 76.2047C41.4274 76.7924 43.6183 77.3801 45.8091 78.3596C39.834 80.9063 37.0456 84.2366 37.0456 89.33C37.0456 93.8356 39.834 91.0931 39.834 91.0931C40.0332 84.2366 43.4191 81.1022 47.4025 79.1432C51.3859 81.1022 54.7718 84.2366 54.971 91.0931C54.971 91.0931 57.7593 94.0315 57.7593 89.33C57.7593 84.2366 54.7718 81.1022 48.9958 78.3596C51.1867 77.576 53.5768 76.9883 55.3693 76.2047C55.9668 76.0088 56.7635 75.8129 57.1618 75.617C57.5602 75.4211 57.9585 75.4211 57.9585 75.4211C57.9585 76.7924 58.7552 77.7719 59.5519 78.5555C60.5477 79.1432 61.7427 79.535 63.1369 79.535C63.7344 79.535 64.3319 79.535 64.9295 79.535C65.1286 79.535 65.527 79.535 65.7261 79.3391C65.9253 79.3391 66.3237 79.1432 66.5228 79.1432C67.5187 78.9473 68.1162 78.7514 68.1162 78.7514C68.1162 78.7514 67.917 78.5555 67.5187 78.1637C67.1203 77.7719 66.722 77.3801 66.1245 76.7924C64.9295 75.8129 63.5353 74.6375 61.9419 74.0498C61.9419 74.0498 62.3402 73.8539 62.7386 73.658C62.9378 73.658 63.1369 73.4622 63.5353 73.2663C63.7344 73.0704 64.1328 73.0704 64.3319 72.8745C64.9295 72.6786 65.527 72.2868 65.9253 72.0909C66.3236 71.895 66.722 71.6991 66.722 71.6991C67.1203 73.0703 67.917 73.854 69.112 74.2457C69.7095 74.4416 70.3071 74.6375 70.9046 74.6375C71.5021 74.6375 72.0996 74.6375 72.6971 74.4416C73.0954 74.4416 73.2946 74.2457 73.6929 74.2457C74.0913 74.2457 74.2905 74.0498 74.4896 74.0498C75.0871 73.8539 75.4855 73.658 76.083 73.4621C76.8797 73.0704 77.4772 72.6786 77.4772 72.6786C77.4772 72.6786 76.4813 71.895 75.0871 71.1114C74.4896 70.7196 73.6929 70.3278 72.8963 69.936C72.0996 69.5442 71.3029 69.3483 70.5062 69.3483C70.5062 69.3483 70.7054 69.1524 71.1037 68.7606C71.3029 68.5647 71.5021 68.3688 71.7012 68.1729C71.9004 67.977 72.0996 67.7811 72.4979 67.5852C73.0954 67.1934 73.4938 66.8016 73.8921 66.4098C74.2905 66.018 74.4896 65.8221 74.4896 65.8221C75.2863 66.9975 76.2822 67.7811 77.278 67.7811C77.8755 67.7811 78.473 67.7811 79.0705 67.7811C79.6681 67.5852 80.2656 67.3893 80.8631 67.1934C81.4606 66.9975 82.0581 66.6057 82.4564 66.4098C82.8548 66.018 83.4523 65.8221 83.8506 65.4303C84.249 65.0385 84.4481 64.8426 84.6473 64.6467C84.8465 64.4508 85.0456 64.2549 85.0456 64.2549C85.0456 64.2549 83.8506 63.6672 82.4564 63.2754C81.6598 63.0795 80.8631 62.8836 80.0664 62.6877C79.6681 62.6877 79.2697 62.6877 78.8714 62.4918C78.6722 62.4918 78.473 62.4918 78.2739 62.4918C78.0747 62.4918 77.8755 62.4918 77.6763 62.4918C77.6763 62.4918 77.6763 62.4918 77.8755 62.2959C77.8755 62.1 78.0747 62.1 78.2739 61.9041C78.6722 61.5123 79.0705 60.9246 79.4689 60.5328C79.8672 59.9451 80.2656 59.5533 80.4647 59.1615C80.6639 58.9656 80.6639 58.7697 80.8631 58.5738C80.8631 58.3779 81.0622 58.3779 81.0622 58.3779C82.0581 59.5533 83.2531 59.9451 84.4481 59.7492C85.6432 59.7492 86.8382 58.9656 87.834 58.182C88.2324 57.7902 88.8299 57.3984 89.2282 57.0066C89.4274 56.8107 89.6266 56.6148 89.8257 56.4189C90.0249 56.223 90.2241 56.0271 90.2241 55.8312C90.8216 55.0476 91.2199 54.6558 91.2199 54.6558C91.2199 54.6558 90.0249 54.4599 88.4315 54.264C86.8382 54.0681 84.8465 54.264 83.4523 54.8517C83.4523 54.8517 83.6515 54.6558 83.8506 54.0681C83.8506 53.8722 84.0498 53.8722 84.0498 53.6763C84.0498 53.4804 84.249 53.4804 84.249 53.2845C84.4481 53.0886 84.4481 52.6968 84.6473 52.5009C84.8465 51.9132 85.2448 51.3256 85.444 50.9338C85.6432 50.542 85.8423 50.1502 85.8423 50.1502C87.0373 50.9338 88.2324 51.1297 89.2282 50.7379C90.2241 50.3461 91.4191 49.5625 92.2158 48.583C93.0124 47.6035 93.61 46.4281 94.2075 45.6445C94.4066 45.2527 94.6058 44.8609 94.6058 44.665C94.6058 44.4691 94.805 44.2732 94.805 44.2732C94.805 44.2732 93.61 44.2732 92.0166 44.4691C91.6183 44.4691 91.2199 44.665 90.8216 44.665C90.4232 44.665 90.0249 44.8609 89.6266 45.0568C88.8299 45.2527 88.0332 45.6445 87.4357 46.2322C87.4357 46.2322 87.4357 46.2322 87.4357 46.0363C87.4357 45.8404 87.4357 45.6445 87.6349 45.4486C87.6349 45.2527 87.834 44.8609 87.834 44.665C87.834 44.4691 87.834 44.2732 88.0332 44.2732C88.0332 44.0773 88.0332 43.8814 88.0332 43.8814C88.2324 43.2937 88.2324 42.5101 88.4315 42.1183C88.4315 41.7265 88.6307 41.3347 88.6307 41.3347C90.0249 41.9224 91.2199 41.7265 92.2158 41.1388C92.4149 40.9429 92.6141 40.747 93.0125 40.5511C93.2116 40.3552 93.4108 40.1593 93.61 39.9634C94.0083 39.5716 94.4066 38.9839 94.6058 38.3962C94.805 37.8085 95.2033 37.2208 95.4025 36.6331C95.4025 36.4372 95.6017 36.0454 95.6017 35.8495C95.6017 35.6536 95.8008 35.2618 95.8008 35.0659C96 34.0864 96 33.4987 96 33.4987C96 33.4987 94.0083 33.6946 92.4149 34.0864Z" fill="#D1E9FF"/>
</svg>
