<svg width="24" height="24" viewBox="0 0 16 16" fill="currentColor" xmlns="http://www.w3.org/2000/svg">
    <path d="M8.0013 12.9983C8.55377 12.9983 9.00163 12.5506 9.00163 11.9983C9.00163 11.4461 8.55377 10.9983 8.0013 10.9983C7.44884 10.9983 7.00098 11.4461 7.00098 11.9983C7.00098 12.5506 7.44884 12.9983 8.0013 12.9983Z" />
    <path d="M9.00456 4.99834H7.00391V9.99834H9.00456V4.99834Z" />
    <path fill-rule="evenodd" clip-rule="evenodd" d="M15.4424 9.95318L11.4371 2.97762C10.7338 1.7584 9.42294 1.00166 8.00532 1C6.58755 0.998343 5.27626 1.75196 4.56422 2.97767L0.55628 9.95762C-0.170394 11.1795 -0.186834 12.7105 0.517031 13.9592C1.22148 15.2089 2.54051 15.9866 3.97525 15.9983L12.0131 15.9983C13.4628 15.9842 14.7793 15.2089 15.4836 13.9603C16.1871 12.7132 16.1714 11.1856 15.4424 9.95318ZM2.27894 10.9737L6.29206 3.98491C6.64723 3.37354 7.29862 2.99918 8.00298 3C8.70725 3.00083 9.35841 3.37673 9.70769 3.98222L13.7186 10.9672C14.086 11.5885 14.0939 12.3533 13.7417 12.9777C13.389 13.603 12.7295 13.9913 12.0034 13.9984L3.98339 13.9983C3.27278 13.9925 2.61208 13.6029 2.25929 12.9771C1.90689 12.3519 1.91512 11.5855 2.27894 10.9737Z" />
</svg>
    