<svg width="24" height="24" viewBox="0 0 24 24" fill="currentColor" xmlns="http://www.w3.org/2000/svg">
    <path fill-rule="evenodd" clip-rule="evenodd" d="M1 12C1 18.0751 5.92487 23 12 23C18.0751 23 23 18.0751 23 12C23 5.92487 18.0751 1 12 1C5.92487 1 1 5.92487 1 12ZM21 12C21 16.9706 16.9706 21 12 21C9.87493 21 7.92188 20.2635 6.38219 19.0318L19.0318 6.38219C20.2635 7.92188 21 9.87493 21 12ZM4.96801 17.6176C3.73643 16.0779 3 14.125 3 12C3 7.02944 7.02944 3 12 3C14.125 3 16.0779 3.73643 17.6176 4.96801L4.96801 17.6176Z" />
</svg>    