<svg width="24" height="24" viewBox="0 0 24 24" fill="none" xmlns="http://www.w3.org/2000/svg">
<path d="M16 12C16 11.4477 16.4477 11 17 11H21C21.5523 11 22 11.4477 22 12C22 12.5523 21.5523 13 21 13H17C16.4477 13 16 12.5523 16 12Z" fill="url(#paint0_angular_1805_6386)"/>
<path d="M12 16C12.5523 16 13 16.4477 13 17V21C13 21.5523 12.5523 22 12 22C11.4477 22 11 21.5523 11 21V17C11 16.4477 11.4477 16 12 16Z" fill="url(#paint1_angular_1805_6386)"/>
<path d="M15.4641 14C15.7402 13.5217 16.3518 13.3578 16.8301 13.634L20.2942 15.634C20.7725 15.9101 20.9364 16.5217 20.6603 17C20.3841 17.4783 19.7725 17.6422 19.2942 17.366L15.8301 15.366C15.3518 15.0899 15.188 14.4783 15.4641 14Z" fill="url(#paint2_angular_1805_6386)"/>
<path d="M14 15.4641C14.4783 15.188 15.0899 15.3518 15.366 15.8301L17.366 19.2942C17.6422 19.7725 17.4783 20.3841 17 20.6603C16.5217 20.9364 15.9101 20.7725 15.634 20.2942L13.634 16.8301C13.3578 16.3518 13.5217 15.7402 14 15.4641Z" fill="url(#paint3_angular_1805_6386)"/>
<path d="M8.5359 14C8.81204 14.4783 8.64817 15.0899 8.16987 15.366L4.70577 17.366C4.22748 17.6422 3.61589 17.4783 3.33975 17C3.0636 16.5217 3.22748 15.9101 3.70577 15.634L7.16987 13.634C7.64817 13.3578 8.25976 13.5217 8.5359 14Z" fill="url(#paint4_angular_1805_6386)"/>
<path d="M10 15.4641C10.4783 15.7402 10.6422 16.3518 10.366 16.8301L8.36602 20.2942C8.08988 20.7725 7.47829 20.9364 7 20.6603C6.52171 20.3841 6.35783 19.7725 6.63397 19.2942L8.63397 15.8301C8.91012 15.3518 9.52171 15.188 10 15.4641Z" fill="url(#paint5_angular_1805_6386)"/>
<path d="M2 12C2 11.4477 2.44772 11 3 11H7C7.55228 11 8 11.4477 8 12C8 12.5523 7.55228 13 7 13H3C2.44772 13 2 12.5523 2 12Z" fill="url(#paint6_angular_1805_6386)"/>
<path d="M12 2C12.5523 2 13 2.44772 13 3V7C13 7.55228 12.5523 8 12 8C11.4477 8 11 7.55228 11 7V3C11 2.44772 11.4477 2 12 2Z" fill="url(#paint7_angular_1805_6386)"/>
<path d="M3.33975 7C3.61589 6.52171 4.22748 6.35783 4.70577 6.63398L8.16987 8.63398C8.64817 8.91012 8.81204 9.52171 8.5359 10C8.25976 10.4783 7.64817 10.6422 7.16987 10.366L3.70577 8.36603C3.22748 8.08988 3.0636 7.47829 3.33975 7Z" fill="url(#paint8_angular_1805_6386)"/>
<path d="M7 3.33975C7.47829 3.0636 8.08988 3.22748 8.36603 3.70577L10.366 7.16987C10.6422 7.64817 10.4783 8.25976 10 8.5359C9.52171 8.81204 8.91012 8.64817 8.63397 8.16987L6.63397 4.70577C6.35783 4.22748 6.52171 3.61589 7 3.33975Z" fill="url(#paint9_angular_1805_6386)"/>
<path d="M20.6603 7C20.9364 7.47829 20.7725 8.08988 20.2942 8.36603L16.8301 10.366C16.3518 10.6422 15.7402 10.4783 15.4641 10C15.188 9.52171 15.3518 8.91012 15.8301 8.63397L19.2942 6.63397C19.7725 6.35783 20.3841 6.52171 20.6603 7Z" fill="url(#paint10_angular_1805_6386)"/>
<path d="M17 3.33975C17.4783 3.61589 17.6422 4.22748 17.366 4.70577L15.366 8.16987C15.0899 8.64817 14.4783 8.81204 14 8.5359C13.5217 8.25976 13.3578 7.64817 13.634 7.16987L15.634 3.70577C15.9101 3.22748 16.5217 3.0636 17 3.33975Z" fill="url(#paint11_angular_1805_6386)"/>
<defs>
<radialGradient id="paint0_angular_1805_6386" cx="0" cy="0" r="1" gradientUnits="userSpaceOnUse" gradientTransform="translate(12 12) rotate(-104.744) scale(9.82344)">
<stop stop-color="#4E575E"/>
<stop offset="1" stop-color="#4E575E" stop-opacity="0"/>
</radialGradient>
<radialGradient id="paint1_angular_1805_6386" cx="0" cy="0" r="1" gradientUnits="userSpaceOnUse" gradientTransform="translate(12 12) rotate(-104.744) scale(9.82344)">
<stop stop-color="#4E575E"/>
<stop offset="1" stop-color="#4E575E" stop-opacity="0"/>
</radialGradient>
<radialGradient id="paint2_angular_1805_6386" cx="0" cy="0" r="1" gradientUnits="userSpaceOnUse" gradientTransform="translate(12 12) rotate(-104.744) scale(9.82344)">
<stop stop-color="#4E575E"/>
<stop offset="1" stop-color="#4E575E" stop-opacity="0"/>
</radialGradient>
<radialGradient id="paint3_angular_1805_6386" cx="0" cy="0" r="1" gradientUnits="userSpaceOnUse" gradientTransform="translate(12 12) rotate(-104.744) scale(9.82344)">
<stop stop-color="#4E575E"/>
<stop offset="1" stop-color="#4E575E" stop-opacity="0"/>
</radialGradient>
<radialGradient id="paint4_angular_1805_6386" cx="0" cy="0" r="1" gradientUnits="userSpaceOnUse" gradientTransform="translate(12 12) rotate(-104.744) scale(9.82344)">
<stop stop-color="#4E575E"/>
<stop offset="1" stop-color="#4E575E" stop-opacity="0"/>
</radialGradient>
<radialGradient id="paint5_angular_1805_6386" cx="0" cy="0" r="1" gradientUnits="userSpaceOnUse" gradientTransform="translate(12 12) rotate(-104.744) scale(9.82344)">
<stop stop-color="#4E575E"/>
<stop offset="1" stop-color="#4E575E" stop-opacity="0"/>
</radialGradient>
<radialGradient id="paint6_angular_1805_6386" cx="0" cy="0" r="1" gradientUnits="userSpaceOnUse" gradientTransform="translate(12 12) rotate(-104.744) scale(9.82344)">
<stop stop-color="#4E575E"/>
<stop offset="1" stop-color="#4E575E" stop-opacity="0"/>
</radialGradient>
<radialGradient id="paint7_angular_1805_6386" cx="0" cy="0" r="1" gradientUnits="userSpaceOnUse" gradientTransform="translate(12 12) rotate(-104.744) scale(9.82344)">
<stop stop-color="#4E575E"/>
<stop offset="1" stop-color="#4E575E" stop-opacity="0"/>
</radialGradient>
<radialGradient id="paint8_angular_1805_6386" cx="0" cy="0" r="1" gradientUnits="userSpaceOnUse" gradientTransform="translate(12 12) rotate(-104.744) scale(9.82344)">
<stop stop-color="#4E575E"/>
<stop offset="1" stop-color="#4E575E" stop-opacity="0"/>
</radialGradient>
<radialGradient id="paint9_angular_1805_6386" cx="0" cy="0" r="1" gradientUnits="userSpaceOnUse" gradientTransform="translate(12 12) rotate(-104.744) scale(9.82344)">
<stop stop-color="#4E575E"/>
<stop offset="1" stop-color="#4E575E" stop-opacity="0"/>
</radialGradient>
<radialGradient id="paint10_angular_1805_6386" cx="0" cy="0" r="1" gradientUnits="userSpaceOnUse" gradientTransform="translate(12 12) rotate(-104.744) scale(9.82344)">
<stop stop-color="#4E575E"/>
<stop offset="1" stop-color="#4E575E" stop-opacity="0"/>
</radialGradient>
<radialGradient id="paint11_angular_1805_6386" cx="0" cy="0" r="1" gradientUnits="userSpaceOnUse" gradientTransform="translate(12 12) rotate(-104.744) scale(9.82344)">
<stop stop-color="#4E575E"/>
<stop offset="1" stop-color="#4E575E" stop-opacity="0"/>
</radialGradient>
</defs>
</svg>
