<svg width="24" height="24" viewBox="0 0 24 24" fill="currentColor"
    xmlns="http://www.w3.org/2000/svg">
    <path fill-rule="evenodd" clip-rule="evenodd"
        d="M12 23L12.6577 22.4341C18.1887 17.6754 21 13.5203 21 9.86796C21 4.69564 16.9029 1 12 1C7.09705 1 3 4.69564 3 9.86796C3 13.5203 5.81131 17.6754 11.3423 22.4341L12 23ZM12 20.3749C7.30661 16.2071 5 12.6754 5 9.86796C5 5.82476 8.16411 2.97066 12 2.97066C15.8359 2.97066 19 5.82476 19 9.86796C19 12.6754 16.6934 16.2071 12 20.3749Z"
    />
    <path d="M8 8.88263H16V10.8533H8V8.88263Z" />
    <path d="M11 5.92664H13V13.8093H11V5.92664Z" />
</svg>
    