<svg width="24" height="24" viewBox="0 0 24 24" fill="currentColor"
    xmlns="http://www.w3.org/2000/svg">
    <path fill-rule="evenodd" clip-rule="evenodd"
        d="M12.0007 0C11.0523 0 10.2849 0.480363 8.90629 1.26337L4.09515 3.99569C2.71651 4.77869 1.91007 5.19207 1.43589 6C0.961702 6.80794 1.00078 7.70169 1.00078 9.26768V14.7323C1.00078 16.2983 0.961681 17.1921 1.43589 18C1.91008 18.8079 2.7165 19.2213 4.09515 20.0043L8.90629 22.7367C10.2849 23.5197 11.0523 24 12.0007 24C12.949 24 13.7151 23.5197 15.0937 22.7367L19.9062 20.0043C21.2848 19.2213 22.0899 18.8079 22.5641 18C23.0383 17.192 22.9992 16.2983 22.9992 14.7323V9.26768C22.9992 7.70168 23.0383 6.80795 22.5641 6C22.0899 5.19206 21.2848 4.77869 19.9062 3.99569L15.0937 1.26337C13.7151 0.480363 12.949 8.00043e-06 12.0007 0ZM12.0007 1.32414C12.4309 1.32414 13.042 1.62736 14.4207 2.41035L19.2331 5.14267C20.05 5.60664 20.561 5.91805 20.9052 6.17715L14.4207 9.86122C13.042 10.6442 12.4309 10.9461 12.0007 10.9461C11.5704 10.9461 10.958 10.6442 9.57932 9.86122L3.09481 6.17846C3.43895 5.91914 3.95007 5.60733 4.76819 5.14267L9.57932 2.41035C10.958 1.62735 11.5704 1.32416 12.0007 1.32414ZM21.5782 7.32414C21.6342 7.74709 21.6532 8.33837 21.6532 9.26768V14.7323C21.6532 16.2983 21.6146 16.9714 21.3995 17.3379C21.1843 17.7045 20.6118 18.0743 19.2331 18.8573L14.4207 21.5896C13.6033 22.0539 13.0737 22.3337 12.6737 22.4974V15.1319C12.6737 13.5659 12.7123 12.8929 12.9274 12.5263C13.1425 12.1598 13.7151 11.7899 15.0937 11.0069L21.5782 7.32414ZM2.42309 7.32547L8.90629 11.0069C10.2849 11.7899 10.8575 12.1598 11.0726 12.5263C11.2878 12.8929 11.3276 13.5659 11.3276 15.1319V22.4974C10.9272 22.3337 10.3966 22.0539 9.57932 21.5897L4.76819 18.8574C3.38953 18.0744 2.817 17.7045 2.60186 17.338C2.38673 16.9714 2.34685 16.2983 2.34685 14.7324V9.26772C2.34685 8.33938 2.36683 7.74838 2.42309 7.32547Z"
    />
    <path
        d="M13.5205 6.12506C13.5205 6.60349 12.8406 6.99133 12.002 6.99133C11.1633 6.99133 10.4834 6.60349 10.4834 6.12506C10.4834 5.64663 11.1633 5.25879 12.002 5.25879C12.8406 5.25879 13.5205 5.64663 13.5205 6.12506Z"
    />
    <path
        d="M8.985 6.12506C8.985 6.60349 8.3051 6.99133 7.46641 6.99133C6.62772 6.99133 5.94783 6.60349 5.94783 6.12506C5.94783 5.64663 6.62772 5.25879 7.46641 5.25879C8.3051 5.25879 8.985 5.64663 8.985 6.12506Z"
    />
    <path
        d="M18.0567 6.12506C18.0567 6.60349 17.3768 6.99133 16.5381 6.99133C15.6994 6.99133 15.0195 6.60349 15.0195 6.12506C15.0195 5.64663 15.6994 5.25879 16.5381 5.25879C17.3768 5.25879 18.0567 5.64663 18.0567 6.12506Z"
    />
    <path
        d="M15.8664 12.4825C16.2772 12.7196 16.2732 13.4957 15.8574 14.2158C15.4416 14.936 14.7716 15.3275 14.3608 15.0903C13.95 14.8531 13.954 14.0771 14.3698 13.3569C14.7855 12.6368 15.4556 12.2453 15.8664 12.4825Z"
    />
    <path
        d="M20.1616 14.8468C20.5724 15.084 20.5684 15.8601 20.1526 16.5802C19.7368 17.3003 19.0668 17.6919 18.656 17.4547C18.2452 17.2175 18.2492 16.4415 18.665 15.7213C19.0807 15.0012 19.7508 14.6097 20.1616 14.8468Z"
    />
    <path
        d="M15.8669 17.2734C16.2777 17.5106 16.2736 18.2866 15.8579 19.0068C15.4421 19.7269 14.772 20.1184 14.3612 19.8813C13.9504 19.6441 13.9544 18.868 14.3702 18.1479C14.786 17.4277 15.4561 17.0362 15.8669 17.2734Z"
    />
    <path
        d="M20.1619 9.76338C20.5727 10.0006 20.5687 10.7766 20.1529 11.4968C19.7371 12.2169 19.0671 12.6084 18.6563 12.3712C18.2455 12.1341 18.2495 11.358 18.6653 10.6379C19.081 9.91772 19.7511 9.5262 20.1619 9.76338Z"
    />
    <path
        d="M8.04329 12.4634C7.62648 12.704 7.63057 13.4914 8.05242 14.2221C8.47427 14.9527 9.15413 15.35 9.57094 15.1093C9.98774 14.8687 9.98366 14.0813 9.56181 13.3506C9.13996 12.62 8.46009 12.2227 8.04329 12.4634Z"
    />
    <path
        d="M3.91199 14.8278C3.49519 15.0684 3.49928 15.8558 3.92112 16.5865C4.34297 17.3171 5.02284 17.7144 5.43964 17.4737C5.85645 17.2331 5.85236 16.4457 5.43051 15.715C5.00866 14.9843 4.3288 14.5871 3.91199 14.8278Z"
    />
</svg>
    