<svg width="24" height="24" viewBox="0 0 24 24" fill="currentColor" xmlns="http://www.w3.org/2000/svg">
    <path fill-rule="evenodd" clip-rule="evenodd" d="M6 22C7.30622 22 8.41746 21.1937 8.82929 20.0683H16.5C18.9853 20.0683 21 18.1224 21 15.722C21 13.3216 18.9853 11.3756 16.5 11.3756H7.5C6.11929 11.3756 5 10.2946 5 8.96101C5 7.62744 6.11929 6.54638 7.5 6.54638L10.1716 6.54636L8.87868 7.79511L10.2929 9.16103L14 5.58051L10.2929 2L8.87868 3.36592L10.1716 4.61466L7.5 4.61468C5.01472 4.61468 3 6.56059 3 8.96101C3 11.3614 5.01472 13.3073 7.5 13.3073H16.5C17.8807 13.3073 19 14.3884 19 15.722C19 17.0555 17.8807 18.1366 16.5 18.1366H8.82929C8.41746 17.0112 7.30622 16.2049 6 16.2049C4.34315 16.2049 3 17.5022 3 19.1024C3 20.7027 4.34315 22 6 22ZM5 19.1024C5 18.569 5.44772 18.1366 6 18.1366C6.55228 18.1366 7 18.569 7 19.1024C7 19.6359 6.55228 20.0683 6 20.0683C5.44772 20.0683 5 19.6359 5 19.1024Z" />
    <path fill-rule="evenodd" clip-rule="evenodd" d="M18 2.68297C19.6569 2.68297 21 3.98025 21 5.58053C21 7.1808 19.6569 8.47808 18 8.47808C16.3431 8.47808 15 7.1808 15 5.58053C15 3.98025 16.3431 2.68297 18 2.68297ZM17 5.58053C17 5.0471 17.4477 4.61468 18 4.61468C18.5523 4.61468 19 5.0471 19 5.58053C19 6.11395 18.5523 6.54638 18 6.54638C17.4477 6.54638 17 6.11395 17 5.58053Z" />
</svg>    