<svg width="24" height="24" viewBox="0 0 24 24" fill="currentColor"
    xmlns="http://www.w3.org/2000/svg">
    <path fill-rule="evenodd" clip-rule="evenodd"
        d="M16.8729 18.3118C15.3063 19.5649 13.3192 20.3142 11.1571 20.3142C6.09978 20.3142 2 16.2145 2 11.1571C2 6.09978 6.09978 2 11.1571 2C16.2144 2 20.3142 6.09978 20.3142 11.1571C20.3142 13.3192 19.5649 15.3063 18.3118 16.8729L22 20.5611L20.5611 22L16.8729 18.3118ZM18.2793 11.1571C18.2793 15.0906 15.0906 18.2793 11.1571 18.2793C7.22363 18.2793 4.03491 15.0906 4.03491 11.1571C4.03491 7.22364 7.22363 4.03492 11.1571 4.03492C15.0906 4.03492 18.2793 7.22364 18.2793 11.1571Z"
    />
</svg>
    