<svg width="352" height="406" viewBox="0 0 352 406" fill="none" xmlns="http://www.w3.org/2000/svg">
<path fill-rule="evenodd" clip-rule="evenodd" d="M0 176.927V174.006C0 77.9062 78.1415 0 174.535 0H177.465C273.857 0 352 77.9062 352 174.006V176.927C352 273.029 273.857 350.934 177.465 350.934H174.535C78.1415 350.934 0 273.029 0 176.927Z" fill="#E4EBF7"/>
<path fill-rule="evenodd" clip-rule="evenodd" d="M55.5302 182.336C55.3778 183.843 54.9292 185.306 54.2099 186.64C53.4906 187.974 52.5147 189.155 51.3379 190.113C50.1612 191.071 48.8066 191.789 47.3516 192.226C45.8965 192.662 44.3695 192.809 42.8577 192.657C41.3459 192.505 39.8789 192.057 38.5404 191.34C37.202 190.623 36.0184 189.65 35.0571 188.477C34.0958 187.304 33.3757 185.953 32.9379 184.503C32.5001 183.052 32.3532 181.53 32.5056 180.023C32.816 176.981 34.3249 174.187 36.7008 172.254C39.0767 170.32 42.1251 169.407 45.1763 169.713C48.2274 170.02 51.0317 171.522 52.9729 173.889C54.9141 176.255 55.8334 179.294 55.5288 182.336" fill="white"/>
<path d="M67.5772 204.177L49.8945 219.213M51.6428 187.157L66.2969 195.44L51.6428 187.157Z" stroke="white" stroke-width="2"/>
<path fill-rule="evenodd" clip-rule="evenodd" d="M55.6981 222.08C55.602 223.118 55.3005 224.128 54.8111 225.049C54.3217 225.971 53.654 226.787 52.8465 227.45C52.0391 228.114 51.1079 228.611 50.1067 228.914C49.1055 229.216 48.0541 229.318 47.0132 229.213C45.9723 229.109 44.9625 228.8 44.042 228.304C43.1216 227.808 42.3087 227.135 41.6504 226.325C40.992 225.514 40.5012 224.582 40.2062 223.581C39.9112 222.58 39.818 221.531 39.9318 220.494C40.1591 218.423 41.1979 216.526 42.822 215.215C44.4461 213.903 46.524 213.285 48.6032 213.494C50.6824 213.703 52.5946 214.723 53.9234 216.331C55.2523 217.939 55.8901 220.005 55.6981 222.08ZM80.4613 199.63C80.3608 200.673 80.0546 201.686 79.5603 202.611C79.0659 203.536 78.3932 204.354 77.5808 205.019C76.7683 205.684 75.8321 206.182 74.8259 206.485C73.8198 206.788 72.7635 206.89 71.7176 206.785C70.6718 206.68 69.6571 206.37 68.7318 205.873C67.8065 205.376 66.9888 204.702 66.3257 203.889C65.6625 203.076 65.1671 202.14 64.8677 201.135C64.5683 200.131 64.4709 199.077 64.5811 198.035C64.7973 195.939 65.839 194.014 67.4773 192.682C69.1157 191.351 71.217 190.722 73.3201 190.933C75.4232 191.144 77.3563 192.179 78.6951 193.81C80.0339 195.441 80.6691 197.534 80.4613 199.631V199.63ZM138.385 37.4244L180.076 37.4064C180.919 37.406 181.753 37.2402 182.531 36.9185C183.309 36.5968 184.016 36.1255 184.611 35.5315C185.206 34.9374 185.678 34.2323 186 33.4563C186.322 32.6803 186.488 31.8488 186.488 31.009C186.487 30.1693 186.321 29.3378 185.998 28.5621C185.676 27.7864 185.203 27.0817 184.607 26.4882C184.011 25.8946 183.304 25.4239 182.526 25.1029C181.747 24.7819 180.913 24.6168 180.071 24.6172L138.379 24.6352C136.701 24.6707 135.104 25.3604 133.93 26.5563C132.756 27.7523 132.099 29.3592 132.1 31.0325C132.101 32.7058 132.759 34.3121 133.934 35.507C135.109 36.702 136.707 37.3903 138.385 37.4244ZM154.331 62.9833L196.022 62.9653C196.875 62.9826 197.724 62.83 198.517 62.5162C199.311 62.2025 200.034 61.734 200.643 61.1382C201.253 60.5423 201.737 59.8312 202.068 59.0464C202.398 58.2617 202.568 57.419 202.568 56.5679C202.568 55.7168 202.397 54.8743 202.066 54.0898C201.734 53.3053 201.25 52.5946 200.639 51.9993C200.029 51.404 199.306 50.9361 198.512 50.6231C197.718 50.31 196.87 50.1581 196.016 50.1761L154.324 50.1941C152.623 50.1949 150.992 50.8693 149.79 52.069C148.588 53.2688 147.913 54.8955 147.913 56.5915C147.914 58.2874 148.59 59.9136 149.794 61.1123C150.997 62.311 152.629 62.984 154.33 62.9833" fill="white"/>
<path fill-rule="evenodd" clip-rule="evenodd" d="M157.65 37.406V37.4032L179.715 37.3936C178.014 37.3945 176.383 38.0691 175.181 39.2689C173.978 40.4688 173.303 42.0957 173.304 43.7916C173.305 45.4875 173.982 47.1137 175.185 48.3122C176.389 49.5108 178.021 50.1836 179.722 50.1827L157.654 50.1924V50.1896C159.331 50.1541 160.928 49.4647 162.101 48.2693C163.274 47.0739 163.931 45.4677 163.93 43.7951C163.93 42.1226 163.272 40.5169 162.097 39.3225C160.923 38.1281 159.326 37.4401 157.648 37.406H157.65ZM208.525 96.4787H202.999C201.242 96.4733 199.559 95.775 198.317 94.5364C197.075 93.2978 196.375 91.6196 196.37 89.8682C196.375 88.1169 197.075 86.4388 198.317 85.2004C199.559 83.9621 201.243 83.2641 202.999 83.259H208.525C210.281 83.2641 211.965 83.962 213.207 85.2004C214.449 86.4387 215.15 88.1168 215.155 89.8682C215.15 91.6198 214.45 93.2983 213.207 94.5369C211.965 95.7755 210.282 96.4736 208.525 96.4787Z" fill="white"/>
<path fill-rule="evenodd" clip-rule="evenodd" d="M238.407 41.3021C238.407 18.6089 256.861 0.212891 279.623 0.212891C302.385 0.212891 320.837 18.6089 320.837 41.3021C320.837 63.9968 302.385 82.3928 279.623 82.3928C256.861 82.3928 238.409 63.9968 238.409 41.3035" fill="#FF603B"/>
<path fill-rule="evenodd" clip-rule="evenodd" d="M282.661 26.3501L281.723 47.1647C281.703 47.707 281.473 48.2206 281.081 48.5973C280.689 48.974 280.166 49.1845 279.622 49.1845C279.077 49.1845 278.554 48.974 278.162 48.5973C277.771 48.2206 277.541 47.707 277.521 47.1647L276.583 26.3501C276.568 25.9428 276.636 25.5366 276.782 25.1559C276.928 24.7751 277.149 24.4276 277.433 24.1341C277.716 23.8406 278.057 23.6072 278.433 23.4477C278.809 23.2882 279.214 23.2061 279.622 23.2061C280.031 23.2061 280.436 23.2882 280.812 23.4477C281.188 23.6072 281.529 23.8406 281.812 24.1341C282.096 24.4276 282.317 24.7751 282.463 25.1559C282.609 25.5366 282.677 25.9428 282.661 26.3501ZM282.295 53.1772C283.007 53.8375 283.364 54.7 283.364 55.766C283.364 56.832 283.007 57.6945 282.295 58.4061C281.531 59.0651 280.615 59.4209 279.597 59.4209C279.114 59.4295 278.634 59.3394 278.188 59.1561C277.741 58.9727 277.337 58.7 277 58.3549C276.236 57.6433 275.881 56.7822 275.881 55.766C275.881 54.7 276.236 53.8375 277 53.1772C277.712 52.467 278.579 52.1624 279.597 52.1624C280.666 52.1624 281.583 52.467 282.295 53.1772Z" fill="white"/>
<path fill-rule="evenodd" clip-rule="evenodd" d="M165.662 183.953C171.808 183.125 170.677 182.286 171.326 177.338C172.263 170.167 167.01 153.893 159.853 142.565C158.342 127.724 142.359 127.004 142.359 127.004C142.359 127.004 148.347 133.781 148.186 149.43C150.127 156.688 149.302 169.435 149.302 169.435C149.302 169.435 156.6 185.174 165.66 183.953" fill="#FFB594"/>
<path fill-rule="evenodd" clip-rule="evenodd" d="M140.172 126.27C140.172 126.27 142.203 125.463 144.631 127.076C155.851 129.011 159.028 136.36 160.322 142.814C162.91 144.589 162.91 146.04 162.91 147.654C163.417 148.73 165.014 151.849 165.014 151.849C165.014 151.849 154.981 154.269 149.803 161.204C147.861 152.33 140.172 126.269 140.172 126.269" fill="white"/>
<path fill-rule="evenodd" clip-rule="evenodd" d="M130.541 124.735L131.956 116.685L119.139 100.246L111.872 107.972L108.271 121.627C108.271 121.627 119.922 128.726 130.541 124.736" fill="#FFB594"/>
<path fill-rule="evenodd" clip-rule="evenodd" d="M115.159 107.728C115.159 107.728 108.831 103.757 111.764 98.1866C114.03 93.8852 118.064 99.7634 118.064 99.7634C118.064 99.7634 118.792 94.6937 122.423 94.6937C123.149 93.2456 124.602 88.9014 124.602 88.9014C124.602 88.9014 140.581 92.5216 143.487 93.2456C143.486 100.486 140.269 120.282 132.539 120.891C120.125 121.868 115.159 107.728 115.159 107.728Z" fill="#FFC6A0"/>
<path fill-rule="evenodd" clip-rule="evenodd" d="M142.986 99.4599C146.619 96.5623 147.831 85.9273 147.831 85.9273C147.831 85.9273 144.371 85.2462 138.561 83.0726C132.023 80.1765 120.694 76.4676 114.156 84.4321C100.909 90.5374 111.293 112.023 111.293 112.023L115.082 107.819C115.082 107.819 109.589 103.245 112.177 99.129C115.209 94.3113 117.653 100.624 117.653 100.624C117.653 100.624 118.541 97.3016 122.652 95.9726C123.146 94.9841 124.096 92.2485 124.651 90.6121C124.77 90.2594 125.017 89.9637 125.343 89.7827C125.669 89.6017 126.051 89.5484 126.415 89.6333C129.761 90.4086 138.528 92.4437 142.269 93.338C142.996 93.5125 143.485 94.195 143.414 94.9384L142.986 99.4599Z" fill="#520038"/>
<path fill-rule="evenodd" clip-rule="evenodd" d="M140.555 105.372C140.411 106.22 139.743 106.817 139.061 106.701C138.381 106.587 137.943 105.806 138.086 104.956C138.231 104.108 138.899 103.511 139.581 103.626C140.262 103.741 140.698 104.522 140.555 105.37V105.372ZM130.891 103.378C130.746 104.227 130.078 104.823 129.396 104.707C128.716 104.593 128.279 103.813 128.422 102.963C128.566 102.114 129.234 101.517 129.916 101.634C130.598 101.747 131.034 102.528 130.891 103.378Z" fill="#552950"/>
<path d="M137.759 101.398L136.51 103.641L136.093 109.705H132.982" stroke="#DB836E" stroke-width="1.063" stroke-linecap="round" stroke-linejoin="round"/>
<path d="M138.759 100.9C138.759 100.9 141.258 99.9027 142.258 101.648" stroke="#5C2552" stroke-width="1.117" stroke-linecap="round" stroke-linejoin="round"/>
<path d="M112.987 100.623C112.987 100.623 113.654 99.0726 114.543 99.6263C115.431 100.18 116.32 101.62 115.32 102.395C114.32 103.17 115.542 104.721 115.542 104.721" stroke="#DB836E" stroke-width="1.117" stroke-linecap="round" stroke-linejoin="round"/>
<path d="M128.205 98.7412C128.205 98.7412 130.76 100.292 133.982 100.071" stroke="#5C2552" stroke-width="1.117" stroke-linecap="round" stroke-linejoin="round"/>
<path d="M116.209 110.258C116.209 110.258 118.689 119.322 129.07 121.269M128.761 111.033C128.761 111.033 131.871 112.694 134.871 112.694L128.761 111.033ZM130.094 114.577C130.094 114.577 131.427 115.131 132.204 115.02L130.094 114.577Z" stroke="#DB836E" stroke-width="1.063" stroke-linecap="round" stroke-linejoin="round"/>
<path d="M132.679 126.345C132.679 126.345 131.196 130.251 121.156 129.259C111.116 128.267 106.867 122.276 106.867 122.276" stroke="#E4EBF7" stroke-width="1.136" stroke-linecap="round" stroke-linejoin="round"/>
<path fill-rule="evenodd" clip-rule="evenodd" d="M108.488 120.55C108.488 120.55 117.55 127.433 131.358 123.992C131.358 123.992 144.657 125.404 147.377 131.359C154.82 147.654 148.131 182.354 147.377 186.683C152.232 192.297 146.73 198.427 146.73 198.427C125.034 193.515 97.0037 197.597 97.0037 197.597C90.2703 192.687 95.3054 185.076 95.3054 185.076L86.6224 152.173C83.1717 131.092 87.7791 124.757 91.5506 123.456C95.7581 122.004 102.715 121.681 102.715 121.681C103.404 121.601 104.215 121.576 104.617 121.359C107.895 119.584 108.488 120.551 108.488 120.551" fill="white"/>
<path fill-rule="evenodd" clip-rule="evenodd" d="M91.4095 123.778C91.4095 123.778 81.8628 124.422 80.8699 135.07C80.2228 147.331 85.0774 150.234 85.0774 150.234C85.0774 150.234 93.5133 180.833 108.401 182.016C120.051 179.004 115.008 172.738 114.873 166.206C114.549 150.557 105.003 142.814 105.003 142.814C105.003 142.814 99.1538 123.778 91.4095 123.778Z" fill="#FFC6A0"/>
<path fill-rule="evenodd" clip-rule="evenodd" d="M99.5859 171.423C99.5859 171.423 100.773 187.017 113.233 180.402C119.85 176.891 123.76 161.259 126.826 149.159C128.848 141.174 130.409 132.273 130.409 132.273L123.503 129.907C123.503 129.907 120.16 137.544 112.715 146.901C106.696 154.469 100.018 162.282 99.5859 171.423Z" fill="#FFC6A0"/>
<path d="M150.613 145.072C150.613 145.072 153.039 148.843 147.376 187.345C150.676 190.413 148.838 195.668 147.053 197.742" stroke="#E4EBF7" stroke-width="1.085" stroke-linecap="round" stroke-linejoin="round"/>
<path fill-rule="evenodd" clip-rule="evenodd" d="M171.163 181.532C171.163 181.532 170.57 185.314 154.819 184.275C133.731 182.882 119.651 179.775 119.651 179.775L120.947 171.746C120.947 171.746 121.951 172.043 134.43 171.651C150.937 171.135 160.417 163.248 169.096 170.237C174.704 174.754 171.163 181.533 171.163 181.533" fill="#FFC6A0"/>
<path fill-rule="evenodd" clip-rule="evenodd" d="M97.5361 125.39C97.5361 125.39 89.7696 118.83 82.1864 129.101C77.5789 139.1 82.9043 150.26 85.8856 156.205C85.4552 161.367 89.1211 162.173 89.1211 162.173C89.1211 162.173 89.2711 163.412 91.2262 165.883C96.889 156.151 100.558 153.194 110.266 148.514C109.81 147.606 107.659 143.994 107.731 143.299C107.974 140.96 105.951 139.668 105.951 139.668C105.951 139.668 105.554 139.452 104.333 135.877C103.239 132.675 101.506 128.71 97.5361 125.39Z" fill="white"/>
<path fill-rule="evenodd" clip-rule="evenodd" d="M125.296 398.192C125.296 398.192 132.038 401.387 136.84 399.791C141.267 398.319 143.95 400.836 147.952 401.633C151.952 402.432 158.74 403.354 166.291 399.662C166.129 391.04 155.479 393.434 147.52 389.157C143.5 386.998 141.582 381.77 141.874 375.391H127.118C127.118 375.391 124.934 391.851 125.296 398.192Z" fill="#CBD1D1"/>
<path fill-rule="evenodd" clip-rule="evenodd" d="M125.263 397.923C125.263 397.923 129.074 399.912 135.87 398.945C140.669 398.261 140.346 399.858 146.171 400.719C151.996 401.579 164.351 400.451 166.075 399.16C166.723 400.88 165.537 402.386 165.537 402.386C165.537 402.386 163.164 403.33 157.985 403.676C154.799 403.89 146.74 404.059 143.905 402.817C141.1 400.665 137.109 400.719 135.49 402.493C129.342 403.981 125.514 402.064 125.514 402.064L125.263 397.923Z" fill="#2B0849"/>
<path fill-rule="evenodd" clip-rule="evenodd" d="M136.68 376.36H141.535C141.535 376.36 141.372 386.846 148.654 389.749C141.372 390.718 135.223 386.147 136.68 376.36Z" fill="#A4AABA"/>
<path fill-rule="evenodd" clip-rule="evenodd" d="M61.6894 376.066C61.6894 376.066 58.6233 386.829 55.1601 393.924C52.544 399.287 49.0113 404.797 63.1155 404.797C72.7941 404.797 76.1476 404.101 73.9217 395.221C71.6944 386.34 74.3091 376.066 74.3091 376.066H61.6894Z" fill="#CBD1D1"/>
<path fill-rule="evenodd" clip-rule="evenodd" d="M52.8589 401.308C52.8589 401.308 55.911 403.003 62.5153 403.003C71.3691 403.003 74.5213 400.608 74.5213 400.608C74.5213 400.608 75.3961 402.225 73.62 403.751C72.1759 404.993 68.385 406.06 62.8652 405.995C56.8289 405.926 54.3738 405.174 53.0588 404.301C51.8591 403.502 52.059 402.007 52.8589 401.308Z" fill="#2B0849"/>
<path fill-rule="evenodd" clip-rule="evenodd" d="M62.9651 378.83C62.9651 378.83 63.0137 381.034 62.5082 383.08C62.0014 385.143 60.9391 387.586 60.8641 389.088C60.7794 390.758 67.4669 391.382 68.3668 389.138C69.2694 386.893 70.2511 379.811 71.1523 378.614C72.0521 377.416 64.0148 375.538 62.9651 378.83Z" fill="#A4AABA"/>
<path fill-rule="evenodd" clip-rule="evenodd" d="M124.248 383.715L143.548 383.846C143.548 383.846 145.421 305.429 146.221 291.217C147.021 277.003 151.669 228.846 147.668 200.42L129.565 199.494L96.6032 200.616C96.6032 200.616 95.9756 206.319 94.8772 214.965C94.7869 215.678 93.894 216.175 93.7982 216.927C93.6899 217.768 94.4078 218.874 94.2592 219.756C90.8502 240.006 86.2094 265.076 82.7948 284.598C82.6268 285.557 81.0146 286.049 80.6911 288.469C80.6328 288.903 80.9966 290.662 80.8522 291.051C70.9374 318.009 63.9083 363.872 59.1064 384.069L80.1801 384.048C80.1801 384.048 83.3489 370.003 85.9914 357.923C90.049 339.387 119.335 235.652 119.335 235.652L123.685 234.331L123.466 301.569C123.466 301.569 123.142 303.344 123.952 304.474C124.762 305.602 123.145 306.089 123.385 307.701L123.952 310.281C123.952 310.281 123.305 320.606 122.658 327.382C122.009 334.158 124.248 383.713 124.248 383.713" fill="#7BB2F9"/>
<path d="M133.34 307.522C133.34 307.522 137.34 305.927 142.143 301.938M89.6621 302.465C91.3243 302.602 95.4873 299.562 99.6949 295.367L89.6621 302.465Z" stroke="#648BD8" stroke-width="1.085" stroke-linecap="round" stroke-linejoin="round"/>
<path d="M134.658 303.148C134.658 303.148 138.66 301.552 143.462 297.563" stroke="#648BD8" stroke-width="1.032" stroke-linecap="round" stroke-linejoin="round"/>
<path d="M61.4355 378.396H80.6373M87.722 306.984C87.722 306.984 91.5046 306.134 97.1077 302.144L87.722 306.984ZM104.012 201.8C103.622 206.266 104.442 214.06 97.7548 214.921L104.012 201.8ZM129.394 199.277C129.394 199.277 129.554 219.43 127.528 220.943C124.327 223.338 123.214 223.74 123.214 223.74L129.394 199.277ZM123.861 200.079C123.861 200.079 124.234 218.276 122.458 234.811L123.861 200.079ZM115.985 235.779C115.985 235.779 125.441 234.324 128.643 234.324L115.985 235.779ZM63.9128 373.299L62.6742 379.581L63.9128 373.299ZM65.1779 363.946L64.0461 369.701L65.1779 363.946ZM87.1013 279.793C86.6431 282.033 86.9597 282.429 86.4778 284.553C86.4778 284.553 82.6508 287.187 83.2979 289.984C83.945 292.78 82.8674 294.724 77.0422 313.868C74.5954 321.907 71.1642 340.063 68.4814 353.016C68.4397 353.215 67.7579 356.679 66.8984 361.046L87.1013 279.793ZM89.0912 268.21C88.6816 270.505 88.258 272.792 87.8178 275.046L89.0912 268.21ZM99.0503 202.659L97.3229 217.718C97.3229 217.718 95.7399 217.932 96.6022 220.943C96.7647 222.88 92.7446 243.634 89.1287 264.711L99.0503 202.659Z" stroke="#648BD8" stroke-width="1.085" stroke-linecap="round" stroke-linejoin="round"/>
<path fill-rule="evenodd" clip-rule="evenodd" d="M147.444 196.193C143.239 195.516 121.303 192.394 97.1499 196.47C96.9417 196.505 96.7537 196.616 96.6213 196.78C96.4889 196.944 96.4211 197.151 96.4306 197.361C96.518 199.171 96.4917 200.605 96.4514 201.507C96.4458 201.634 96.4687 201.761 96.5183 201.878C96.5679 201.995 96.6431 202.099 96.7384 202.184C96.8336 202.268 96.9465 202.33 97.0689 202.365C97.1912 202.401 97.3199 202.408 97.4456 202.388C102.032 201.649 121.103 199.049 146.969 202.02C147.451 202.075 147.886 201.723 147.93 201.244C148.102 199.38 148.152 197.887 148.166 197.051C148.17 196.845 148.099 196.645 147.966 196.487C147.834 196.329 147.648 196.225 147.444 196.193Z" fill="#192064"/>
<path fill-rule="evenodd" clip-rule="evenodd" d="M133.86 200.548L133.864 193.485C133.866 193.183 133.749 192.891 133.54 192.673C133.33 192.454 133.044 192.325 132.741 192.313C128.974 192.172 125.203 192.166 121.436 192.293C121.131 192.304 120.842 192.432 120.629 192.651C120.417 192.869 120.298 193.162 120.297 193.466L120.293 200.522C120.293 201.181 120.832 201.709 121.493 201.692C124.934 201.603 128.666 201.599 132.643 201.716C132.801 201.721 132.957 201.694 133.104 201.638C133.251 201.582 133.385 201.497 133.499 201.388C133.612 201.279 133.703 201.149 133.765 201.005C133.827 200.861 133.859 200.705 133.86 200.548Z" fill="white"/>
<path fill-rule="evenodd" clip-rule="evenodd" d="M132.25 199.209L132.252 194.786C132.254 194.546 132.162 194.314 131.995 194.14C131.829 193.967 131.601 193.865 131.359 193.856C128.721 193.772 125.887 193.755 122.897 193.842C122.654 193.85 122.424 193.951 122.255 194.124C122.085 194.298 121.99 194.53 121.989 194.772L121.986 199.191C121.986 199.712 122.41 200.129 122.931 200.118C125.512 200.06 128.31 200.058 131.29 200.134C131.812 200.148 132.248 199.731 132.25 199.209Z" fill="#192064"/>
<path d="M125.587 235.354L126.881 299.562C126.881 299.562 127.853 301.82 126.557 303.433C125.263 305.047 130.118 304.402 127.851 306.659C125.588 308.92 129.147 308.273 127.851 311.5C126.993 313.64 126.42 341.848 126.271 362.049M125.117 378.111H142.918H125.117ZM126.664 372.904C126.672 377.776 126.564 380.588 126.664 381.615V372.904ZM126.257 364.2C126.245 366.414 126.235 367.742 126.235 370.437L126.257 364.2Z" stroke="#648BD8" stroke-width="1.085" stroke-linecap="round" stroke-linejoin="round"/>
<path d="M107.753 124.1C107.753 124.1 118.433 132.596 130.731 127.865M102.39 136.037L105.465 142.007C105.465 142.007 108.378 143.137 108.055 145.717L109.188 148.782L102.39 136.037ZM89.2832 160.882C89.6068 159.592 92.3048 150.988 106.759 146.362L89.2832 160.882Z" stroke="#E4EBF7" stroke-width="1.085" stroke-linecap="round" stroke-linejoin="round"/>
<path fill-rule="evenodd" clip-rule="evenodd" d="M127.716 119.825C127.716 119.825 135.32 118.696 138.233 113.533C140.034 113.055 139.233 116.595 137.775 118.615C136.803 119.96 136.372 120.767 136.372 120.767C136.372 120.767 136.642 121.196 136.588 121.896C136.514 122.861 136.345 122.8 136.21 123.347C136.097 123.811 136.36 124.257 136.21 124.799C136.146 125.035 135.935 125.492 135.679 126.015C135.513 126.36 135.579 126.966 135.402 127.327C135.081 127.977 133.233 129.916 131.761 131.28C126.448 136.2 124.793 133.556 123.428 130.715C122.186 128.133 122.51 123.617 122.214 121.197C121.728 117.163 118.573 117.002 119.544 115.066C120.02 114.117 123.529 116.021 124.075 117.486C125.126 120.31 128.174 119.987 127.716 119.825Z" fill="#FFC6A0"/>
<path d="M138.584 113.562C137.938 113.668 138.098 113.938 137.237 115.282C136.373 116.627 130.548 119.341 128.364 119.746C124.769 120.41 125.2 117.586 122.457 115.793C120.11 114.261 117.51 114.91 120.515 117.729C121.89 119.019 121.809 119.261 122.457 122.166C122.922 124.251 121.568 127.246 123.429 129.909" stroke="#DB836E" stroke-width="0.774" stroke-linecap="round" stroke-linejoin="round"/>
<path d="M110.455 149.894C107.539 153.944 104.531 158.442 102.738 162.024" stroke="#E59788" stroke-width="0.774" stroke-linecap="round" stroke-linejoin="round"/>
<path fill-rule="evenodd" clip-rule="evenodd" d="M121.81 172.174C121.81 172.174 118.896 169.486 114.69 168.41C110.483 167.334 109.727 168.195 107.031 168.518C104.334 168.84 101.636 167.228 101.96 169.487C102.283 171.744 108.972 170.885 109.189 172.39C109.404 173.895 100.343 176.261 97.6451 175.401C96.5661 176.477 98.2922 177.982 100.45 178.412C100.774 180.564 103.579 180.564 103.579 180.564C103.579 180.564 104.549 181.962 107.246 182.07C110.698 183.897 119.652 181.101 122.457 179.919C125.262 178.735 121.81 172.174 121.81 172.174Z" fill="#FFC6A0"/>
<path d="M109.512 149.104C109.512 149.104 97.8614 152.923 91.2266 165.884M101.959 169.486C101.959 169.486 102.876 171.046 106.357 171.449C109.572 171.823 109.916 172.256 109.916 172.256C109.916 172.256 106.382 176.262 97.3212 175.401L101.959 169.486ZM100.558 178.412C100.558 178.412 105.871 178.547 107.408 177.418L100.558 178.412ZM104.118 180.456C104.118 180.456 106.842 180.644 108.784 179.757L104.118 180.456ZM107.246 182.07C107.246 182.07 109.673 182.096 111.292 181.371L107.246 182.07ZM101.824 168.787C101.824 168.787 100.998 167.358 103.577 168.195C105.897 168.949 107.511 168.272 110.698 168.41C112.627 168.495 114.957 167.999 116.227 168.618C118.457 169.703 121.271 171.637 121.271 171.637C121.271 171.637 135.887 173.304 147.7 170.077L101.824 168.787Z" stroke="#E59788" stroke-width="0.774" stroke-linecap="round" stroke-linejoin="round"/>
<path d="M151.745 155.236C151.745 155.236 156.439 150.234 162.264 148.782" stroke="#E4EBF7" stroke-width="1.085" stroke-linecap="round" stroke-linejoin="round"/>
<path d="M149.102 169.736C149.102 169.736 162.567 165.935 164.994 168.518" stroke="#E59788" stroke-width="0.774" stroke-linecap="round" stroke-linejoin="round"/>
<path d="M184.65 234.847L179.158 229.372M270.231 115.258L275.745 109.878L270.231 115.258ZM259.901 125.332L265.089 120.272L259.901 125.332ZM266.269 116.021L260.073 109.708L266.269 116.021ZM275.574 125.504L269.835 119.655L275.574 125.504ZM179.486 225.205L184.649 220.058L179.486 225.205ZM169.814 234.847L174.672 230.005L169.814 234.847ZM175.744 225.969L169.814 220.058L175.744 225.969Z" stroke="#BFCDDD" stroke-width="2" stroke-linecap="round" stroke-linejoin="round"/>
<path fill-rule="evenodd" clip-rule="evenodd" d="M264.053 292.633H261.826C260.35 292.628 258.936 292.042 257.892 291.001C256.848 289.961 256.26 288.551 256.256 287.08V242.657C256.261 241.186 256.849 239.777 257.892 238.737C258.935 237.697 260.349 237.11 261.824 237.105H264.053C265.529 237.11 266.942 237.696 267.986 238.736C269.03 239.776 269.618 241.186 269.623 242.657V287.08C269.618 288.551 269.03 289.96 267.986 291C266.943 292.04 265.53 292.627 264.054 292.631" fill="#A3B4C6"/>
<path fill-rule="evenodd" clip-rule="evenodd" d="M330.245 294.291C330.245 296.058 329.541 297.753 328.288 299.003C327.034 300.252 325.334 300.954 323.562 300.954H203.258C201.485 300.954 199.785 300.252 198.532 299.003C197.278 297.753 196.574 296.058 196.574 294.291C196.574 292.524 197.278 290.829 198.532 289.58C199.785 288.33 201.485 287.628 203.258 287.628H323.562C325.334 287.628 327.034 288.33 328.288 289.58C329.541 290.829 330.245 292.524 330.245 294.291Z" fill="#A3B4C6"/>
<path fill-rule="evenodd" clip-rule="evenodd" d="M213.982 262.616H311.898V145.472H213.982V262.616Z" fill="#A3B4C6"/>
<path fill-rule="evenodd" clip-rule="evenodd" d="M312.338 262.616H213.541C212.36 262.612 211.229 262.142 210.395 261.31C209.56 260.478 209.09 259.35 209.086 258.173V231.915C209.089 230.738 209.56 229.61 210.394 228.777C211.229 227.945 212.36 227.475 213.541 227.471H312.338C313.519 227.475 314.65 227.944 315.485 228.777C316.32 229.609 316.791 230.738 316.794 231.915V258.173C316.79 259.35 316.319 260.478 315.484 261.311C314.649 262.143 313.517 262.612 312.336 262.616H312.338ZM312.338 180.57H213.541C212.36 180.566 211.229 180.097 210.395 179.265C209.56 178.433 209.09 177.306 209.086 176.129V149.869C209.09 148.692 209.56 147.565 210.395 146.732C211.229 145.9 212.36 145.431 213.541 145.427H312.338C313.519 145.43 314.65 145.9 315.485 146.732C316.32 147.565 316.791 148.693 316.794 149.871V176.129C316.79 177.306 316.319 178.434 315.484 179.266C314.649 180.098 313.517 180.567 312.336 180.57" fill="#BFCDDD"/>
<path fill-rule="evenodd" clip-rule="evenodd" d="M221.572 166.33C221.127 166.339 220.685 166.259 220.272 166.096C219.858 165.933 219.482 165.689 219.164 165.378C218.847 165.068 218.594 164.698 218.422 164.289C218.25 163.88 218.161 163.442 218.161 162.998C218.161 162.555 218.25 162.116 218.422 161.707C218.594 161.299 218.847 160.928 219.164 160.618C219.482 160.308 219.858 160.064 220.272 159.901C220.685 159.737 221.127 159.658 221.572 159.667C222.446 159.684 223.279 160.043 223.891 160.666C224.503 161.289 224.846 162.126 224.846 162.998C224.846 163.87 224.503 164.708 223.891 165.33C223.279 165.953 222.446 166.312 221.572 166.33ZM231.871 166.33C231.426 166.339 230.985 166.259 230.571 166.096C230.158 165.933 229.781 165.689 229.464 165.378C229.146 165.068 228.894 164.698 228.721 164.289C228.549 163.88 228.46 163.442 228.46 162.998C228.46 162.555 228.549 162.116 228.721 161.707C228.894 161.299 229.146 160.928 229.464 160.618C229.781 160.308 230.158 160.064 230.571 159.901C230.985 159.737 231.426 159.658 231.871 159.667C232.745 159.684 233.578 160.043 234.19 160.666C234.802 161.289 235.145 162.126 235.145 162.998C235.145 163.87 234.802 164.708 234.19 165.33C233.578 165.953 232.745 166.312 231.871 166.33ZM242.17 166.33C241.726 166.339 241.284 166.259 240.871 166.096C240.457 165.933 240.081 165.689 239.763 165.378C239.445 165.068 239.193 164.698 239.021 164.289C238.849 163.88 238.76 163.442 238.76 162.998C238.76 162.555 238.849 162.116 239.021 161.707C239.193 161.299 239.445 160.928 239.763 160.618C240.081 160.308 240.457 160.064 240.871 159.901C241.284 159.737 241.726 159.658 242.17 159.667C243.045 159.684 243.877 160.043 244.49 160.666C245.102 161.289 245.445 162.126 245.445 162.998C245.445 163.87 245.102 164.708 244.49 165.33C243.877 165.953 243.045 166.312 242.17 166.33ZM309.021 166.33H277.831C277.536 166.33 277.253 166.213 277.044 166.005C276.835 165.796 276.718 165.514 276.718 165.22V160.778C276.718 160.165 277.216 159.667 277.831 159.667H309.02C309.636 159.667 310.135 160.165 310.135 160.778V165.22C310.135 165.833 309.635 166.33 309.021 166.33Z" fill="white"/>
<path fill-rule="evenodd" clip-rule="evenodd" d="M312.338 221.593H213.541C212.36 221.59 211.229 221.12 210.394 220.288C209.56 219.456 209.089 218.328 209.086 217.151V190.893C209.09 189.716 209.56 188.588 210.395 187.756C211.229 186.924 212.36 186.454 213.541 186.45H312.338C313.518 186.454 314.65 186.923 315.485 187.755C316.32 188.588 316.79 189.716 316.794 190.893V217.151C316.791 218.328 316.32 219.457 315.485 220.289C314.649 221.122 313.517 221.591 312.336 221.593" fill="#BFCDDD"/>
<path d="M216.026 221.798H225.401M240.862 180.569H309.322H240.862ZM229.099 180.569H237.554H229.099ZM216.557 180.569H225.93H216.557ZM241.392 221.798H309.851H241.392ZM229.628 221.798H238.083H229.628Z" stroke="#7C90A5" stroke-width="1.124" stroke-linecap="round" stroke-linejoin="round"/>
<path fill-rule="evenodd" clip-rule="evenodd" d="M221.572 208.544C220.685 208.544 219.835 208.193 219.208 207.568C218.581 206.944 218.229 206.096 218.229 205.212C218.229 204.328 218.581 203.481 219.208 202.856C219.835 202.231 220.685 201.88 221.572 201.88C222.458 201.88 223.308 202.231 223.935 202.856C224.562 203.481 224.914 204.328 224.914 205.212C224.914 206.096 224.562 206.944 223.935 207.568C223.308 208.193 222.458 208.544 221.572 208.544ZM231.871 208.544C230.985 208.544 230.134 208.193 229.508 207.568C228.881 206.944 228.529 206.096 228.529 205.212C228.529 204.328 228.881 203.481 229.508 202.856C230.134 202.231 230.985 201.88 231.871 201.88C232.757 201.88 233.608 202.231 234.234 202.856C234.861 203.481 235.213 204.328 235.213 205.212C235.213 206.096 234.861 206.944 234.234 207.568C233.608 208.193 232.757 208.544 231.871 208.544ZM242.17 208.544C241.731 208.544 241.297 208.458 240.891 208.291C240.486 208.123 240.117 207.877 239.807 207.568C239.497 207.258 239.251 206.891 239.083 206.487C238.915 206.082 238.829 205.649 238.829 205.211C238.829 204.774 238.915 204.341 239.083 203.936C239.251 203.532 239.498 203.165 239.808 202.855C240.119 202.546 240.487 202.301 240.893 202.133C241.298 201.966 241.733 201.88 242.172 201.88C243.058 201.88 243.908 202.231 244.535 202.856C245.162 203.481 245.514 204.328 245.514 205.212C245.514 206.096 245.162 206.944 244.535 207.568C243.908 208.193 243.058 208.544 242.172 208.544H242.17ZM309.021 208.544H277.831C277.536 208.544 277.253 208.427 277.044 208.219C276.835 208.011 276.718 207.729 276.718 207.434V202.992C276.718 202.378 277.216 201.881 277.831 201.881H309.02C309.636 201.881 310.135 202.38 310.135 202.992V207.434C310.135 208.047 309.635 208.544 309.021 208.544ZM221.572 248.622C221.127 248.631 220.685 248.551 220.272 248.388C219.858 248.224 219.482 247.981 219.164 247.67C218.847 247.36 218.594 246.99 218.422 246.581C218.25 246.172 218.161 245.733 218.161 245.29C218.161 244.847 218.25 244.408 218.422 243.999C218.594 243.591 218.847 243.22 219.164 242.91C219.482 242.6 219.858 242.356 220.272 242.192C220.685 242.029 221.127 241.949 221.572 241.959C222.446 241.976 223.279 242.335 223.891 242.958C224.503 243.581 224.846 244.418 224.846 245.29C224.846 246.162 224.503 246.999 223.891 247.622C223.279 248.245 222.446 248.604 221.572 248.622ZM231.871 248.622C231.426 248.631 230.985 248.551 230.571 248.388C230.158 248.224 229.781 247.981 229.464 247.67C229.146 247.36 228.894 246.99 228.721 246.581C228.549 246.172 228.46 245.733 228.46 245.29C228.46 244.847 228.549 244.408 228.721 243.999C228.894 243.591 229.146 243.22 229.464 242.91C229.781 242.6 230.158 242.356 230.571 242.192C230.985 242.029 231.426 241.949 231.871 241.959C232.745 241.976 233.578 242.335 234.19 242.958C234.802 243.581 235.145 244.418 235.145 245.29C235.145 246.162 234.802 246.999 234.19 247.622C233.578 248.245 232.745 248.604 231.871 248.622ZM242.17 248.622C241.726 248.631 241.284 248.551 240.871 248.388C240.457 248.224 240.081 247.981 239.763 247.67C239.445 247.36 239.193 246.99 239.021 246.581C238.849 246.172 238.76 245.733 238.76 245.29C238.76 244.847 238.849 244.408 239.021 243.999C239.193 243.591 239.445 243.22 239.763 242.91C240.081 242.6 240.457 242.356 240.871 242.192C241.284 242.029 241.726 241.949 242.17 241.959C243.045 241.976 243.877 242.335 244.49 242.958C245.102 243.581 245.445 244.418 245.445 245.29C245.445 246.162 245.102 246.999 244.49 247.622C243.877 248.245 243.045 248.604 242.17 248.622ZM309.021 248.622H277.831C277.536 248.622 277.253 248.505 277.044 248.296C276.835 248.088 276.718 247.806 276.718 247.511V243.069C276.718 242.456 277.216 241.959 277.831 241.959H309.02C309.636 241.959 310.135 242.457 310.135 243.069V247.511C310.135 248.125 309.635 248.622 309.021 248.622Z" fill="white"/>
<path fill-rule="evenodd" clip-rule="evenodd" d="M281.945 305.548H243.936C243.05 305.546 242.202 305.194 241.576 304.57C240.95 303.945 240.597 303.099 240.595 302.216V286.367C240.597 285.485 240.95 284.639 241.576 284.014C242.202 283.39 243.05 283.038 243.936 283.035H281.945C282.831 283.038 283.679 283.39 284.306 284.014C284.932 284.638 285.285 285.484 285.287 286.367V302.215C285.285 303.098 284.932 303.944 284.306 304.569C283.68 305.193 282.831 305.545 281.945 305.547" fill="#BFCDDD"/>
<path d="M279.181 286.318V302.267M246.145 286.318V302.267V286.318Z" stroke="#A3B4C6" stroke-width="1.124" stroke-linecap="round" stroke-linejoin="round"/>
<path fill-rule="evenodd" clip-rule="evenodd" d="M226.168 370.318C222.698 370.318 219.37 368.944 216.916 366.498C214.462 364.052 213.084 360.734 213.084 357.275V336.758C213.119 333.321 214.514 330.038 216.964 327.62C219.413 325.203 222.721 323.847 226.168 323.847C229.615 323.847 232.923 325.203 235.373 327.62C237.823 330.038 239.217 333.321 239.252 336.758V357.275C239.252 360.734 237.873 364.052 235.419 366.498C232.966 368.944 229.638 370.318 226.168 370.318Z" fill="#5BA02E"/>
<path fill-rule="evenodd" clip-rule="evenodd" d="M237.758 370.23C236.04 370.23 234.339 369.893 232.751 369.237C231.164 368.582 229.721 367.621 228.506 366.409C227.291 365.198 226.328 363.76 225.67 362.177C225.013 360.595 224.675 358.898 224.675 357.185V352.426C224.71 348.989 226.104 345.706 228.554 343.288C231.004 340.871 234.312 339.515 237.759 339.515C241.206 339.515 244.514 340.871 246.964 343.288C249.414 345.706 250.808 348.989 250.843 352.426V357.185C250.843 360.645 249.465 363.963 247.011 366.409C244.558 368.855 241.23 370.23 237.76 370.23" fill="#92C110"/>
<path fill-rule="evenodd" clip-rule="evenodd" d="M251.769 405.999H213.288C212.703 405.999 212.123 405.884 211.582 405.661C211.042 405.437 210.55 405.11 210.137 404.697C209.723 404.285 209.395 403.795 209.171 403.256C208.947 402.716 208.832 402.139 208.832 401.555V372.945C208.832 372.361 208.947 371.784 209.171 371.244C209.395 370.705 209.723 370.215 210.137 369.803C210.55 369.39 211.042 369.063 211.582 368.839C212.123 368.616 212.703 368.501 213.288 368.501H251.768C252.353 368.501 252.933 368.616 253.474 368.839C254.014 369.063 254.506 369.39 254.919 369.803C255.333 370.215 255.661 370.705 255.885 371.244C256.109 371.784 256.224 372.361 256.224 372.945V401.558C256.224 402.736 255.755 403.866 254.919 404.699C254.083 405.532 252.95 406 251.768 406" fill="#F2D7AD"/>
</svg>
