<svg width="448" height="448" viewBox="0 0 448 448" fill="none" xmlns="http://www.w3.org/2000/svg">
<circle cx="224" cy="224" r="180" fill="#EAEDF7"/>
<path d="M290.281 448C350.292 448 398.94 442.494 398.94 435.702C398.94 428.91 350.292 423.404 290.281 423.404C230.271 423.404 181.623 428.91 181.623 435.702C181.623 442.494 230.271 448 290.281 448Z" fill="#CAD2EA"/>
<path d="M186.56 115.809C155.796 34.8144 40.4459 34.8144 9.68252 115.809C2.22036 135.505 -1.72736 159.188 0.727933 187.579C11.3194 309.983 98.1211 443.484 98.1211 443.484C98.1211 443.484 184.923 309.935 195.514 187.579C197.97 159.188 194.022 135.457 186.56 115.809Z" fill="#D1E9FF"/>
<path d="M98.1208 192.335C119.551 192.335 136.924 175 136.924 153.615C136.924 132.231 119.551 114.896 98.1208 114.896C76.6904 114.896 59.3176 132.231 59.3176 153.615C59.3176 175 76.6904 192.335 98.1208 192.335Z" fill="#FF9733"/>
<path d="M444.027 301.059C431.402 267.647 384.066 267.647 371.442 301.059C368.38 309.184 366.76 318.954 367.768 330.666C372.114 381.16 407.734 436.233 407.734 436.233C407.734 436.233 443.355 381.141 447.701 330.666C448.709 318.954 447.089 309.164 444.027 301.059Z" fill="#FFE5CC"/>
<path d="M407.735 332.628C416.529 332.628 423.658 325.477 423.658 316.655C423.658 307.834 416.529 300.682 407.735 300.682C398.94 300.682 391.811 307.834 391.811 316.655C391.811 325.477 398.94 332.628 407.735 332.628Z" fill="#46A6FF"/>
<path d="M333.609 59.7469C334.283 59.891 334.909 60.0351 335.535 60.1792C354.503 65.0792 366.491 82.9979 369.043 101.685C370.824 114.848 370.102 128.539 370.294 141.798C370.535 156.066 370.728 170.333 370.487 184.649C370.294 195.169 370.006 206.555 364.565 215.922C358.788 225.867 346.849 230.046 335.92 231.391C329.277 232.208 322.585 232.016 315.893 231.583C310.597 231.247 302.991 231.775 298.465 228.557C295.865 226.731 294.566 223.609 293.555 220.582C287.826 203.913 286.959 186.042 286.381 168.46C285.755 148.619 285.467 128.779 285.515 108.939C285.563 96.593 287.055 85.2077 292.495 74.0145C299.669 59.4586 319.118 56.6243 333.609 59.7469Z" fill="#353767"/>
<mask id="mask0_2043_11469" style="mask-type:luminance" maskUnits="userSpaceOnUse" x="285" y="58" width="86" height="174">
<path d="M333.609 59.7469C334.283 59.891 334.909 60.0351 335.535 60.1792C354.503 65.0792 366.491 82.9979 369.043 101.685C370.824 114.848 370.102 128.539 370.294 141.798C370.535 156.066 370.728 170.333 370.487 184.649C370.294 195.169 370.006 206.555 364.565 215.922C358.788 225.867 346.849 230.046 335.92 231.391C329.277 232.208 322.585 232.016 315.893 231.583C310.597 231.247 302.991 231.775 298.465 228.557C295.865 226.731 294.566 223.609 293.555 220.582C287.826 203.913 286.959 186.042 286.381 168.46C285.755 148.619 285.467 128.779 285.515 108.939C285.563 96.593 287.055 85.2077 292.495 74.0145C299.669 59.4586 319.118 56.6243 333.609 59.7469Z" fill="white"/>
</mask>
<g mask="url(#mask0_2043_11469)">
<path d="M346.368 108.17C351.471 114.704 357.344 120.949 364.951 124.215C372.557 127.434 382.331 126.906 388.108 121.045C390.852 118.259 392.537 114.56 393.596 110.764C398.988 92.1252 390.611 70.8438 374.916 59.4105C368.899 54.9909 361.87 52.0124 354.552 50.4271C347.186 48.8418 339.58 48.6977 332.166 49.8507C328.459 50.4271 324.8 51.3879 321.237 52.6369C320.708 52.8291 319.6 53.0213 319.311 53.6458C319.023 54.3183 319.648 55.5673 319.841 56.1918C320.419 58.1615 320.996 60.1311 321.67 62.0526C324.27 69.883 327.496 77.5693 331.347 84.8713C335.199 92.2213 339.58 99.235 344.586 105.816C345.164 106.633 345.742 107.402 346.368 108.17Z" fill="#464A90"/>
</g>
<path d="M286.526 292.305C292.785 320.408 327.448 421.386 327.448 421.386L332.455 421.146L335.873 417.015L326.437 281.976L286.526 292.305Z" fill="#DA8C8D"/>
<mask id="mask1_2043_11469" style="mask-type:luminance" maskUnits="userSpaceOnUse" x="286" y="281" width="50" height="141">
<path d="M286.526 292.305C292.785 320.408 327.448 421.386 327.448 421.386L332.455 421.146L335.873 417.015L326.437 281.976L286.526 292.305Z" fill="white"/>
</mask>
<g mask="url(#mask1_2043_11469)">
<path d="M286.526 303.354C286.526 303.354 314.642 303.354 329.614 294.947L326.437 281.928L282.53 283.994L286.526 303.354Z" fill="#C17276"/>
</g>
<path d="M336.451 415.573L324.848 418.12L326.678 423.548C326.678 423.548 314.16 427.583 309.394 435.702L339.05 429.889L336.451 415.573Z" fill="#464A90"/>
<path d="M238.238 287.501C238.912 316.277 253.355 422.011 253.355 422.011L258.266 422.78L262.406 419.369L279.353 285.051L238.238 287.501Z" fill="#DA8C8D"/>
<mask id="mask2_2043_11469" style="mask-type:luminance" maskUnits="userSpaceOnUse" x="238" y="285" width="42" height="138">
<path d="M238.238 287.501C238.912 316.277 253.355 422.011 253.355 422.011L258.266 422.78L262.406 419.369L279.353 285.051L238.238 287.501Z" fill="white"/>
</mask>
<g mask="url(#mask2_2043_11469)">
<path d="M238.239 304.555C238.239 304.555 272.998 308.11 280.749 304.171L285.563 286.492L232.847 285.051L238.239 304.555Z" fill="#C17276"/>
</g>
<path d="M263.273 418.072L251.382 418.312L252.152 423.981C252.152 423.981 239.105 425.518 232.847 432.58H263.08L263.273 418.072Z" fill="#464A90"/>
<path d="M244.257 183.544L232.847 288.846C232.847 288.846 263.562 303.402 280.749 296.965C280.749 296.965 325.57 295.187 329.614 289.759C329.614 289.759 327.207 203 315.027 180.566C314.979 180.518 257.4 186.763 244.257 183.544Z" fill="#486DB9"/>
<path d="M280.748 296.965C280.748 296.965 279.785 233.937 279.16 221.831C279.16 221.831 263.513 288.51 268.664 298.598C268.664 298.55 278.052 298.838 280.748 296.965Z" fill="#353767"/>
<path d="M237.228 204.681C235.109 203.384 233.809 201.127 233.665 198.629C232.75 182.007 229.428 100.677 252.537 76.2726C271.168 56.5285 288.211 65.8481 288.211 65.8481C288.211 65.8481 336.065 85.0638 319.119 142.375C315.412 154.961 326.581 182.343 323.355 196.515C319.311 214.001 254.559 215.298 237.228 204.681Z" fill="#FFC185"/>
<mask id="mask3_2043_11469" style="mask-type:luminance" maskUnits="userSpaceOnUse" x="232" y="63" width="92" height="149">
<path d="M237.228 204.681C235.109 203.384 233.809 201.127 233.665 198.629C232.75 182.007 229.428 100.677 252.537 76.2726C271.168 56.5285 288.211 65.8481 288.211 65.8481C288.211 65.8481 336.065 85.0638 319.119 142.375C315.412 154.961 326.581 182.343 323.355 196.515C319.311 214.001 254.559 215.298 237.228 204.681Z" fill="white"/>
</mask>
<g mask="url(#mask3_2043_11469)">
<path d="M323.067 149.052L298.225 126.281C298.225 126.281 294.518 137.523 300.247 158.612C306.024 179.653 323.067 211.119 323.067 211.119C323.067 211.119 337.365 187.772 332.551 175.666C327.688 163.512 323.067 149.052 323.067 149.052Z" fill="#FF9733"/>
</g>
<path d="M303.183 42.2125C301.354 45.3351 284.937 40.4831 269.146 31.3556C253.355 22.2282 241.994 12.3321 243.775 9.20955C245.604 6.087 259.855 10.939 275.694 20.0664C291.533 29.1939 305.013 39.09 303.183 42.2125Z" fill="#FF9733"/>
<path d="M254.703 30.587C254.703 30.587 245.941 60.7076 261.973 59.7468C278.004 58.786 287.777 40.8193 282.337 29.5301C276.849 18.1929 259.18 10.6507 254.703 30.587Z" fill="#DA8C8D"/>
<mask id="mask4_2043_11469" style="mask-type:luminance" maskUnits="userSpaceOnUse" x="252" y="18" width="32" height="42">
<path d="M254.703 30.587C254.703 30.587 245.941 60.7076 261.973 59.7468C278.004 58.786 287.777 40.8193 282.337 29.5301C276.849 18.1929 259.18 10.6507 254.703 30.587Z" fill="white"/>
</mask>
<g mask="url(#mask4_2043_11469)">
<path d="M278.293 31.2596C280.123 30.539 282.145 29.4821 282.626 27.6086C283.204 25.3988 281.423 23.3331 279.545 22.036C274.923 18.9135 269.002 18.1929 263.417 18.5772C259.277 18.8655 255.088 19.7782 251.526 21.94C248.252 23.9576 245.219 27.5606 245.027 31.5958C244.882 34.6704 247.674 35.7272 250.274 36.0155C254.222 36.4478 258.362 36.0155 262.262 35.439C267.124 34.7664 271.939 33.5655 276.56 31.836C277.138 31.74 277.716 31.4998 278.293 31.2596Z" fill="#C17276"/>
</g>
<path d="M283.83 35.7273C283.83 35.7273 281.615 51.1959 286.526 66.2322C286.526 66.2322 277.138 73.6303 269.29 73.4861C261.491 73.342 269.868 45.0949 269.868 45.0949L283.83 35.7273Z" fill="#DA8C8D"/>
<path d="M266.691 58.9302C266.691 58.9302 267.798 59.3145 273.768 54.5586C273.768 54.5586 274.538 61.2841 265.969 64.791C266.017 64.791 266.354 60.7076 266.691 58.9302Z" fill="#C17276"/>
<path d="M275.02 27.8008C275.26 31.9322 276.319 36.0156 278.149 39.7626C278.053 38.7057 278.245 37.4567 279.16 36.9283C279.882 36.544 280.845 36.8322 281.423 37.4087C282 37.9852 282.289 38.8018 282.482 39.6185C282.771 40.7234 282.867 41.8763 282.578 42.9812C282.289 44.0861 281.519 45.095 280.46 45.4793C281.615 48.2175 282.674 51.0518 283.83 53.7901C288.837 48.5058 292.014 41.492 292.64 34.2381C292.784 32.3165 292.784 30.395 292.447 28.5214C291.87 25.4469 290.329 22.5165 288.114 20.3067C287.248 19.442 286.237 18.6253 285.081 18.193C282.434 17.1842 279.208 18.145 277.282 20.2106C275.357 22.2763 274.827 24.9185 275.02 27.8008Z" fill="#464A90"/>
<path d="M258.459 11.4194C262.792 11.2273 267.173 10.7469 270.831 9.93021C271.072 9.88217 271.265 9.83413 271.505 9.78609C282.53 7.86452 285.611 24.342 274.731 26.84C268.906 28.1851 262.599 29.4341 259.518 29.5302C259.518 29.5302 245.99 32.941 240.212 28.8096C234.483 24.7263 243.053 11.6116 258.459 11.4194Z" fill="#464A90"/>
<path d="M269.339 73.4378L262.791 78.4339C262.791 78.4339 262.695 70.6515 263.706 67.0966L266.017 65.9917C266.017 65.9917 266.306 71.8525 269.339 73.4378Z" fill="white"/>
<path d="M269.339 73.4378L276.031 83.6221C276.031 83.6221 289.126 73.5819 290.281 66.9044L286.526 65.175C286.526 65.127 276.609 72.5731 269.339 73.4378Z" fill="white"/>
<path d="M255.811 10.5066C255.811 10.5066 285.467 24.1498 295.192 33.5655C295.192 33.5655 299.14 13.9655 293.459 9.64192C287.778 5.31839 283.83 5.36643 283.83 5.36643C283.83 5.36643 281.134 1.37917 275.935 0.178188C268.039 -1.59926 255.811 10.5066 255.811 10.5066Z" fill="#FFC185"/>
<path d="M243.775 9.20947C243.775 9.20947 286.478 41.4438 301.017 42.2124C315.604 42.933 259.662 1.90751 243.775 9.20947Z" fill="#FF9733"/>
<path d="M254.993 50.8596C254.993 50.8596 260.818 52.541 264.381 48.9861C264.381 48.9861 261.155 54.7988 258.411 54.6067C255.667 54.3665 254.993 50.8596 254.993 50.8596Z" fill="white"/>
<path d="M169.491 63.1577C169.491 63.1577 166.169 47.641 165.206 46.5841C164.243 45.5273 156.588 50.9557 157.262 56.3361C157.888 61.7165 162.366 73.0537 162.366 73.0537C162.366 73.0537 169.972 65.3675 169.491 63.1577Z" fill="#DA8C8D"/>
<path d="M170.502 64.791C170.309 64.5028 172.139 55.8557 172.139 55.8557C172.139 55.8557 170.405 56.6243 169.876 57.441C169.346 58.2577 167.565 62.8214 167.565 62.8214L170.502 64.791Z" fill="#DA8C8D"/>
<path d="M225.481 128.731C225.481 128.731 199.195 147.178 193.08 145.064C179.456 140.357 161.21 68.8262 161.21 68.8262L169.442 63.2056C169.442 63.2056 197.124 107.017 198.858 114.704L207.138 108.218C207.186 108.17 219.607 122.102 225.481 128.731Z" fill="#DA8C8D"/>
<mask id="mask5_2043_11469" style="mask-type:luminance" maskUnits="userSpaceOnUse" x="161" y="63" width="65" height="83">
<path d="M225.481 128.731C225.481 128.731 199.195 147.178 193.08 145.064C179.456 140.357 161.21 68.8262 161.21 68.8262L169.442 63.2056C169.442 63.2056 197.124 107.017 198.858 114.704L207.138 108.218C207.186 108.17 219.607 122.102 225.481 128.731Z" fill="white"/>
</mask>
<g mask="url(#mask5_2043_11469)">
<path d="M223.025 133.535C224.614 134.352 226.732 135.072 228.032 133.823C228.899 133.007 228.995 131.662 228.899 130.461C228.562 125.993 226.829 121.766 224.903 117.778C222.448 112.686 219.126 107.354 213.734 105.528C209.69 104.135 199.869 105.528 201.217 111.677C201.842 114.464 203.961 116.962 205.694 119.123C207.908 121.91 210.412 124.456 213.108 126.762C216.093 129.404 219.463 131.662 223.025 133.535Z" fill="#C17276"/>
</g>
<path d="M203.528 104.135C203.528 104.135 225.24 137.378 230.488 137.522L255.811 125.465L258.555 70.7478L203.528 104.135Z" fill="#FFC185"/>
<path d="M234.435 135.649C234.435 135.649 238.383 109.564 241.272 100.676C241.272 100.676 227.455 134.448 227.743 135.985C227.743 135.985 229.477 137.57 230.488 137.522C231.499 137.522 234.435 135.649 234.435 135.649Z" fill="#FF9733"/>
<path d="M167.998 69.1626C166.746 69.3067 165.639 68.394 165.495 67.193L161.258 31.2596C161.114 30.0106 162.028 28.9057 163.232 28.7616C164.484 28.6175 165.591 29.5302 165.735 30.7312L169.972 66.6645C170.116 67.9136 169.25 69.0185 167.998 69.1626Z" fill="#353767"/>
<path d="M310.742 83.6221C310.742 83.6221 332.117 113.31 343.142 137.57C343.142 137.57 316.327 151.357 307.95 151.357C307.95 151.309 295.144 93.9985 310.742 83.6221Z" fill="#FFC185"/>
<path d="M302.991 73.1018C302.558 78.7704 302.509 84.391 302.654 90.0116C302.75 95.6322 303.039 101.205 303.52 106.729C303.954 112.302 304.58 117.826 305.302 123.303C305.687 126.041 306.072 128.827 306.553 131.566C306.794 132.959 306.987 134.304 307.227 135.697L307.42 136.706C307.468 137.042 307.564 137.33 307.613 137.667L307.805 138.627C307.853 138.964 307.95 139.252 308.046 139.588C308.672 142.134 309.442 144.728 310.357 147.322C311.223 149.917 312.186 152.511 313.197 155.105C314.16 157.699 315.267 160.293 316.278 162.839L319.504 170.573C323.885 180.902 328.41 191.278 332.599 201.895C330.817 199.685 329.084 197.379 327.399 195.073C325.714 192.768 324.126 190.414 322.585 188.012C319.456 183.256 316.519 178.356 313.727 173.36C310.934 168.364 308.383 163.271 306.024 157.987C304.868 155.345 303.761 152.655 302.75 149.917C301.787 147.178 300.873 144.344 300.15 141.414C300.054 141.029 299.958 140.693 299.91 140.309L299.669 139.156C299.621 138.771 299.525 138.387 299.476 138.051L299.284 136.994C299.043 135.553 298.802 134.16 298.658 132.719C298.465 131.277 298.273 129.884 298.128 128.443C297.936 127.002 297.84 125.561 297.695 124.168C297.454 121.285 297.262 118.451 297.214 115.568C297.117 112.686 297.117 109.804 297.166 106.921C297.31 101.157 297.791 95.4401 298.706 89.7714C299.188 86.9371 299.717 84.1028 300.439 81.3165C301.113 78.4822 301.932 75.744 302.991 73.1018Z" fill="#464A90"/>
<path d="M252.489 73.1018C252.874 77.2812 252.922 81.5087 252.922 85.6881C252.874 87.8018 252.874 89.8675 252.729 91.9332C252.633 93.9989 252.537 96.1126 252.392 98.1783C251.766 106.489 250.755 114.8 249.263 123.015C247.722 131.229 245.845 139.396 243.245 147.419C242.619 149.436 241.897 151.406 241.175 153.375C240.405 155.345 239.731 157.315 238.816 159.236L237.516 162.119L236.842 163.56L236.505 164.28L236.12 164.953C235.109 166.826 234.05 168.652 232.943 170.429C234.82 162.215 236.457 154.192 237.998 146.121C239.586 138.051 240.982 129.932 242.475 121.862C243.967 113.743 245.46 105.672 247.048 97.5538C248.589 89.3391 250.274 81.2204 252.489 73.1018Z" fill="#464A90"/>
<path d="M318.252 148.716C318.252 148.716 334.332 192.912 343.142 190.942C351.952 188.972 356.189 161.878 339.435 139.396C339.435 139.396 324.511 146.938 318.252 148.716Z" fill="#C17276"/>
<path d="M350.893 170.333L307.612 126.906C307.612 126.906 305.157 115.376 304.338 115.376C303.809 115.376 303.857 119.46 304.001 122.198C301.739 118.115 297.165 110.428 294.902 111.485C291.869 112.926 291.003 121.67 292.784 124.792C294.517 127.963 301.835 135.601 301.835 135.601C301.835 135.601 330.48 191.278 343.19 190.942C355.9 190.606 350.893 170.333 350.893 170.333Z" fill="#DA8C8D"/>
</svg>
