<svg width="352" height="406" viewBox="0 0 352 406" fill="none" xmlns="http://www.w3.org/2000/svg">
<path fill-rule="evenodd" clip-rule="evenodd" d="M0 175.758V172.857C0 77.391 78.1421 0 174.535 0H177.465C273.858 0 352 77.391 352 172.857V175.759C352 271.226 273.858 348.617 177.465 348.617H174.535C78.1421 348.618 0 271.226 0 175.759" fill="#E4EBF7"/>
<path fill-rule="evenodd" clip-rule="evenodd" d="M55.5812 180.617C55.4403 182.123 54.9998 183.587 54.2849 184.923C53.57 186.26 52.595 187.444 51.416 188.405C50.2371 189.367 48.8775 190.088 47.4158 190.527C45.9541 190.966 44.4191 191.113 42.8994 190.962C41.3797 190.81 39.9054 190.362 38.5615 189.643C37.2176 188.924 36.0307 187.949 35.0692 186.773C34.1078 185.598 33.3908 184.246 32.9597 182.794C32.5286 181.343 32.3919 179.822 32.5574 178.318C32.8882 175.313 34.4047 172.559 36.7765 170.656C39.1483 168.753 42.1833 167.855 45.2203 168.158C48.2573 168.462 51.0504 169.941 52.991 172.275C54.9316 174.608 55.8626 177.606 55.5812 180.617Z" fill="white"/>
<path d="M67.6293 202.31L49.9463 217.248M51.6939 185.402L66.3487 193.631L51.6939 185.402Z" stroke="white" stroke-width="2"/>
<path fill-rule="evenodd" clip-rule="evenodd" d="M55.7486 220.096C55.538 222.166 54.5054 224.069 52.8781 225.386C51.2508 226.703 49.1621 227.325 47.0713 227.117C44.9806 226.908 43.0591 225.885 41.7297 224.274C40.4002 222.662 39.7717 220.593 39.9823 218.523C40.0866 217.497 40.3938 216.503 40.8863 215.595C41.3788 214.687 42.047 213.884 42.8527 213.232C43.6585 212.58 44.586 212.092 45.5824 211.795C46.5787 211.498 47.6243 211.399 48.6596 211.502C49.6948 211.605 50.6993 211.909 51.6159 212.397C52.5324 212.885 53.3429 213.547 54.0012 214.345C54.6595 215.143 55.1526 216.061 55.4524 217.048C55.7522 218.035 55.8529 219.07 55.7486 220.096ZM80.513 197.796C80.4164 198.835 80.1129 199.845 79.6201 200.768C79.1272 201.69 78.4548 202.507 77.6415 203.171C76.8283 203.835 75.8904 204.332 74.8819 204.635C73.8734 204.938 72.8143 205.04 71.7658 204.935C70.7173 204.831 69.7001 204.521 68.7729 204.025C67.8457 203.529 67.027 202.856 66.3639 202.045C65.7007 201.234 65.2064 200.3 64.9094 199.299C64.6124 198.298 64.5186 197.248 64.6334 196.21C64.8627 194.139 65.9091 192.24 67.5447 190.929C69.1803 189.617 71.2728 188.999 73.3667 189.208C75.4605 189.417 77.3863 190.437 78.7247 192.045C80.0631 193.653 80.7058 195.72 80.513 197.796ZM138.436 36.6611L180.127 36.6417C180.969 36.6414 181.803 36.4768 182.581 36.1574C183.359 35.8379 184.066 35.3698 184.661 34.7797C185.257 34.1897 185.729 33.4893 186.051 32.7185C186.373 31.9477 186.539 31.1217 186.539 30.2875C186.538 29.4533 186.372 28.6274 186.05 27.8568C185.727 27.0863 185.254 26.3862 184.659 25.7965C184.063 25.2069 183.356 24.7392 182.577 24.4202C181.799 24.1013 180.965 23.9372 180.123 23.9375L138.432 23.9555C137.589 23.9558 136.755 24.1204 135.977 24.4399C135.199 24.7594 134.492 25.2276 133.897 25.8177C133.301 26.4078 132.829 27.1082 132.507 27.8791C132.185 28.65 132.019 29.4761 132.019 30.3104C132.02 31.1446 132.186 31.9707 132.508 32.7413C132.831 33.512 133.304 34.2121 133.9 34.8019C134.495 35.3916 135.203 35.8593 135.981 36.1783C136.759 36.4973 137.593 36.6613 138.436 36.6611ZM154.382 62.0501L196.074 62.0321C197.758 62.0067 199.365 61.3259 200.547 60.1369C201.729 58.9478 202.391 57.3459 202.391 55.6772C202.39 54.0086 201.726 52.4073 200.543 51.2192C199.36 50.0311 197.753 49.3518 196.068 49.3279L154.377 49.3459C153.535 49.3462 152.701 49.5109 151.923 49.8305C151.145 50.15 150.438 50.6182 149.842 51.2083C149.247 51.7984 148.775 52.4989 148.453 53.2697C148.131 54.0405 147.966 54.8666 147.966 55.7007C147.966 56.5349 148.133 57.3608 148.455 58.1314C148.778 58.9019 149.251 59.6019 149.846 60.1915C150.442 60.7811 151.15 61.2487 151.928 61.5676C152.706 61.8865 153.54 62.0504 154.382 62.0501Z" fill="white"/>
<path fill-rule="evenodd" clip-rule="evenodd" d="M157.701 36.6406V36.6379L179.769 36.6296C178.918 36.6174 178.074 36.7728 177.285 37.0867C176.496 37.4006 175.778 37.8667 175.172 38.458C174.567 39.0493 174.086 39.7539 173.758 40.5309C173.43 41.3078 173.261 42.1416 173.262 42.9838C173.262 43.8259 173.431 44.6596 173.76 45.4364C174.088 46.2131 174.57 46.9174 175.175 47.5083C175.781 48.0992 176.5 48.5648 177.289 48.8782C178.078 49.1916 178.923 49.3465 179.773 49.3338L157.707 49.3434V49.3407C159.407 49.3399 161.038 48.6702 162.24 47.4788C163.442 46.2875 164.116 44.672 164.116 42.9879C164.115 41.3038 163.439 39.6889 162.236 38.4986C161.033 37.3082 159.402 36.6399 157.701 36.6406ZM257.979 187.301C257.206 194.895 250.364 200.431 242.697 199.665C235.028 198.9 229.439 192.122 230.212 184.528C230.983 176.934 237.827 171.398 245.496 172.163C253.164 172.929 258.754 179.706 257.981 187.301" fill="white"/>
<path d="M269.84 216.113L248.512 234.129M250.621 195.722L268.293 205.645L250.621 195.722Z" stroke="white" stroke-width="2"/>
<path fill-rule="evenodd" clip-rule="evenodd" d="M258.183 234.918C258.071 236.165 257.71 237.378 257.121 238.486C256.533 239.595 255.728 240.576 254.753 241.374C253.778 242.172 252.654 242.771 251.444 243.135C250.234 243.499 248.963 243.622 247.705 243.496C246.447 243.37 245.227 242.999 244.115 242.402C243.003 241.806 242.021 240.997 241.227 240.023C240.433 239.048 239.842 237.927 239.489 236.725C239.136 235.522 239.027 234.262 239.169 233.018C239.451 230.543 240.707 228.278 242.664 226.714C244.621 225.15 247.122 224.414 249.624 224.664C252.125 224.914 254.427 226.13 256.029 228.05C257.632 229.969 258.405 232.437 258.183 234.918ZM284.288 211.75C284.171 213.003 283.804 214.221 283.21 215.333C282.615 216.445 281.804 217.43 280.823 218.23C279.842 219.03 278.711 219.63 277.495 219.995C276.278 220.36 275.001 220.483 273.737 220.356C272.473 220.23 271.246 219.857 270.128 219.259C269.01 218.661 268.022 217.849 267.223 216.871C266.423 215.893 265.827 214.768 265.468 213.56C265.11 212.353 264.996 211.087 265.134 209.836C265.41 207.336 266.672 205.045 268.645 203.463C270.618 201.88 273.143 201.134 275.669 201.386C278.195 201.638 280.519 202.869 282.133 204.81C283.747 206.751 284.522 209.246 284.288 211.75Z" fill="white"/>
<path fill-rule="evenodd" clip-rule="evenodd" d="M212.412 265.749C212.412 266.565 212.085 267.348 211.502 267.925C210.92 268.502 210.13 268.826 209.306 268.826C208.482 268.826 207.692 268.502 207.109 267.925C206.527 267.348 206.199 266.565 206.199 265.749C206.199 264.933 206.527 264.15 207.109 263.573C207.692 262.996 208.482 262.672 209.306 262.672C210.13 262.672 210.92 262.996 211.502 263.573C212.085 264.15 212.412 264.933 212.412 265.749V265.749ZM314.947 160.144C314.947 160.96 314.62 161.743 314.037 162.32C313.454 162.897 312.664 163.222 311.84 163.222C311.016 163.222 310.225 162.897 309.642 162.32C309.06 161.743 308.732 160.96 308.732 160.144C308.732 159.328 309.06 158.546 309.642 157.969C310.225 157.392 311.015 157.068 311.839 157.068C312.663 157.068 313.453 157.392 314.036 157.969C314.618 158.546 314.945 159.328 314.945 160.144H314.947ZM302.518 208.64C302.518 209.045 302.437 209.445 302.281 209.818C302.125 210.192 301.896 210.531 301.607 210.817C301.318 211.102 300.976 211.329 300.599 211.484C300.222 211.638 299.817 211.718 299.409 211.718C299.001 211.718 298.597 211.638 298.22 211.483C297.843 211.328 297.5 211.102 297.212 210.816C296.923 210.53 296.694 210.19 296.538 209.817C296.382 209.444 296.302 209.043 296.302 208.639C296.302 207.823 296.629 207.04 297.212 206.462C297.795 205.885 298.586 205.561 299.41 205.561C300.234 205.561 301.025 205.885 301.608 206.462C302.19 207.04 302.518 207.823 302.518 208.639V208.64ZM247.345 148.486C247.354 148.895 247.28 149.302 247.128 149.683C246.975 150.064 246.748 150.411 246.459 150.704C246.169 150.997 245.824 151.23 245.442 151.388C245.061 151.547 244.651 151.629 244.238 151.629C243.824 151.629 243.415 151.547 243.033 151.388C242.652 151.23 242.306 150.997 242.017 150.704C241.728 150.411 241.5 150.064 241.348 149.683C241.196 149.302 241.122 148.895 241.131 148.486C241.148 147.681 241.483 146.915 242.064 146.351C242.644 145.788 243.425 145.473 244.238 145.473C245.051 145.473 245.831 145.788 246.412 146.351C246.993 146.915 247.328 147.681 247.345 148.486ZM273.034 127.064C273.042 127.473 272.968 127.88 272.816 128.261C272.664 128.642 272.437 128.989 272.147 129.282C271.858 129.575 271.512 129.808 271.131 129.966C270.749 130.125 270.34 130.207 269.926 130.207C269.513 130.207 269.103 130.125 268.722 129.966C268.34 129.808 267.995 129.575 267.705 129.282C267.416 128.989 267.189 128.642 267.036 128.261C266.884 127.88 266.81 127.473 266.819 127.064C266.836 126.259 267.171 125.493 267.752 124.929C268.333 124.366 269.113 124.051 269.926 124.051C270.739 124.051 271.52 124.366 272.101 124.929C272.681 125.493 273.016 126.259 273.034 127.064V127.064ZM282.494 249.669C282.494 250.485 282.167 251.268 281.584 251.846C281.001 252.423 280.211 252.747 279.386 252.747C278.562 252.747 277.772 252.423 277.189 251.846C276.606 251.268 276.278 250.485 276.278 249.669C276.278 248.853 276.606 248.07 277.189 247.492C277.772 246.915 278.562 246.591 279.386 246.591C280.211 246.591 281.001 246.915 281.584 247.492C282.167 248.07 282.494 248.853 282.494 249.669V249.669Z" stroke="white" stroke-width="2"/>
<path d="M308.732 161.798L290.78 172.738L269.376 161.796V130.145M299.756 211.717L297.083 239.665L281.805 247.959L299.756 211.717ZM242.794 241.473L233.908 255.062H218.025L211.723 264.04L242.794 241.473ZM244.583 172.761V150.878V172.761Z" stroke="white" stroke-width="2"/>
<path fill-rule="evenodd" clip-rule="evenodd" d="M232.905 90.7448H227.381C225.624 90.74 223.941 90.0468 222.698 88.8165C221.456 87.5862 220.755 85.9188 220.75 84.1787C220.755 82.4384 221.455 80.7707 222.698 79.5401C223.94 78.3095 225.624 77.6161 227.381 77.6113H232.905C234.662 77.6161 236.346 78.3095 237.589 79.5401C238.831 80.7707 239.531 82.4384 239.536 84.1787C239.531 85.9188 238.831 87.5862 237.588 88.8165C236.346 90.0468 234.662 90.74 232.905 90.7448Z" fill="white"/>
<path fill-rule="evenodd" clip-rule="evenodd" d="M244.419 41.0295C244.419 18.486 262.871 0.209961 285.635 0.209961C308.396 0.209961 326.85 18.486 326.85 41.0295C326.85 63.5717 308.396 81.8491 285.635 81.8491C262.871 81.8491 244.419 63.5717 244.419 41.0295Z" fill="#1890FF"/>
<path fill-rule="evenodd" clip-rule="evenodd" d="M287.939 52.5994C288.638 53.2917 289.037 54.1806 289.037 55.269C289.037 56.3573 288.637 57.2975 287.939 57.9884C287.14 58.6808 286.242 59.0269 285.143 59.0269C284.046 59.0269 283.145 58.6323 282.446 57.94C281.646 57.2476 281.3 56.3573 281.3 55.269C281.3 54.1806 281.646 53.2917 282.446 52.5994C283.145 51.907 284.046 51.5609 285.144 51.5609C286.242 51.5609 287.188 51.907 287.939 52.5994ZM293.93 25.6499C295.927 27.3793 296.926 29.7526 296.926 32.7698C296.926 35.1403 296.329 37.1037 295.222 38.6545C295.128 38.7875 295.03 38.9038 294.917 39.0215C294.336 39.6155 292.946 40.8852 290.784 42.7586C289.943 43.4074 289.261 44.2357 288.788 45.1818C288.283 46.1964 288.026 47.3144 288.039 48.4454V49.1377H282.297V48.4454C282.297 46.5664 282.597 44.9339 283.295 43.5991C283.944 42.2643 285.891 40.1873 289.136 37.3183L289.737 36.626C290.636 35.5391 291.085 34.351 291.085 33.1159C291.085 31.482 290.584 30.1971 289.687 29.2597C288.739 28.3181 287.39 27.8736 285.691 27.8736C283.544 27.8736 281.997 28.5161 280.998 29.8537C280.48 30.546 280.13 31.4253 279.935 32.4901C279.815 33.1259 279.473 33.6998 278.97 34.1121C278.466 34.5245 277.833 34.7491 277.18 34.747H277.174C275.389 34.747 274.018 33.109 274.406 31.3823C274.877 29.2804 275.832 27.533 277.304 26.1428C279.451 24.0658 282.347 23.0273 286.042 23.0273C289.286 23.0273 291.934 23.8678 293.93 25.6499Z" fill="white"/>
<path fill-rule="evenodd" clip-rule="evenodd" d="M72.7563 104.863C72.7563 104.863 103.249 112.285 110.934 126.942C118.728 141.813 102.053 139.763 88.942 133.775C73.7587 126.84 54.4092 117.405 72.7563 104.863Z" fill="#FFB594"/>
<path fill-rule="evenodd" clip-rule="evenodd" d="M126.503 92.9169L125.875 96.9227C124.823 97.6012 119.237 93.2354 119.237 93.2354L116.937 94.2711L115.056 86.4007C115.056 86.4007 124.584 80.0466 127.522 79.4525C130.951 78.7588 141.341 80.7541 142.482 82.6068C142.482 82.6068 144.327 83.2797 139.368 83.5622C134.408 83.8433 132.318 84.1811 129.875 87.8989C127.433 91.6181 126.503 92.9169 126.503 92.9169Z" fill="#FFC6A0"/>
<path fill-rule="evenodd" clip-rule="evenodd" d="M179.033 153.652C175.36 142.957 170.435 135.403 166.566 132.221C161.673 128.197 153.508 129.14 150.676 126.423C148.9 124.719 146.181 124.766 146.181 124.766C146.181 124.766 125.237 120.393 122.654 119.949C119.34 119.381 119.684 118.96 114.19 118.003C111.995 115.363 110.111 116.449 110.111 116.449L100.171 114.535C98.9784 112.496 96.7834 113.118 96.7834 113.118L93.3329 111.876C91.0331 125.689 82.5117 130.979 82.5117 130.979C85.0213 132.532 104.466 142.471 104.466 142.471L111.606 193.856C111.606 193.856 106.963 201.74 113.488 206.469C113.488 206.469 141.286 201.286 162.311 206.013C162.311 206.013 166.571 202.488 163.669 193.82C164.401 189.652 165.618 182.378 166.097 177.727C166.635 178.796 168.919 180.383 170.487 182.542C170.487 182.542 183.638 172.344 185.938 163.14C184.775 162.139 183.704 160.945 182.769 159.743C181.976 158.724 182.268 156.897 181.699 155.981C180.764 154.48 179.177 154.073 179.033 153.652Z" fill="white"/>
<path fill-rule="evenodd" clip-rule="evenodd" d="M141.333 400.994C141.333 400.994 147.338 403.82 151.615 402.408C155.559 401.106 157.948 403.333 161.513 404.039C165.079 404.745 171.124 405.562 177.851 402.294C177.707 394.665 168.22 396.783 161.13 392.999C157.547 391.088 155.84 386.461 156.1 380.815H142.955C142.955 380.815 141.009 395.382 141.333 400.994Z" fill="#CBD1D1"/>
<path fill-rule="evenodd" clip-rule="evenodd" d="M141.301 400.756C141.301 400.756 144.695 402.516 150.75 401.66C155.026 401.055 155.94 402.326 161.128 403.088C166.318 403.849 176.122 402.992 177.658 401.85C178.236 403.373 177.179 404.706 177.179 404.706C177.179 404.706 175.065 405.541 170.451 405.847C167.613 406.036 162.342 406.25 159.816 405.151C157.317 403.247 152.48 402.516 151.807 404.817C146.33 406.132 141.524 404.421 141.524 404.421L141.301 400.756Z" fill="#2B0849"/>
<path fill-rule="evenodd" clip-rule="evenodd" d="M151.471 381.672H155.797C155.797 381.672 155.653 390.952 162.138 393.522C155.651 394.377 150.174 390.333 151.471 381.672Z" fill="#A4AABA"/>
<path fill-rule="evenodd" clip-rule="evenodd" d="M80.4485 376.629C80.4485 376.629 77.5027 386.897 74.1781 393.668C71.6643 398.785 68.2711 404.042 81.8186 404.042C91.1131 404.042 94.3357 403.378 92.1967 394.905C90.0576 386.431 92.5685 376.629 92.5685 376.629H80.4485Z" fill="#CBD1D1"/>
<path fill-rule="evenodd" clip-rule="evenodd" d="M71.9689 400.711C71.9689 400.711 74.9007 402.33 81.2424 402.33C89.747 402.33 92.7753 400.045 92.7753 400.045C92.7753 400.045 93.6169 401.587 91.9098 403.043C90.5215 404.227 86.8809 405.246 81.5779 405.183C75.7829 405.117 73.4243 404.4 72.1604 403.566C71.007 402.805 71.1999 401.378 71.9689 400.711Z" fill="#2B0849"/>
<path fill-rule="evenodd" clip-rule="evenodd" d="M81.6749 379.263C81.6749 379.263 81.721 381.366 81.2359 383.32C80.7479 385.286 79.7287 387.618 79.656 389.051C79.5749 390.645 85.9992 391.239 86.8632 389.098C87.73 386.956 88.6723 380.199 89.5377 379.057C90.4032 377.914 82.6829 376.123 81.6749 379.264" fill="#A4AABA"/>
<path fill-rule="evenodd" clip-rule="evenodd" d="M139.333 385.093L158.037 385.22C158.037 385.22 159.852 309.729 160.628 296.044C161.402 282.361 165.907 236 162.029 208.634L144.487 207.742L112.542 208.822C112.542 208.822 111.935 214.314 110.871 222.636C110.783 223.322 109.918 223.803 109.824 224.526C109.719 225.336 110.415 226.4 110.271 227.248C106.966 246.744 101.356 273.085 98.0465 291.879C97.8843 292.801 96.3212 293.276 96.008 295.605C95.9521 296.023 96.303 297.717 96.1646 298.091C86.5556 324.045 80.8569 364.335 76.2041 383.78L96.626 383.761C96.626 383.761 99.6976 371.894 102.26 360.263C106.19 342.42 134.572 242.554 134.572 242.554L138.788 241.832L140.246 306.011C140.246 306.011 139.933 307.72 140.718 308.808C141.501 309.895 139.935 310.363 140.17 311.915L140.718 314.399C140.718 314.399 140.09 324.338 139.462 330.863C138.836 337.384 139.333 385.093 139.333 385.093Z" fill="#7BB2F9"/>
<path d="M148.7 311.192C148.7 311.192 152.579 309.655 157.233 305.815M106.373 306.324C107.985 306.454 112.019 303.528 116.097 299.49L106.373 306.324Z" stroke="#648BD8" stroke-width="1.051" stroke-linecap="round" stroke-linejoin="round"/>
<path d="M149.98 306.98C149.98 306.98 153.857 305.443 158.512 301.602" stroke="#648BD8" stroke-linecap="round" stroke-linejoin="round"/>
<path d="M78.4609 379.421H97.0695M104.493 310.672C104.493 310.672 108.159 309.854 113.588 306.013L104.493 310.672ZM120.278 209.408C119.9 213.709 120.697 221.212 114.216 222.04L120.278 209.408ZM144.877 206.979C144.877 206.979 145.031 226.381 143.069 227.839C139.967 230.143 138.889 230.531 138.889 230.531L144.877 206.979ZM139.516 207.752C139.516 207.752 139.564 225.586 137.843 241.506L139.516 207.752ZM130.963 243.023C130.963 243.023 141.046 240.719 144.149 240.719L130.963 243.023ZM103.892 284.494C103.459 286.603 103.003 288.708 102.523 290.808C102.523 290.808 100.485 293.344 101.113 296.036C101.741 298.728 99.7888 298.868 94.1433 317.298C91.7722 325.038 87.8659 343.04 85.2682 355.51L84.9453 357.061L103.892 284.494ZM105.82 273.342C105.426 275.539 105.015 277.733 104.587 279.924L105.82 273.342ZM115.47 210.238L113.798 224.731C113.798 224.731 112.264 224.938 113.099 227.838C113.257 229.702 109.36 249.681 105.857 269.973L115.47 210.238Z" stroke="#648BD8" stroke-width="1.051" stroke-linecap="round" stroke-linejoin="round"/>
<path fill-rule="evenodd" clip-rule="evenodd" d="M162.516 204.681C162.516 204.681 138.683 200.383 112.334 204.958C112.555 208.439 112.33 210.705 112.33 210.705C112.33 210.705 132.864 206.803 162.2 210.273C162.552 207.012 162.516 204.681 162.516 204.681Z" fill="#192064"/>
<path fill-rule="evenodd" clip-rule="evenodd" d="M148.647 208.758L148.651 201.958C148.653 201.666 148.541 201.386 148.338 201.175C148.135 200.965 147.857 200.841 147.564 200.829C144.152 200.703 140.481 200.68 136.608 200.81C136.313 200.82 136.033 200.943 135.827 201.154C135.621 201.364 135.506 201.645 135.505 201.938L135.501 208.731C135.5 208.881 135.53 209.03 135.589 209.169C135.647 209.307 135.733 209.433 135.841 209.538C135.95 209.643 136.078 209.725 136.219 209.78C136.361 209.835 136.511 209.861 136.663 209.857C139.997 209.774 143.616 209.768 147.47 209.881C147.622 209.886 147.774 209.86 147.916 209.806C148.058 209.752 148.188 209.671 148.298 209.566C148.408 209.461 148.495 209.336 148.555 209.198C148.615 209.059 148.646 208.91 148.647 208.759" fill="white"/>
<path fill-rule="evenodd" clip-rule="evenodd" d="M147.088 207.468L147.091 203.209C147.093 202.978 147.003 202.755 146.842 202.588C146.68 202.421 146.459 202.323 146.226 202.314C143.493 202.226 140.758 202.221 138.024 202.301C137.789 202.308 137.566 202.405 137.401 202.572C137.237 202.739 137.145 202.963 137.144 203.196V207.45C137.143 207.569 137.166 207.686 137.212 207.795C137.258 207.905 137.325 208.004 137.411 208.087C137.496 208.17 137.597 208.236 137.708 208.279C137.819 208.323 137.938 208.344 138.058 208.342C140.758 208.283 143.459 208.288 146.158 208.357C146.665 208.371 147.088 207.969 147.088 207.468Z" fill="#192064"/>
<path d="M141.188 241.714L142.443 303.528C142.443 303.528 143.384 305.701 142.128 307.255C140.874 308.809 145.579 308.187 143.384 310.361C141.189 312.535 144.638 311.914 143.384 315.02C142.551 317.082 141.994 344.236 141.852 363.685M140.177 380.802H157.426H140.177ZM141.817 374.038C141.825 378.728 141.875 382.055 141.972 383.047L141.817 374.038ZM141.838 365.755C141.826 367.757 141.819 369.759 141.817 371.76L141.838 365.755Z" stroke="#648BD8" stroke-width="1.051" stroke-linecap="round" stroke-linejoin="round"/>
<path fill-rule="evenodd" clip-rule="evenodd" d="M65.5364 114.965C65.5364 114.965 64.8149 123.336 75.6348 122.653C91.2934 121.667 88.5224 109.713 119.731 92.6684C118.632 88.9188 116.309 86.0996 116.309 86.0996C116.309 86.0996 100.835 90.4059 84.7349 97.2405C75.2755 101.256 66.0075 106.036 65.5364 114.965ZM146.044 125.53L147.36 118.092L134.939 102.265L127.897 109.704L125.464 120.551C125.445 120.632 125.449 120.716 125.476 120.794C125.503 120.872 125.551 120.942 125.615 120.994C126.964 122.102 134.703 127.935 145.674 125.901C145.766 125.884 145.85 125.839 145.916 125.773C145.982 125.706 146.026 125.622 146.043 125.53" fill="#FFC6A0"/>
<path fill-rule="evenodd" clip-rule="evenodd" d="M131.339 109.37C131.339 109.37 125.002 105.42 127.939 99.8786C130.208 95.6 134.249 101.447 134.249 101.447C134.249 101.447 134.976 96.4045 138.612 96.4045C139.339 94.9645 140.795 90.6416 140.795 90.6416C140.795 90.6416 156.796 94.2431 159.705 94.9631C159.705 102.167 156.484 121.859 148.744 122.464C136.312 123.437 131.339 109.37 131.339 109.37Z" fill="#FFC6A0"/>
<path fill-rule="evenodd" clip-rule="evenodd" d="M159.205 101.146C162.842 98.2647 164.057 87.6845 164.057 87.6845C164.057 87.6845 160.591 87.0061 154.774 84.846C148.226 81.9645 136.881 78.2731 130.335 86.1974C116.818 90.6602 127.469 113.645 127.469 113.645L131.262 109.462C131.262 109.462 125.76 104.911 128.354 100.818C131.388 96.0243 133.834 102.304 133.834 102.304C133.834 102.304 134.725 98.9985 138.841 97.6762C139.337 96.6931 140.289 93.9736 140.843 92.3453C140.962 91.9941 141.208 91.6994 141.535 91.5191C141.862 91.3387 142.245 91.2858 142.609 91.3705C145.964 92.1431 154.74 94.1661 158.485 95.0564C159.215 95.2295 159.703 95.908 159.632 96.6488L159.205 101.146Z" fill="#520038"/>
<path fill-rule="evenodd" clip-rule="evenodd" d="M146.768 104.77C146.624 105.614 145.954 106.207 145.272 106.094C144.588 105.979 144.152 105.202 144.296 104.357C144.44 103.513 145.11 102.92 145.792 103.033C146.474 103.147 146.91 103.925 146.768 104.77ZM156.771 107.027C156.627 107.871 155.957 108.464 155.275 108.351C154.593 108.236 154.157 107.459 154.299 106.614C154.443 105.77 155.113 105.177 155.795 105.29C156.478 105.404 156.914 106.181 156.771 107.027Z" fill="#552950"/>
<path d="M153.971 103.075L152.718 105.304L152.301 111.337H149.187" stroke="#DB836E" stroke-width="1.118" stroke-linecap="round" stroke-linejoin="round"/>
<path d="M154.974 102.578C154.974 102.578 157.476 101.586 158.477 103.321" stroke="#5C2552" stroke-width="1.118" stroke-linecap="round" stroke-linejoin="round"/>
<path d="M129.165 102.303C129.165 102.303 129.832 100.76 130.721 101.311C131.612 101.862 132.502 103.296 131.501 104.067C130.499 104.837 131.724 106.379 131.724 106.379" stroke="#DB836E" stroke-width="1.118" stroke-linecap="round" stroke-linejoin="round"/>
<path d="M144.405 100.431C144.405 100.431 146.964 101.972 150.189 101.752" stroke="#5C2552" stroke-width="1.118" stroke-linecap="round" stroke-linejoin="round"/>
<path d="M132.39 111.888C132.39 111.888 135.616 122.134 146.963 122.465M144.961 112.659C144.961 112.659 148.075 114.311 151.079 114.311L144.961 112.659ZM146.296 116.184C146.296 116.184 147.63 116.735 148.409 116.625L146.296 116.184Z" stroke="#DB836E" stroke-width="1.118" stroke-linecap="round" stroke-linejoin="round"/>
<path d="M96.468 113.895C96.468 113.895 95.453 126.747 84.998 133.565M113.874 123.213C113.874 123.213 114.503 131.032 106.975 140.919L113.874 123.213Z" stroke="#E4EBF7" stroke-width="1.101" stroke-linecap="round" stroke-linejoin="round"/>
<path d="M180.92 169.572C180.92 169.572 173.549 179.823 167.747 184.482" stroke="#E4EBF7" stroke-width="1.051" stroke-linecap="round" stroke-linejoin="round"/>
<path d="M166.801 148.061C166.801 148.061 167.433 154.106 163.827 192.455" stroke="#E4EBF7" stroke-width="1.101" stroke-linecap="round" stroke-linejoin="round"/>
<path fill-rule="evenodd" clip-rule="evenodd" d="M209.753 208.852H140.076C139.702 208.852 139.342 208.704 139.078 208.442C138.813 208.18 138.664 207.824 138.664 207.453V163.576C138.664 162.805 139.296 162.178 140.076 162.178H209.753C210.533 162.178 211.165 162.805 211.165 163.576V207.453C211.165 207.824 211.016 208.18 210.751 208.442C210.486 208.704 210.127 208.852 209.753 208.852Z" fill="#F2D7AD"/>
<path fill-rule="evenodd" clip-rule="evenodd" d="M210.119 208.852H182.349V162.18H211.407V207.577C211.407 207.915 211.271 208.239 211.03 208.478C210.789 208.717 210.461 208.851 210.12 208.851" fill="#F4D19D"/>
<path fill-rule="evenodd" clip-rule="evenodd" d="M172.739 176.54H129.906C129.773 176.54 129.643 176.504 129.529 176.436C129.415 176.368 129.323 176.271 129.262 176.154C129.2 176.037 129.172 175.906 129.181 175.775C129.19 175.644 129.235 175.518 129.312 175.41L138.231 162.792C138.501 162.408 138.944 162.18 139.42 162.18H182.889L172.739 176.54Z" fill="#F2D7AD"/>
<path fill-rule="evenodd" clip-rule="evenodd" d="M172.929 177.301H138.761V176.583H172.551L182.594 162.376L183.186 162.789L172.929 177.301Z" fill="#CC9B6E"/>
<path fill-rule="evenodd" clip-rule="evenodd" d="M221.315 176.54H195.214C194.764 176.54 194.32 176.436 193.917 176.237C193.514 176.037 193.164 175.747 192.894 175.391L182.89 162.18H210.803C211.488 162.18 212.131 162.498 212.542 163.041L221.895 175.392C221.976 175.499 222.025 175.626 222.037 175.758C222.049 175.891 222.023 176.025 221.963 176.144C221.903 176.263 221.81 176.364 221.696 176.434C221.581 176.504 221.449 176.541 221.315 176.541" fill="#F4D19D"/>
<path fill-rule="evenodd" clip-rule="evenodd" d="M220.684 177.347H193.584L182.599 162.842L183.179 162.413L193.944 176.628H220.684V177.347ZM182.526 208.094L182.481 196.772L183.207 196.769L183.252 208.091L182.526 208.094Z" fill="#CC9B6E"/>
<path fill-rule="evenodd" clip-rule="evenodd" d="M182.465 192.998L182.353 163.348L183.079 163.345L183.191 192.996L182.465 192.998ZM156.412 194.589L155.716 194.391L157.783 187.237L158.48 187.435L156.412 194.589ZM151.604 194.767L147.858 190.703L151.584 185.948L152.158 186.388L148.806 190.665L152.139 194.282L151.604 194.767ZM163.026 194.767L162.491 194.282L165.822 190.665L162.471 186.388L163.044 185.948L166.77 190.703L163.026 194.767Z" fill="#CC9B6E"/>
<path fill-rule="evenodd" clip-rule="evenodd" d="M215.749 182.073L211.395 179.359L211.448 184.225L209.99 184.352C207.638 184.512 204.909 184.671 203.295 184.671C200.635 184.671 199.529 187.797 206.412 188.337L202.714 187.512C202.714 187.512 199.683 189.336 203.419 190.697C203.419 190.697 201.21 192.382 204.203 194.269C203.387 199.121 211.539 199.888 214.16 199.24C216.783 198.589 220.079 195.974 220.434 192.095C220.825 187.824 219.189 184.574 215.75 182.073" fill="#FFC6A0"/>
<path d="M214.867 184.405C214.867 184.405 205.749 185.056 203.179 184.92C200.612 184.785 200.517 187.953 206.477 188.055C211.705 188.263 214.098 187.994 214.098 187.994" stroke="#DB836E" stroke-width="1.051" stroke-linecap="round" stroke-linejoin="round"/>
<path d="M202.947 187.589C200.361 189.453 203.731 190.85 203.731 190.85C203.731 190.85 208.594 192.093 213.141 191.704" stroke="#DB836E" stroke-width="1.051" stroke-linecap="round" stroke-linejoin="round"/>
<path d="M73.8721 123.077C78.8115 122.611 85.6482 121.349 92.8609 112.341M212.356 195.666C212.356 195.666 203.576 195.82 202.947 192.714C202.635 190.851 203.576 190.773 203.576 190.773L212.356 195.666ZM204.28 194.501C204.28 194.501 202.738 198.876 211.886 199.393L204.28 194.501ZM211.394 179.358V184.172V179.358Z" stroke="#DB836E" stroke-width="1.051" stroke-linecap="round" stroke-linejoin="round"/>
<path fill-rule="evenodd" clip-rule="evenodd" d="M235.672 343.282C233.207 343.282 230.844 342.312 229.101 340.586C227.358 338.86 226.379 336.519 226.379 334.078V242.046C226.379 240.837 226.619 239.64 227.086 238.523C227.553 237.407 228.238 236.392 229.101 235.538C229.964 234.683 230.988 234.005 232.116 233.542C233.243 233.08 234.452 232.842 235.672 232.842C236.892 232.842 238.101 233.08 239.228 233.542C240.356 234.005 241.38 234.683 242.243 235.538C243.106 236.392 243.791 237.407 244.258 238.523C244.725 239.64 244.965 240.837 244.965 242.046V334.078C244.965 336.519 243.986 338.86 242.243 340.586C240.5 342.312 238.137 343.282 235.672 343.282Z" fill="#5BA02E"/>
<path fill-rule="evenodd" clip-rule="evenodd" d="M246.823 342.361C244.358 342.361 241.995 341.391 240.252 339.665C238.51 337.939 237.531 335.598 237.531 333.158V287.143C237.516 285.925 237.745 284.716 238.205 283.586C238.666 282.457 239.348 281.429 240.212 280.562C241.076 279.695 242.106 279.007 243.241 278.538C244.376 278.068 245.593 277.826 246.823 277.826C248.053 277.826 249.271 278.068 250.406 278.538C251.541 279.007 252.57 279.695 253.435 280.562C254.299 281.429 254.981 282.457 255.441 283.586C255.902 284.716 256.131 285.925 256.116 287.143V333.158C256.116 335.599 255.137 337.94 253.394 339.666C251.651 341.392 249.287 342.361 246.823 342.361Z" fill="#92C110"/>
<path fill-rule="evenodd" clip-rule="evenodd" d="M260.664 405.999H222.184C221.002 405.999 219.869 405.534 219.034 404.707C218.198 403.879 217.729 402.757 217.729 401.586V337.707C217.729 336.536 218.198 335.414 219.034 334.586C219.869 333.759 221.002 333.294 222.184 333.294H260.665C261.847 333.294 262.98 333.759 263.816 334.586C264.652 335.414 265.121 336.536 265.121 337.707V401.586C265.121 402.757 264.652 403.879 263.816 404.707C262.98 405.534 261.847 405.999 260.665 405.999" fill="#F2D7AD"/>
<path d="M124.4 123.347C124.4 123.347 135.272 130.802 147.609 127.282" stroke="#E4EBF7" stroke-width="1.101" stroke-linecap="round" stroke-linejoin="round"/>
</svg>
