<svg width="448" height="448" viewBox="0 0 448 448" fill="none" xmlns="http://www.w3.org/2000/svg">
<circle cx="217" cy="224" r="180" fill="#EAEDF7"/>
<path d="M354.467 16.7837H365.032V435.674H354.467V16.7837Z" fill="#353767"/>
<path d="M295.727 66.521L425.815 60.3098L448.001 41.7727L424.134 25.4504L294.094 31.7097L295.727 66.521Z" fill="#464A91"/>
<path d="M293.518 179.092L423.174 191.418L447.761 176.203L426.439 156.703L296.783 144.377L293.518 179.092Z" fill="#46A6FF"/>
<path d="M432.49 94.3988L302.69 83.7581L278.295 99.2618L299.857 118.521L429.657 129.162L432.49 94.3988Z" fill="#FF9733"/>
<path d="M162.251 448C102.393 448 53.8685 442.482 53.8685 435.674C53.8685 428.867 102.393 423.348 162.251 423.348C222.11 423.348 270.634 428.867 270.634 435.674C270.634 442.482 222.11 448 162.251 448Z" fill="#CAD2EA"/>
<path d="M318.244 21.6421C318.244 21.6421 325.504 19.1435 329.921 20.9694C334.339 22.7952 340.467 28.2993 340.467 28.2993C340.467 28.2993 323.022 33.0231 318.825 31.4645C314.688 29.8735 318.244 21.6421 318.244 21.6421Z" fill="#DA8C8D"/>
<path d="M229.316 63.4077L248.309 59.0869L317.972 21.7287L322.144 30.8041C322.144 30.8041 280.322 70.0197 259.917 79.7419C259.917 79.7419 246.749 89.2721 232.711 88.8867C218.721 88.5073 229.316 63.4077 229.316 63.4077Z" fill="#DA8C8D"/>
<mask id="mask0_2043_11378" style="mask-type:luminance" maskUnits="userSpaceOnUse" x="225" y="19" width="97" height="72">
<path d="M229.895 64.6879L248.661 59.8024L318.085 19.8953L321.933 29.0694C321.933 29.0694 279.795 70.188 259.493 80.6297C259.493 80.6297 246.303 90.6965 232.53 90.6489C218.803 90.6064 229.895 64.6879 229.895 64.6879Z" fill="white"/>
</mask>
<g mask="url(#mask0_2043_11378)">
<path d="M241.138 59.0458C241.138 59.0458 248.153 76.4602 256.836 83.0191C265.519 89.578 227.792 91.6993 224.136 89.3607C220.481 87.0221 230.627 58.5412 230.627 58.5412L241.138 59.0458Z" fill="#C17276"/>
</g>
<path d="M152.407 291.951C146.164 320.118 111.589 421.326 111.589 421.326L106.595 421.085L103.186 416.945L112.598 281.6L152.407 291.951Z" fill="#DA8C8D"/>
<path d="M102.609 415.5L114.182 418.052L112.358 423.493C112.358 423.493 124.843 427.537 129.597 435.674L100.016 429.848L102.609 415.5Z" fill="#464A91"/>
<path d="M200.62 279.529C199.948 308.37 185.541 421.952 185.541 421.952L180.595 422.674L176.466 419.255L159.562 284.633L200.62 279.529Z" fill="#DA8C8D"/>
<mask id="mask1_2043_11378" style="mask-type:luminance" maskUnits="userSpaceOnUse" x="159" y="279" width="42" height="144">
<path d="M200.62 279.529C199.948 308.37 185.541 421.952 185.541 421.952L180.595 422.674L176.466 419.255L159.562 284.633L200.62 279.529Z" fill="white"/>
</mask>
<g mask="url(#mask1_2043_11378)">
<path d="M164.316 307.744C162.059 307.407 159.754 306.925 157.977 305.577C155.912 304.037 154.808 301.485 153.992 299.029C152.887 295.514 152.359 291.566 154.04 288.292C155.816 284.825 159.61 282.948 163.26 281.599C172.912 278.036 183.284 276.64 193.513 277.411C196.442 277.651 199.419 278.085 201.916 279.529C205.614 281.648 207.919 285.885 208.255 290.17C208.543 293.877 207.439 297.44 205.758 300.714C205.278 301.629 204.894 302.592 204.029 303.218C202.781 304.085 201.148 304.422 199.707 304.903C192.408 307.262 184.821 308.514 177.186 308.659C172.912 308.659 168.59 308.37 164.316 307.744Z" fill="#C17276"/>
</g>
<path d="M175.601 418.003L187.462 418.244L186.694 423.926C186.694 423.926 199.707 425.466 205.95 432.544H175.793L175.601 418.003Z" fill="#464A91"/>
<path d="M194.617 182.944L205.998 288.485C205.998 288.485 175.361 303.074 158.218 296.622C158.218 296.622 113.51 294.84 109.477 289.4C109.477 289.4 111.878 202.444 124.027 179.958C124.027 179.958 181.508 186.17 194.617 182.944Z" fill="#486DB9"/>
<path d="M158.217 296.622C158.217 296.622 159.178 233.451 159.802 221.318C159.802 221.318 175.409 288.148 170.271 298.259C170.223 298.211 160.859 298.548 158.217 296.622Z" fill="#353767"/>
<path d="M201.628 204.129C203.741 202.829 205.038 200.566 205.182 198.062C206.094 181.403 209.408 99.8876 186.358 75.4282C167.774 55.6393 150.774 64.98 150.774 64.98C150.774 64.98 103.042 84.2394 119.945 141.68C123.642 154.295 112.502 181.74 115.719 195.943C119.705 213.469 184.293 214.769 201.628 204.129Z" fill="#FFC185"/>
<path d="M128.013 46.491C130.318 49.2836 145.684 41.8207 159.754 30.2169C173.824 18.6613 183.381 7.00943 181.124 4.21683C178.819 1.42422 165.565 8.55017 151.495 20.1058C137.425 31.7095 125.708 43.6984 128.013 46.491Z" fill="#FF9733"/>
<path d="M173.872 27.1357C173.872 27.1357 187.414 55.495 171.471 57.1802C155.528 58.8654 142.995 42.6876 146.549 30.6023C150.054 18.5171 166.237 8.16522 173.872 27.1357Z" fill="#DA8C8D"/>
<mask id="mask2_2043_11378" style="mask-type:luminance" maskUnits="userSpaceOnUse" x="145" y="16" width="35" height="42">
<path d="M173.872 27.1357C173.872 27.1357 187.414 55.495 171.471 57.1802C155.528 58.8654 142.995 42.6876 146.549 30.6023C150.054 18.5171 166.237 8.16522 173.872 27.1357Z" fill="white"/>
</mask>
<g mask="url(#mask2_2043_11378)">
<path d="M150.775 31.6616C148.854 31.2283 146.693 30.5542 145.924 28.7246C145.012 26.6542 146.405 24.2949 148.037 22.7542C152.119 18.9023 157.786 17.2653 163.356 16.7356C167.438 16.3504 171.76 16.543 175.601 18.1319C179.155 19.5764 182.756 22.6579 183.573 26.606C184.197 29.5912 181.604 31.132 179.107 31.8542C175.313 32.9616 171.135 33.1542 167.246 33.2505C162.348 33.3468 157.401 32.9616 152.551 32.0468C151.975 31.9023 151.351 31.806 150.775 31.6616Z" fill="#C17276"/>
</g>
<mask id="mask3_2043_11378" style="mask-type:luminance" maskUnits="userSpaceOnUse" x="145" y="16" width="35" height="42">
<path d="M173.872 27.1357C173.872 27.1357 187.414 55.495 171.471 57.1802C155.528 58.8654 142.995 42.6876 146.549 30.6023C150.054 18.5171 166.237 8.16522 173.872 27.1357Z" fill="white"/>
</mask>
<g mask="url(#mask3_2043_11378)">
<path d="M177.858 46.2988C177.858 46.2988 169.214 45.1914 168.926 46.2988C168.638 47.4062 173.728 49.1396 175.841 48.7544C177.954 48.3692 177.858 46.2988 177.858 46.2988Z" fill="white"/>
</g>
<path d="M146.021 36.958C146.021 36.958 150.727 51.9321 148.326 67.5803C148.326 67.5803 158.794 73.3581 166.477 71.9618C174.161 70.5655 161.339 43.9877 161.339 43.9877L146.021 36.958Z" fill="#DA8C8D"/>
<path d="M166.669 57.1319C166.669 57.1319 165.661 57.7097 158.986 53.9541C158.986 53.9541 159.322 60.743 168.302 62.8134C168.254 62.8615 167.246 58.8652 166.669 57.1319Z" fill="#C17276"/>
<path d="M153.416 27.6655C153.848 31.8062 153.464 36.0433 152.311 39.9914C152.215 38.9322 151.831 37.6803 150.822 37.3914C150.054 37.1507 149.142 37.584 148.661 38.2581C148.181 38.9322 148.037 39.7988 147.941 40.6174C147.845 41.7248 147.941 42.9285 148.373 43.9396C148.854 44.9507 149.766 45.8655 150.87 46.0581C150.198 48.947 149.574 51.9322 148.902 54.8211C143.091 50.4396 138.865 43.9877 137.04 36.9099C136.56 35.0322 136.272 33.1544 136.32 31.2284C136.368 28.0988 137.425 24.9691 139.249 22.4173C139.97 21.4062 140.834 20.4432 141.891 19.8173C144.34 18.3728 147.653 18.8062 149.91 20.5395C152.215 22.2728 153.127 24.8247 153.416 27.6655Z" fill="#464A91"/>
<path d="M167.053 8.83931C162.731 9.32079 158.362 9.60968 154.616 9.36894C154.376 9.36894 154.136 9.36894 153.944 9.36894C142.803 9.27264 142.419 26.0764 153.512 26.7505C159.466 27.1357 165.853 27.3764 168.926 26.9431C168.926 26.9431 182.804 28.0986 187.798 23.0912C192.792 18.0838 182.228 6.48004 167.053 8.83931Z" fill="#464A91"/>
<path d="M166.381 71.9135L173.632 75.7653C173.632 75.7653 172.48 68.0616 170.895 64.6912L168.446 63.969C168.446 64.0171 169.118 69.8431 166.381 71.9135Z" fill="white"/>
<path d="M166.381 71.9136L161.435 83.084C161.435 83.084 146.933 75.284 144.724 68.8803L148.133 66.5691C148.133 66.521 159.082 72.2507 166.381 71.9136Z" fill="white"/>
<path d="M169.503 7.49102C169.503 7.49102 142.563 25.7874 134.447 36.717C134.447 36.717 127.388 17.9874 132.286 12.7873C137.185 7.63547 141.074 7.00954 141.074 7.00954C141.074 7.00954 143.091 2.62804 147.989 0.605811C155.48 -2.52383 169.503 7.49102 169.503 7.49102Z" fill="#FFC185"/>
<path d="M181.124 4.2649C181.124 4.2649 144.292 43.0724 130.125 46.1539C115.911 49.2354 164.316 -0.405482 181.124 4.2649Z" fill="#FF9733"/>
<path d="M142.659 69.5061C142.659 69.5061 104.962 92.7617 94.9741 137.829C94.9741 137.829 119.225 144.521 133.823 148.758C145.732 152.225 142.659 69.5061 142.659 69.5061Z" fill="#FFC185"/>
<path d="M133.871 148.758C133.871 148.758 136.752 127.525 139.393 122.854C142.035 118.232 137.809 153.043 136.608 159.688C135.408 166.284 115.143 191.273 115.143 191.273C115.143 191.273 118.504 151.358 117.928 147.025C117.448 143.221 133.871 148.758 133.871 148.758Z" fill="#FF9733"/>
<path d="M168.446 64.0171L236.347 58.4319L242.014 90.6431C242.014 90.6431 200.188 112.647 192.216 109.18C184.341 105.762 168.446 64.0171 168.446 64.0171Z" fill="#FFC185"/>
<mask id="mask4_2043_11378" style="mask-type:luminance" maskUnits="userSpaceOnUse" x="168" y="58" width="75" height="52">
<path d="M168.446 64.0171L236.347 58.4319L242.014 90.6431C242.014 90.6431 200.188 112.647 192.216 109.18C184.341 105.762 168.446 64.0171 168.446 64.0171Z" fill="white"/>
</mask>
<g mask="url(#mask4_2043_11378)">
<path d="M200.764 109.565C200.764 109.565 198.267 92.5689 192.312 83.9985C192.312 83.9985 218.196 95.1208 218.484 101.958C218.772 108.747 200.764 109.565 200.764 109.565Z" fill="#FF9733"/>
</g>
<path d="M173.632 352.281C173.632 352.281 151.351 280.733 136.944 270.525C122.49 260.318 51.8995 251.94 42.4395 258.199C33.0274 264.411 -12.5923 327.918 3.35057 332.637C19.2454 337.403 174.112 381.555 173.632 352.281Z" fill="#464A91"/>
<mask id="mask5_2043_11378" style="mask-type:luminance" maskUnits="userSpaceOnUse" x="0" y="256" width="174" height="107">
<path d="M173.632 352.281C173.632 352.281 151.351 280.733 136.944 270.525C122.49 260.318 51.8995 251.94 42.4395 258.199C33.0274 264.411 -12.5923 327.918 3.35057 332.637C19.2454 337.403 174.112 381.555 173.632 352.281Z" fill="white"/>
</mask>
<g mask="url(#mask5_2043_11378)">
<path d="M174.833 343.663C175.025 344 137.953 349.44 103.09 343.037C68.2266 336.633 -0.971344 307.792 -10.2394 316.17C-19.4594 324.548 -17.1064 342.074 7.62434 344.963C32.355 347.9 135.36 374.574 157.737 370.192C180.115 365.859 174.833 343.663 174.833 343.663Z" fill="#353767"/>
</g>
<path d="M116.919 277.892C117.015 277.892 117.111 277.892 117.16 277.892C118.6 277.748 119.657 276.448 119.513 275.051C119.464 274.811 118.84 268.503 116.919 261.859C114.134 252.229 110.1 246.788 104.914 245.633C99.68 244.477 90.8922 243.659 83.0648 243.659H83.0167C69.3788 243.659 66.3535 245.825 65.201 247.655C62.6079 251.94 60.2549 266.192 60.0148 267.781C59.7747 269.225 60.7351 270.574 62.1757 270.766C63.6164 271.007 64.9609 270.044 65.153 268.6C66.0654 262.966 68.0343 253.192 69.5709 250.448C70.2912 249.918 74.0369 248.762 83.8811 248.811C91.1323 248.859 99.1037 249.581 103.762 250.64C109.764 251.988 113.414 266.625 114.326 275.485C114.47 276.881 115.623 277.892 116.919 277.892Z" fill="#353767"/>
<path d="M91.5646 237.496C91.5646 237.496 93.6775 174.132 95.0221 168.306C98.0954 154.825 102.081 139.851 102.081 139.851L124.411 146.062C124.411 146.062 118.024 167.777 116.295 172.688C114.807 176.925 106.211 221.751 103.858 234.27C104.962 237.207 107.075 243.514 106.403 246.21C105.443 249.773 96.7508 251.41 96.7508 251.41C96.7508 251.41 91.3245 251.41 89.7878 249.533C88.2031 247.607 91.5646 237.496 91.5646 237.496Z" fill="#DA8C8D"/>
<mask id="mask6_2043_11378" style="mask-type:luminance" maskUnits="userSpaceOnUse" x="89" y="139" width="36" height="113">
<path d="M91.5646 237.496C91.5646 237.496 93.6775 174.132 95.0221 168.306C98.0954 154.825 102.081 139.851 102.081 139.851L124.411 146.062C124.411 146.062 118.024 167.777 116.295 172.688C114.807 176.925 106.211 221.751 103.858 234.27C104.962 237.207 107.075 243.514 106.403 246.21C105.443 249.773 96.7508 251.41 96.7508 251.41C96.7508 251.41 91.3245 251.41 89.7878 249.533C88.2031 247.607 91.5646 237.496 91.5646 237.496Z" fill="white"/>
</mask>
<g mask="url(#mask6_2043_11378)">
<path d="M99.8722 144.136C99.8722 144.136 115.863 158.629 123.45 159.206C131.038 159.784 128.493 142.74 128.493 142.74L100.689 134.988C100.689 134.988 97.3271 141.921 99.8722 144.136Z" fill="#C17276"/>
</g>
</svg>
