<svg width="1392" height="688" viewBox="0 0 1392 688" fill="none" xmlns="http://www.w3.org/2000/svg">
    <path
        d="M536.175 633.323C530.64 633.323 526.153 628.829 526.153 623.286C526.153 617.743 530.64 613.249 536.175 613.249C541.71 613.249 546.197 617.743 546.197 623.286C546.197 628.829 541.71 633.323 536.175 633.323Z"
        fill="#4E575E" />
    <path
        d="M843.21 137.395C844.045 134.706 845.485 132.76 847.058 131.238C850.093 128.138 854.37 126.325 858.951 126.377C863.618 126.401 867.799 128.445 870.751 131.621C872.354 133.17 873.64 135.191 874.407 137.936C874.913 139.55 875.191 141.328 875.214 143.187C875.241 143.272 875.156 143.299 875.183 143.384C875.317 158.084 859.977 171.869 858.291 171.84C856.689 171.784 841.703 157.557 842.241 142.925L842.273 142.728C842.308 140.758 842.619 139.074 843.21 137.395ZM858.646 150.08C862.666 150.122 865.955 146.94 865.998 142.915C866.04 138.889 862.892 135.681 858.873 135.639C854.853 135.597 851.649 138.752 851.606 142.778C851.452 146.745 854.627 150.038 858.646 150.08Z"
        fill="#EFCA08" />
    <path
        d="M497.148 517.195C499.584 510.091 503.4 504.763 507.572 500.753C515.914 492.733 527.141 487.665 539.618 488.084C552.072 488.31 563.22 493.752 571.06 502.321C575.255 506.475 578.633 511.895 580.691 519.227C582.017 523.731 582.768 528.306 582.586 533.19C582.61 533.381 582.633 533.573 582.442 533.596C582.373 572.882 541.004 609.442 536.511 609.214C532.232 609.154 492.591 570.641 494.405 531.336L494.358 530.953C494.755 526.237 495.748 521.644 497.148 517.195ZM538.235 551.642C548.944 551.888 557.814 543.414 558.061 532.689C558.308 521.964 549.848 513.083 539.139 512.837C528.43 512.591 519.56 521.065 519.29 531.598C519.066 542.514 527.526 551.396 538.235 551.642Z"
        fill="#F6511D" />
    <path
        d="M1176.86 257.126C1152.19 145.758 931.709 -36.8325 743.217 120.473C663.041 187.448 675.954 272.181 736.664 283.569C843.63 303.642 850.183 132.633 694.263 81.0984C566.868 39.0216 366.234 123.175 355.056 309.433C345.227 473.493 531 622 531 622"
        stroke="#4E575E" stroke-miterlimit="10" stroke-linecap="round" stroke-linejoin="round"
        stroke-dasharray="7 7" />
    <path
        d="M1169.35 309.237C1169.35 313.484 1172.82 316.958 1177.06 316.958C1181.3 316.958 1184.77 313.484 1184.77 309.237C1184.77 304.991 1181.3 301.517 1177.06 301.517C1172.62 301.517 1169.35 304.991 1169.35 309.237Z"
        fill="#4E575E" />
    <path
        d="M1143.91 222.295C1145.72 216.466 1148.85 212.247 1152.26 208.948C1158.84 202.225 1168.11 198.295 1178.04 198.407C1188.16 198.46 1197.22 202.891 1203.63 209.778C1207.1 213.135 1209.89 217.518 1211.55 223.469C1212.65 226.967 1213.25 230.824 1213.3 234.854C1213.36 235.038 1213.18 235.096 1213.23 235.28C1213.53 267.153 1180.27 297.039 1176.61 296.975C1173.14 296.854 1140.65 266.01 1141.81 234.285L1141.88 233.859C1141.96 229.587 1142.63 225.936 1143.91 222.295ZM1177.38 249.798C1186.1 249.888 1193.23 242.991 1193.32 234.263C1193.41 225.535 1186.59 218.579 1177.87 218.489C1169.16 218.399 1162.21 225.238 1162.12 233.966C1161.78 242.568 1168.67 249.708 1177.38 249.798Z"
        fill="#F6511D" />
</svg>