<svg width="1392" height="688" viewBox="0 0 1392 688" fill="none" xmlns="http://www.w3.org/2000/svg">
    <path
        d="M1063.53 593.588C1063.53 593.588 1135.74 451.494 1174 450.903C1225.84 450.116 1102.24 575.875 1102.24 575.875C1102.24 575.875 1196.41 476.685 1231.5 497.153C1265.23 516.833 1139.82 578.434 1139.82 578.434C1139.82 578.434 1240.33 535.924 1253.69 561.508C1263.42 580.599 1188.71 589.061 1142.76 593.588C1142.76 593.588 1241.69 584.732 1235.12 605.593C1231.5 617.205 1156.57 612.678 1156.57 612.678C1156.57 612.678 1202.52 616.024 1207.28 625.274H1063.75V593.588H1063.53Z"
        fill="#98CE00" />
    <path
        d="M818.05 625.8C818.05 625.8 798.214 610.635 768.855 610.236C768.855 610.236 851.177 601.257 849.987 584.496C848.797 567.934 797.817 575.716 765.086 598.064C765.086 598.064 802.181 570.328 795.436 557.957C788.89 545.785 736.125 571.725 727 626L818.05 625.8Z"
        fill="#98CE00" />
    <path
        d="M709 604.74C709 604.74 666.659 509.399 644.228 509.002C613.833 508.474 686.303 592.855 686.303 592.855C686.303 592.855 631.088 526.301 610.514 540.035C590.738 553.24 664.27 594.572 664.27 594.572C664.27 594.572 605.338 566.049 597.507 583.215C591.8 596.024 635.6 601.703 662.545 604.74C662.545 604.74 604.542 598.797 608.391 612.795C610.515 620.586 654.448 617.549 654.448 617.549C654.448 617.549 627.504 619.794 624.717 626H727.5L734.5 606.5L709 604.74Z"
        fill="#98CE00" />
    <path
        d="M836.112 414.728C836.112 403.259 831.636 393.898 826.239 393.766C826.107 393.766 825.975 393.766 825.844 393.766C821.499 394.162 787.667 396.667 759.495 396.667C719.343 396.667 687.616 393.635 687.616 393.635C677.085 417.233 687.616 435.559 687.616 435.559H826.37C831.636 435.559 836.112 426.198 836.112 414.728Z"
        fill="#1373CC" />
    <path
        d="M687.749 435.691C693.275 435.691 697.754 426.306 697.754 414.729C697.754 403.152 693.275 393.767 687.749 393.767C682.224 393.767 677.744 403.152 677.744 414.729C677.744 426.306 682.224 435.691 687.749 435.691Z"
        fill="#4E575E" />
    <path
        d="M690.645 397.722C685.643 395.085 680.377 401.15 680.377 414.465C680.377 427.781 683.931 432.659 686.959 432.659C695.779 432.659 696.964 402.204 688.671 401.545C680.377 400.754 681.43 426.594 687.091 426.594C692.225 426.594 692.488 404.445 687.749 406.291C684.721 407.478 684.326 420.002 687.354 420.266C688.144 420.266 689.329 418.157 689.197 414.861"
        stroke="white" stroke-width="0.25" stroke-miterlimit="10" stroke-linecap="round" />
    <path
        d="M730.27 435.691C730.27 435.691 733.43 430.022 733.43 415.256C733.43 400.622 727.901 395.48 727.901 395.48H721.318C721.318 395.48 727.242 400.622 727.242 415.256C727.242 429.89 723.82 435.691 723.82 435.691H730.27Z"
        fill="#F6511D" />
    <path
        d="M791.091 435.691C791.091 435.691 794.25 430.022 794.25 415.256C794.25 400.622 788.721 395.48 788.721 395.48H782.139C782.139 395.48 788.063 400.622 788.063 415.256C788.063 429.89 784.64 435.691 784.64 435.691H791.091Z"
        fill="#F6511D" />
    <path
        d="M786.881 607.08H688.937C683.802 607.08 679.59 602.861 679.59 597.719V445.052C679.59 439.91 683.802 435.691 688.937 435.691H786.881C792.015 435.691 796.227 439.91 796.227 445.052V597.719C796.227 602.861 792.015 607.08 786.881 607.08Z"
        fill="#FF7D00" />
    <path opacity="0.5"
        d="M786.881 607.08H688.937C683.802 607.08 679.59 602.861 679.59 597.719V445.052C679.59 439.91 683.802 435.691 688.937 435.691H786.881C792.015 435.691 796.227 439.91 796.227 445.052V597.719C796.227 602.861 792.015 607.08 786.881 607.08Z"
        fill="#FF7D00" />
    <path
        d="M705.655 607.08C700.521 607.08 696.309 602.861 696.309 597.719V445.052C696.309 439.91 700.521 435.691 705.655 435.691"
        stroke="#4E575E" stroke-width="0.5" stroke-miterlimit="10" stroke-linecap="round" />
    <path
        d="M819.135 607.08H721.191C716.056 607.08 711.844 602.861 711.844 597.719V445.052C711.844 439.91 716.056 435.691 721.191 435.691H819.135C824.269 435.691 828.481 439.91 828.481 445.052V597.719C828.481 602.861 824.269 607.08 819.135 607.08Z"
        fill="#FF9733" />
    <path
        d="M696.305 610.639C695.91 610.639 695.515 610.639 695.251 610.771V607.08H688.801V618.154C688.801 622.241 692.092 625.537 696.173 625.537C700.254 625.537 703.545 622.241 703.545 618.154C703.545 614.067 700.386 610.639 696.305 610.639Z"
        fill="#4E575E" />
    <path
        d="M732.903 610.639C732.508 610.639 732.114 610.639 731.85 610.771V607.08H725.531V618.154C725.531 622.241 728.822 625.537 732.903 625.537C736.984 625.537 740.276 622.241 740.276 618.154C740.276 614.067 737.116 610.639 732.903 610.639Z"
        fill="#4E575E" />
    <path
        d="M782.796 610.639C782.401 610.639 782.006 610.639 781.743 610.771V607.08H775.424V618.154C775.424 622.241 778.715 625.537 782.796 625.537C786.877 625.537 790.168 622.241 790.168 618.154C790.168 614.067 786.877 610.639 782.796 610.639Z"
        fill="#4E575E" />
    <path
        d="M819.524 610.639C819.13 610.639 818.735 610.639 818.471 610.771V607.08H812.152V618.154C812.152 622.241 815.443 625.537 819.524 625.537C823.605 625.537 826.897 622.241 826.897 618.154C826.897 614.067 823.605 610.639 819.524 610.639Z"
        fill="#4E575E" />
    <path
        d="M730.928 592.05H722.766C721.186 592.05 719.738 590.731 719.738 589.018V456.257C719.738 454.675 721.055 453.225 722.766 453.225H730.928C732.508 453.225 733.956 454.543 733.956 456.257V589.149C733.956 590.731 732.64 592.05 730.928 592.05Z"
        stroke="#4E575E" stroke-width="0.5" stroke-miterlimit="10" stroke-linecap="round" />
    <path
        d="M759.889 592.05H751.727C750.147 592.05 748.699 590.731 748.699 589.018V456.257C748.699 454.675 750.016 453.225 751.727 453.225H759.889C761.469 453.225 762.917 454.543 762.917 456.257V589.149C762.785 590.731 761.469 592.05 759.889 592.05Z"
        stroke="#4E575E" stroke-width="0.5" stroke-miterlimit="10" stroke-linecap="round" />
    <path
        d="M788.721 592.05H780.559C778.979 592.05 777.531 590.731 777.531 589.018V456.257C777.531 454.675 778.848 453.225 780.559 453.225H788.721C790.301 453.225 791.749 454.543 791.749 456.257V589.149C791.617 590.731 790.301 592.05 788.721 592.05Z"
        stroke="#4E575E" stroke-width="0.5" stroke-miterlimit="10" stroke-linecap="round" />
    <path
        d="M817.549 592.05H809.387C807.807 592.05 806.359 590.731 806.359 589.018V456.257C806.359 454.675 807.676 453.225 809.387 453.225H817.549C819.129 453.225 820.577 454.543 820.577 456.257V589.149C820.577 590.731 819.261 592.05 817.549 592.05Z"
        stroke="#4E575E" stroke-width="0.5" stroke-miterlimit="10" stroke-linecap="round" />
    <path d="M743.434 345.514H739.748V442.415H743.434V345.514Z" fill="#4E575E" />
    <path d="M800.567 345.514H796.881V442.415H800.567V345.514Z" fill="#4E575E" />
    <path d="M741.594 349.733V338.659H798.728V349.733" stroke="#FF7D00" stroke-width="5"
        stroke-miterlimit="10" stroke-linejoin="round" />
    <path
        d="M1103.42 625.779H941.797C936.591 625.779 932.354 621.536 932.354 616.322V497.866C932.354 492.653 936.591 488.409 941.797 488.409H1103.54C1108.75 488.409 1112.99 492.653 1112.99 497.866V616.322C1112.87 621.536 1108.63 625.779 1103.42 625.779Z"
        fill="#FF7D00" />
    <path
        d="M955.357 625.779C950.151 625.779 945.914 621.536 945.914 616.322V497.866C945.914 492.653 950.151 488.409 955.357 488.409"
        stroke="white" stroke-width="0.5" stroke-miterlimit="10" stroke-linecap="round" />
    <path
        d="M1133.32 625.779H971.578C966.372 625.779 962.135 621.536 962.135 616.322V497.866C962.135 492.653 966.372 488.409 971.578 488.409H1133.32C1138.53 488.409 1142.77 492.653 1142.77 497.866V616.322C1142.77 621.536 1138.53 625.779 1133.32 625.779Z"
        fill="#F6511D" />
    <path
        d="M1133.32 625.779H971.578C966.372 625.779 962.135 621.536 962.135 616.322V497.866C962.135 492.653 966.372 488.409 971.578 488.409H1133.32C1138.53 488.409 1142.77 492.653 1142.77 497.866V616.322C1142.77 621.536 1138.53 625.779 1133.32 625.779Z"
        fill="#FF9733" />
    <path
        d="M971.579 619.717C969.763 619.717 968.189 618.141 968.189 616.322V497.866C968.189 496.048 969.763 494.471 971.579 494.471H1133.33C1135.14 494.471 1136.72 496.048 1136.72 497.866V616.322C1136.72 618.141 1135.14 619.717 1133.33 619.717H971.579Z"
        stroke="#4E575E" stroke-width="0.75" stroke-linecap="round" stroke-linejoin="round"
        stroke-dasharray="5 5" />
    <path
        d="M954.024 498.23L952.087 497.623C951.119 497.381 950.634 496.29 950.998 495.32L953.782 489.136C954.145 488.409 954.993 488.045 955.719 488.166C956.567 488.409 957.051 489.136 956.93 489.985L956.082 496.775C955.961 497.866 954.993 498.472 954.024 498.23Z"
        fill="white" />
    <path opacity="0.5"
        d="M1113.96 578.615L1075.82 594.619L1075.09 592.679C1076.06 592.316 1076.55 591.224 1076.06 590.254C1075.7 589.284 1074.61 588.799 1073.64 589.284L1072.79 587.223C1073.76 586.86 1074.25 585.768 1073.76 584.798C1073.4 583.828 1072.31 583.343 1071.34 583.828L1070.49 581.767C1071.46 581.404 1071.95 580.312 1071.46 579.342C1071.1 578.372 1070.01 577.887 1069.04 578.372L1068.19 576.311C1069.16 575.948 1069.65 574.856 1069.16 573.886C1068.8 572.916 1067.71 572.431 1066.74 572.916L1066.01 570.977L1104.15 554.972L1104.88 556.912C1103.91 557.276 1103.42 558.367 1103.91 559.337C1104.27 560.307 1105.36 560.792 1106.33 560.307L1107.18 562.368C1106.21 562.732 1105.72 563.823 1106.21 564.793C1106.57 565.763 1107.66 566.248 1108.63 565.763L1109.48 567.824C1108.51 568.188 1108.02 569.279 1108.51 570.249C1108.87 571.219 1109.96 571.704 1110.93 571.219L1111.78 573.28C1110.81 573.644 1110.32 574.735 1110.81 575.705C1111.17 576.675 1112.26 577.16 1113.23 576.675L1113.96 578.615Z"
        fill="white" />
    <path d="M1109.63 577.986L1101.37 558.187L1070.31 571.187L1078.58 590.987L1109.63 577.986Z"
        stroke="#4E575E" stroke-width="0.25" stroke-miterlimit="10" stroke-linecap="round"
        stroke-linejoin="round" />
    <path opacity="0.5"
        d="M1021.46 540.423L1017.95 543.211L1020.49 546.849L1016.25 548.425L1017.46 552.668L1013.1 552.79L1012.98 557.155L1008.75 555.942L1007.17 560.186L1003.54 557.639L1000.88 561.156L998.092 557.639L994.46 560.186L992.886 555.942L988.649 557.155L988.528 552.79L984.169 552.668L985.38 548.425L981.142 546.849L983.685 543.211L980.174 540.423L983.685 537.755L981.142 534.118L985.38 532.542L984.169 528.298L988.528 528.177L988.649 523.691L992.886 524.903L994.46 520.781L998.092 523.327L1000.88 519.811L1003.54 523.327L1007.17 520.781L1008.75 524.903L1012.98 523.691L1013.1 528.177L1017.46 528.298L1016.25 532.542L1020.49 534.118L1017.95 537.755L1021.46 540.423Z"
        fill="white" />
    <path d="M1089.5 536.543L1064.2 532.178L1065.77 522.964L1091.07 527.329L1089.5 536.543Z"
        fill="#FF7D00" />
    <path
        d="M792.122 319.091C792.122 319.091 784.856 319.796 783.098 313.692C783.098 313.692 787.2 312.636 790.716 316.04C790.716 316.04 788.84 312.988 789.309 310.523C789.309 310.523 793.06 311.814 793.528 317.096L792.122 319.091Z"
        fill="#4E575E" />
    <path
        d="M883.889 370.148C883.889 370.148 904.282 376.252 907.563 378.482C910.962 380.712 917.642 411.58 916.939 420.383C916.236 429.069 892.093 436.932 892.093 436.932L883.889 370.148Z"
        fill="#FF7D00" />
    <path
        d="M916.47 260.758L919.868 247.495C919.868 247.495 900.648 249.843 897.835 249.373C895.022 248.786 893.029 248.786 891.506 249.021C889.982 249.256 888.107 250.899 889.396 252.307C890.686 253.598 898.186 254.89 898.655 255.594C899.124 256.298 902.288 261.58 902.288 261.58L899.358 301.721L876.973 289.279L872.988 317.096C872.988 317.096 908.969 333.646 917.056 326.134C925.494 318.153 916.47 260.758 916.47 260.758Z"
        fill="#FFE5CC" />
    <path d="M854.004 560.29L856.114 600.665L881.898 599.257L886.234 560.29H854.004Z" fill="#FFE5CC" />
    <path
        d="M854.004 593.623C854.004 593.623 869.943 583.412 890.922 583.998L882.836 605.008C882.836 605.008 895.259 601.839 905.807 601.369C922.215 600.665 916.355 625.665 916.355 625.665H851.309C851.309 625.665 849.785 617.919 854.707 608.177C854.707 603.482 854.004 596.205 854.004 593.623Z"
        fill="#1373CC" />
    <path
        d="M917.174 620.501C916.939 623.553 916.353 625.666 916.353 625.666H851.307C851.307 625.666 850.721 622.966 851.307 618.741C854.589 618.976 864.317 619.68 868.77 622.379L917.174 620.501Z"
        fill="#4E575E" />
    <path
        d="M879.434 605.947C879.434 605.947 870.995 600.431 874.042 596.44C877.324 592.097 881.895 598.201 881.543 605.243C881.543 605.243 882.012 592.684 886.817 592.684C892.56 592.684 883.77 605.36 883.77 605.36C883.77 605.36 885.762 602.426 891.036 600.666C896.31 598.788 900.295 605.712 903.811 606.651"
        stroke="#4E575E" stroke-width="0.5" stroke-miterlimit="10" stroke-linecap="round"
        stroke-linejoin="round" />
    <path d="M763.876 531.416L739.146 563.928L760.008 579.538L788.722 552.426L763.876 531.416Z"
        fill="#FFE5CC" />
    <path
        d="M739.731 561.58C739.731 561.58 762.117 560.994 774.423 576.017L755.436 584.116L760.007 600.782C760.007 600.782 771.961 599.491 777.47 607.12C783.564 615.571 774.423 625.665 774.423 625.665H745.591L713.596 583.059C713.596 583.059 722.269 570.97 731.645 569.796L739.731 561.58Z"
        fill="#1373CC" />
    <path
        d="M754.85 583.881C754.85 583.881 768.914 583.764 768.211 589.163C767.39 594.562 754.85 585.172 754.85 585.172C754.85 585.172 764.695 593.505 762.468 595.735C759.89 598.318 754.264 587.52 754.264 587.52C754.264 587.52 755.788 590.454 755.67 596.44C755.553 602.426 751.334 609.233 751.334 609.233"
        stroke="#4E575E" stroke-width="0.5" stroke-miterlimit="10" stroke-linecap="round"
        stroke-linejoin="round" />
    <path
        d="M886.114 364.397C886.114 364.397 891.74 379.068 896.545 416.862C900.764 449.843 900.764 522.613 893.615 551.017C892.56 555.125 890.333 557.59 888.575 558.646C887.872 562.285 885.528 573.2 885.528 573.2L853.181 568.27C853.181 568.27 852.478 562.167 852.243 559.116C840.758 546.909 852.009 504.186 853.884 485.054C847.672 447.73 850.72 367.331 850.72 367.331L886.114 364.397Z"
        fill="#46A6FF" />
    <path
        d="M865.957 413.34L860.448 421.322C860.448 421.322 859.394 461.932 853.416 481.533C851.307 467.096 850.486 447.378 850.135 428.481C852.83 422.495 854.94 417.801 854.94 417.801L865.957 413.34Z"
        fill="#4E575E" />
    <path
        d="M820.601 368.505C820.601 368.505 812.983 376.603 811.108 385.171C808.178 398.317 811.108 414.631 811.108 414.631L805.599 464.632C805.599 464.632 778.526 492.801 767.275 510.172C758.485 523.787 762.47 530.007 762.47 530.007L752.508 543.74L780.519 561.58L788.488 556.298C788.488 556.298 794.817 556.181 800.325 551.838C805.834 547.496 843.221 499.608 850.956 476.486C859.746 450.312 858.574 366.04 858.574 366.04L820.601 368.505Z"
        fill="#46A6FF" />
    <path
        d="M863.613 281.65C863.613 281.65 877.326 287.284 880.139 292.918C884.358 301.134 878.146 322.143 879.318 331.768C880.49 341.392 887.757 364.984 886.585 366.157C885.413 367.331 858.925 377.542 820.366 368.74C820.366 368.74 822.007 355.829 821.773 348.317C820.015 337.167 809.936 302.19 808.764 290.336C814.624 285.054 841.111 277.659 841.111 277.659L863.613 281.65Z"
        fill="#98CE00" />
    <mask id="mask0_1907_5922" style="mask-type:luminance" maskUnits="userSpaceOnUse" x="808"
        y="277" width="79" height="96">
        <path
            d="M863.615 281.65C863.615 281.65 877.328 287.284 880.141 292.917C884.36 301.133 878.148 322.143 879.32 331.767C880.492 341.392 887.759 364.983 886.587 366.157C885.415 367.331 858.927 377.542 820.368 368.739C820.368 368.739 822.009 355.828 821.775 348.317C820.017 337.166 809.938 302.19 808.766 290.335C814.626 285.054 841.113 277.659 841.113 277.659L863.615 281.65Z"
            fill="white" />
    </mask>
    <g mask="url(#mask0_1907_5922)">
        <path
            d="M793.414 292.918C793.414 292.918 808.767 307.941 830.801 301.251C855.999 293.622 847.209 265.218 847.209 265.218"
            stroke="#EFCA08" stroke-width="2" stroke-miterlimit="10" />
        <path
            d="M810.76 338.927C810.76 338.927 822.245 321.556 842.521 324.842C862.914 328.129 857.991 357.824 845.334 354.185C831.27 350.077 845.451 329.185 865.492 337.988C885.533 346.791 879.205 374.138 879.205 374.138"
            stroke="#EFCA08" stroke-width="2" stroke-miterlimit="10" />
        <path
            d="M876.394 278.833C876.394 278.833 861.627 288.575 865.026 303.012C868.776 319.092 894.326 318.153 894.326 318.153"
            stroke="#EFCA08" stroke-width="2" stroke-miterlimit="10" />
    </g>
    <path
        d="M823.531 309.115C823.531 309.115 820.952 319.678 817.553 329.185C815.209 320.031 812.631 309.585 810.873 301.251L823.531 309.115Z"
        fill="#4E575E" />
    <path
        d="M836.425 238.106C836.425 238.106 833.378 242.683 830.799 249.139C827.986 256.181 827.283 261.463 834.081 262.167C842.871 262.402 850.254 257.355 850.254 257.355L856.232 240.571"
        fill="#F6511D" />
    <path
        d="M839.001 237.754C839.001 237.754 827.046 253.833 830.679 260.172C833.141 264.632 849.197 261.228 853.534 259.115C859.394 256.298 862.558 246.322 862.558 246.322"
        fill="#4E575E" />
    <path
        d="M861.269 269.209C861.269 269.209 867.364 270.617 871.466 268.387C877.326 265.101 883.42 231.298 870.411 224.608C857.401 218.035 837.829 224.608 840.173 241.744C840.759 246.204 843.572 259.35 843.572 259.35L841.228 277.66C841.228 277.66 847.791 284.115 863.613 281.768L861.269 269.209Z"
        fill="#FFE5CC" />
    <path
        d="M777 621.853C775.605 624.341 774.21 626 774.21 626H745.616L714 582.991C714 582.991 716.79 579.081 720.277 576C720.277 576 724.229 582.398 726.321 590.573L747.708 621.853H777Z"
        fill="#4E575E" />
    <path
        d="M836.538 410.524C836.538 410.524 831.967 461.697 829.037 471.087C824.818 484.585 774.305 541.04 774.305 541.04"
        stroke="#4E575E" stroke-width="0.5" stroke-miterlimit="10" stroke-linecap="round"
        stroke-linejoin="round" />
    <path d="M763.291 531.416C763.291 531.416 772.55 543.153 787.669 554.538" stroke="#4E575E"
        stroke-width="0.5" stroke-miterlimit="10" stroke-linecap="round" stroke-linejoin="round" />
    <path d="M853.301 559.116C853.301 559.116 874.162 561.699 886.703 559.116" stroke="#4E575E"
        stroke-width="0.5" stroke-miterlimit="10" stroke-linecap="round" stroke-linejoin="round" />
    <path
        d="M829.273 386.345L804.309 341.509C804.309 341.509 818.842 318.739 822.475 311.58C828.687 299.608 819.194 285.406 808.88 290.218C808.88 290.218 805.013 293.387 798.449 304.655C790.831 317.8 778.76 342.683 780.987 346.908C784.503 353.833 818.491 393.857 818.491 393.857C818.373 399.256 822.124 406.768 822.124 406.768L836.071 389.983C834.195 388.458 829.273 386.345 829.273 386.345Z"
        fill="#FFE5CC" />
    <path d="M837.123 387.519L819.191 408.645L822.707 412.049L839.936 389.514L837.123 387.519Z"
        fill="#4E575E" />
    <path
        d="M852.595 235.171C852.595 235.171 865.487 229.068 876.152 232.941C876.152 232.941 877.559 236.697 877.793 239.984C877.793 239.984 887.169 232.941 885.294 228.951C884.005 226.134 880.489 227.308 880.489 227.308C880.489 227.308 887.872 217.566 882.247 212.871C876.855 208.528 868.886 215.453 868.886 215.453C868.886 215.453 854.236 214.514 844.274 219.209C834.429 223.786 837.711 239.162 837.711 239.162L842.047 248.552L848.493 246.909L848.141 244.326C848.376 244.326 853.298 242.566 852.595 235.171Z"
        fill="#4E575E" />
    <path
        d="M869.121 215.57C869.121 215.57 853.651 217.213 837.126 240.57C837.126 240.57 821.89 227.307 837.477 212.049C843.337 206.298 858.69 201.133 869.121 215.57Z"
        fill="#F6511D" />
    <path
        d="M847.203 245.031C846.5 243.035 843.921 237.754 838.999 240.336C833.256 243.387 838.765 255.946 844.273 255.242C849.664 254.538 848.023 247.495 847.203 245.031Z"
        fill="#FFE5CC" />
    <path
        d="M856.231 214.279C855.996 214.396 855.762 214.514 855.645 214.631C853.418 215.922 852.715 218.857 854.238 220.969C854.238 220.969 859.512 217.096 863.849 215.922C861.974 213.692 858.809 212.871 856.231 214.279Z"
        fill="#4E575E" />
    <path
        d="M861.269 269.209C861.269 269.209 853.768 267.214 849.783 261.11C849.783 261.11 850.955 271.556 862.324 274.725L861.269 269.209Z"
        fill="#4E575E" />
    <path d="M899.477 301.603L905.923 305.359L899.711 297.378L899.477 301.603Z" fill="#FEE5DD" />
    <path
        d="M821.188 284.115C821.188 284.115 873.107 308.528 897.485 385.876L904.868 383.528C904.868 383.528 886.82 316.744 831.501 278.951L821.188 284.115Z"
        fill="#F6511D" />
    <path d="M895.844 384.702L905.454 382.002L907.447 388.34L897.953 391.157L895.844 384.702Z"
        fill="#4E575E" />
    <path
        d="M901.821 428.833C900.649 419.209 897.484 401.251 896.43 395.5L910.494 391.04C910.494 391.04 913.775 408.293 914.479 415.453C915.533 424.373 904.985 427.894 901.821 428.833Z"
        stroke="#4E575E" stroke-width="0.25" stroke-miterlimit="10" stroke-linecap="round"
        stroke-linejoin="round" stroke-dasharray="2 2" />
    <path
        d="M789.543 321.557C789.543 321.557 799.036 329.89 809.233 333.528L813.803 326.134C813.803 326.134 802.201 318.505 793.997 312.636L789.543 321.557Z"
        fill="#F6511D" />
    <path
        d="M927.366 226.134C927.132 226.134 926.897 226.251 926.663 226.251L887.284 235.406C884.94 235.758 883.533 239.162 884.002 243.035C884.471 247.026 886.815 249.96 889.159 249.608L929.476 248.552C929.71 248.552 929.944 248.552 930.179 248.552C933.812 248.082 936.156 242.683 935.336 236.462C934.632 230.359 930.999 225.664 927.366 226.134Z"
        fill="#F6511D" />
    <path
        d="M934.166 236.697C934.869 241.979 932.877 246.439 929.712 246.908C926.548 247.26 923.501 243.387 922.797 238.105C922.094 232.824 924.087 228.364 927.251 227.894C930.415 227.542 933.58 231.533 934.166 236.697Z"
        fill="#46A6FF" />
    <path
        d="M908.497 228.598C908.262 228.598 908.028 228.716 907.794 228.716L868.532 237.753C866.188 238.105 864.781 241.509 865.25 245.382C865.719 249.373 868.063 252.307 870.407 251.955L910.724 250.899C910.958 250.899 911.192 250.899 911.427 250.899C915.06 250.429 917.404 245.03 916.584 238.81C915.763 232.589 912.13 228.129 908.497 228.598Z"
        fill="#F6511D" />
    <path
        d="M915.414 239.162C916.117 244.444 914.125 248.904 910.96 249.373C907.796 249.725 904.749 245.852 904.045 240.57C903.342 235.289 905.335 230.829 908.499 230.359C911.663 230.007 914.711 233.88 915.414 239.162Z"
        fill="#46A6FF" />
    <path
        d="M877.557 244.444C877.557 244.444 879.783 251.955 879.783 279.185C879.783 291.275 876.15 313.458 891.738 312.049C908.029 310.524 912.717 273.904 908.497 251.251L906.036 251.368C906.036 251.368 908.732 264.045 907.091 277.19C905.567 290.336 904.513 309.702 891.855 311.11C879.783 312.519 882.948 286.11 883.182 279.42C883.417 270.383 883.885 251.603 882.01 243.739L877.557 244.444Z"
        fill="#4E575E" />
    <path d="M868.768 239.044L903.224 232.237" stroke="#4E575E" stroke-width="0.5"
        stroke-miterlimit="10" stroke-linecap="round" stroke-linejoin="round" />
    <path
        d="M1026.31 367.626C1021.84 373.678 1010.96 385.176 1010.96 385.176C1008.9 386.024 981.225 357.58 982.072 356.611C982.072 353.101 980.259 349.47 979.05 345.96C978.083 343.297 977.479 338.819 976.028 336.882C975.062 335.672 972.886 335.551 972.04 339.545C971.677 341.36 972.161 344.628 971.919 345.597C971.677 346.565 970.227 344.628 968.172 342.208C966.118 339.787 959.349 331.072 958.02 330.225C955.844 328.772 953.79 332.161 957.295 337.003C959.47 340.029 962.129 343.055 963.459 344.992C960.196 344.628 959.833 347.654 959.712 347.896C958.383 348.018 957.657 348.623 957.174 348.986C956.691 349.47 956.207 350.559 956.932 351.528C954.757 352.98 955.603 355.28 955.965 356.006C956.328 356.732 958.987 359.153 960.921 358.79C963.942 364.237 965.393 365.447 970.106 366.657C971.677 367.021 981.83 390.744 1004.07 408.658C1005.88 410.11 1009.87 413.862 1013.98 412.41C1024.25 408.9 1047.58 386.024 1047.58 386.024C1040.09 379.124 1031.02 371.378 1026.31 367.626Z"
        fill="#FFE5CC" />
    <path
        d="M964.304 348.623C965.029 349.712 966.359 351.286 966.6 352.738C966.721 353.706 965.875 354.675 964.908 354.433C963.7 354.191 962.491 352.738 961.645 352.012C960.678 351.044 959.711 349.954 959.47 348.623C959.47 350.075 960.436 351.286 961.282 352.375C962.008 353.222 963.216 354.433 964.304 355.038C964.425 355.885 964.546 357.943 962.37 357.095C959.711 356.127 956.811 352.012 956.811 352.012C957.052 352.738 958.865 355.401 960.92 356.853C961.162 357.217 961.403 358.185 960.678 358.79C960.678 358.79 961.524 358.548 961.524 357.217C962.008 357.459 962.491 357.701 962.975 357.701C965.15 357.943 965.029 356.006 964.908 355.159C965.633 355.28 966.238 355.159 966.721 354.312C968.051 352.254 965.633 349.954 964.304 348.623Z"
        fill="#FEE5DD" />
    <path
        d="M1067.88 351.528C1067.88 351.528 1049.51 346.686 1045.4 347.776C1041.78 348.623 1030.54 361.695 1019.54 374.525C1022.44 378.035 1033.32 389.534 1039.6 395.586L1067.88 351.528Z"
        fill="#1373CC" />
    <path
        d="M1032.47 449.327C1064.86 461.189 1099.55 446.059 1099.55 446.059C1099.55 446.059 1094.11 434.076 1093.63 432.139C1093.27 430.687 1095.56 392.56 1095.56 392.56C1095.56 392.56 1087.34 369.442 1080.7 363.995C1074.05 358.548 1058.22 357.58 1058.22 357.58C1058.22 357.58 1039 375.372 1036.7 381.424C1034.53 387.476 1034.77 395.465 1033.44 412.41C1031.63 435.044 1032.47 449.327 1032.47 449.327Z"
        fill="#1373CC" />
    <path d="M1082.51 385.055L1087.95 414.226L1100.28 413.499L1099.55 401.153L1082.51 385.055Z"
        fill="#4E575E" />
    <path
        d="M1042.38 356.248L1010.24 376.946L974.46 375.251L946.541 391.471L978.207 456.347L1001.77 439.402L1033.92 439.886L1064.14 419.43L1042.38 356.248Z"
        fill="white" stroke="#4E575E" stroke-width="0.5" stroke-miterlimit="10"
        stroke-linecap="round" stroke-linejoin="round" />
    <path opacity="0.3"
        d="M951.254 392.923L976.031 378.762L1011.56 380.698L1040.45 361.816L1059.79 417.978L1032.59 436.255L1000.32 435.892L979.536 450.901L951.254 392.923Z"
        fill="#46A6FF" />
    <path d="M974.459 375.251L1001.77 439.402" stroke="#4E575E" stroke-width="0.5"
        stroke-miterlimit="10" stroke-linecap="round" stroke-linejoin="round" />
    <path d="M1010.23 376.946L1033.92 439.886" stroke="#4E575E" stroke-width="0.5"
        stroke-miterlimit="10" stroke-linecap="round" stroke-linejoin="round" />
    <path
        d="M1117.2 397.885C1106.68 400.427 1098.1 400.911 1091.21 400.79C1091.21 400.79 1094.23 407.81 1095.08 410.473C1090.73 409.021 1075.02 401.879 1065.71 397.522C1065.59 396.069 1065.71 394.254 1058.7 389.533C1054.59 386.75 1054.47 383.239 1052.29 383.966C1050.6 384.571 1051.09 387.476 1052.29 389.654C1052.54 390.018 1052.78 390.381 1053.02 390.623C1050.6 390.26 1046.49 389.049 1046.49 389.049C1046.49 389.049 1041.78 387.234 1039.24 386.628C1037.31 386.144 1035.62 387.113 1035.74 388.202C1033.8 387.355 1032.35 386.992 1030.9 387.355C1029.45 387.718 1029.09 389.17 1030.78 390.502C1031.51 390.986 1034.04 392.922 1035.13 393.649C1034.41 393.407 1033.8 393.044 1033.08 393.044C1030.42 392.68 1028.97 394.859 1031.99 396.675C1033.44 397.522 1034.77 398.248 1035.74 398.974C1035.49 398.974 1035.25 398.853 1035.13 398.853C1033.2 398.49 1030.78 400.185 1033.92 402.121C1036.95 403.937 1038.88 405.147 1040.57 405.874C1048.06 408.9 1055.56 410.836 1058.34 410.231C1073.69 421.003 1086.86 428.387 1101.73 435.77C1112.6 441.096 1121.55 436.98 1122.88 427.055C1123.48 423.061 1119.13 404.905 1117.2 397.885Z"
        fill="#FFE5CC" />
    <path
        d="M1050.6 395.586C1050.6 395.586 1045.4 394.254 1043.11 393.286C1042.38 392.923 1036.34 390.502 1035.49 389.292C1035.13 388.807 1035.13 388.323 1035.13 388.081C1035.37 388.202 1035.49 388.202 1035.73 388.323C1035.73 388.323 1035.73 388.686 1035.97 388.929C1036.58 389.655 1040.08 391.349 1043.47 392.802C1046.49 393.891 1050.6 395.586 1050.6 395.586Z"
        fill="#FEE5DD" />
    <path
        d="M1049.27 399.459C1048.54 399.338 1043.71 398.491 1041.78 397.765C1040.45 397.28 1036.94 395.344 1034.52 394.012C1033.8 393.528 1033.19 393.165 1032.83 392.923C1032.95 392.923 1033.07 392.923 1033.07 392.923C1033.68 393.044 1034.28 393.286 1035.01 393.528C1035.13 393.528 1035.13 393.649 1035.13 393.649C1035.13 393.649 1038.63 395.949 1042.02 397.28C1044.56 398.37 1048.54 399.338 1049.27 399.459Z"
        fill="#FEE5DD" />
    <path
        d="M1047.34 403.09C1046.61 402.969 1040.93 402.122 1039 401.154C1037.3 400.306 1034.89 399.217 1033.92 398.733C1034.28 398.612 1034.77 398.612 1035.13 398.733C1035.37 398.733 1035.49 398.854 1035.73 398.854C1035.73 398.854 1038.63 400.427 1040.81 401.154C1042.98 401.88 1046.73 402.969 1047.34 403.09Z"
        fill="#FEE5DD" />
    <path
        d="M1105.59 361.816C1103.9 358.79 1081.9 353.222 1081.9 353.222L1073.44 365.931L1081.9 383.24L1090.12 407.326C1092.9 406.963 1110.31 402.122 1118.65 399.096C1113.93 382.998 1107.16 364.721 1105.59 361.816Z"
        fill="#1373CC" />
    <path
        d="M1117.92 323.568C1111.76 343.418 1088.19 353.585 1065.22 346.565C1042.26 339.424 1028.6 317.637 1034.65 297.907C1040.81 278.057 1064.38 267.89 1087.34 274.91C1110.3 281.93 1124.08 303.838 1117.92 323.568Z"
        fill="#FF9733" />
    <path opacity="0.5"
        d="M1101 319.21C1097.49 330.588 1083.47 336.398 1069.69 332.161C1055.92 327.925 1047.7 315.216 1051.2 303.838C1054.71 292.461 1068.73 286.651 1082.51 290.887C1096.28 295.124 1104.5 307.833 1101 319.21Z"
        fill="#FF7D00" />
    <path
        d="M1100.63 348.259C1075.74 359.274 1053.62 346.444 1050.96 342.449C1053.86 337.366 1061.35 327.683 1059.06 323.446C1056.76 319.21 1050.84 318.726 1050.96 308.316C1050.96 307.59 1050.96 306.864 1051.08 306.138C1052.29 292.218 1064.25 298.512 1065.46 298.27L1090.36 299.239C1091.45 300.207 1092.78 301.417 1093.99 302.991C1097.13 306.985 1099.91 312.795 1098.34 320.42C1095.07 331.677 1096.4 342.57 1100.63 348.259Z"
        fill="#4E575E" />
    <path
        d="M1081.66 334.945C1090.24 324.899 1089.52 312.916 1089.52 312.916C1089.64 292.824 1062.08 292.945 1055.67 306.501C1051.44 315.337 1049.99 330.83 1052.17 336.639C1054.34 342.328 1059.3 345.475 1065.34 344.749L1063.41 350.196C1063.41 350.196 1060.87 349.712 1060.27 349.712C1057 355.279 1056.28 370.893 1067.88 370.288C1079.48 369.683 1083.83 353.706 1083.83 353.706L1079.73 352.496L1081.66 334.945Z"
        fill="#FFE5CC" />
    <path
        d="M1093.5 315.579C1090.72 327.319 1086.37 328.288 1086.37 328.288C1086.37 328.288 1086.01 325.625 1084.2 323.083C1081.66 319.452 1077.67 315.337 1078.64 311.705C1077.55 312.311 1075.98 312.916 1073.32 313.158C1065.95 313.642 1057.12 308.922 1053.38 312.19C1053.38 312.19 1051.93 312.19 1051.44 309.89C1051.44 309.89 1051.08 308.437 1050.96 306.138C1050.96 306.017 1050.96 305.775 1050.96 305.654C1050.96 302.143 1051.93 296.939 1056.52 292.581C1063.29 286.287 1079.36 287.256 1087.34 297.06C1087.34 297.06 1088.55 297.786 1090.24 299.238C1091.33 300.207 1092.66 301.417 1093.87 302.991C1094.83 305.896 1094.83 310.132 1093.5 315.579Z"
        fill="#4E575E" />
    <path
        d="M1083.35 322.236C1083.35 322.236 1088.55 318.484 1091.33 321.268C1095.08 325.141 1087.34 334.461 1083.47 332.888C1078.76 330.951 1083.35 322.236 1083.35 322.236Z"
        fill="#FFE5CC" />
    <path
        d="M1094.96 410.473C1094.96 410.473 1104.99 413.862 1109.34 416.283C1109.34 416.283 1102.57 409.384 1093.87 407.326L1094.96 410.473Z"
        fill="#4E575E" />
    <path
        d="M984.247 522.313L963.338 541.679C963.338 541.679 951.614 535.869 948.955 527.033C959.712 511.783 967.326 501.01 967.326 501.01"
        fill="#FFE5CC" />
    <path
        d="M909.915 522.555L946.536 557.777C947.865 558.987 949.92 558.987 951.129 557.777C954.15 554.872 958.985 552.33 961.644 546.762C962.852 544.342 963.336 543.252 963.215 541.679C963.215 541.679 959.347 539.5 958.139 537.2C956.93 534.78 958.018 531.027 958.139 530.543C958.259 530.059 963.94 526.186 963.456 523.039C961.039 516.987 951.854 511.298 950.766 510.693C947.382 515.656 944.965 518.197 942.668 519.287C936.746 517.108 930.703 513.84 920.43 511.298C916.683 510.33 912.574 510.935 908.343 516.382C907.497 517.834 908.585 521.344 909.915 522.555Z"
        fill="#98CE00" />
    <path
        d="M908.345 516.261C908.949 515.535 951.734 557.293 951.734 557.293C951.734 557.535 950.042 561.771 946.175 563.708C946.175 563.708 915.838 529.091 906.774 520.497C905.807 519.529 907.62 517.108 908.345 516.261Z"
        fill="#4E575E" />
    <path d="M943.756 519.65C943.756 519.65 949.074 524.007 949.92 530.422" stroke="white"
        stroke-width="0.75" stroke-miterlimit="10" stroke-linecap="round" />
    <path d="M943.756 528.727C942.064 522.312 937.955 518.197 937.955 518.197" stroke="white"
        stroke-width="0.75" stroke-miterlimit="10" stroke-linecap="round" />
    <path d="M931.188 515.534C931.188 515.534 935.539 518.076 938.077 526.67" stroke="white"
        stroke-width="0.75" stroke-miterlimit="10" stroke-linecap="round" />
    <path
        d="M1099.55 446.059C1099.55 446.059 1095.44 447.632 1091.82 448.843C1077.43 442.549 1041.78 421.609 1028.85 426.45C1012.77 432.502 963.943 504.883 963.943 504.883C967.569 513.114 981.227 524.613 989.929 525.944C989.929 525.944 1029.69 484.549 1037.06 472.808C1037.06 472.808 1054.59 486.607 1063.29 488.785H1101.61C1101.61 488.785 1114.78 469.903 1099.55 446.059Z"
        fill="#F6511D" />
    <path
        d="M1104.39 455.742C1099.55 453.079 1091.82 448.843 1091.82 448.843C1095.44 447.632 1099.55 446.059 1099.55 446.059C1101.73 449.448 1103.3 452.595 1104.39 455.742Z"
        fill="#4E575E" />
    <path
        d="M1063.42 488.785H1078.64C1078.64 488.785 1052.3 458.284 1030.9 469.177C1028.49 470.388 1025.46 473.05 1023.41 476.439C1017.49 485.759 1013.26 499.921 1012.05 502.463C1017.49 496.532 1023.05 490.359 1027.64 484.912V484.791L1044.92 473.535L1063.42 488.785Z"
        fill="#4E575E" />
    <path
        d="M1042.99 557.656L1052.17 586.342C1052.17 586.342 1065.95 587.068 1072.96 580.29C1071.03 560.682 1069.58 546.762 1069.58 546.762"
        fill="#FFE5CC" />
    <path
        d="M1079.85 605.224C1083.96 609.824 1085.17 616.36 1085.17 619.507L1047.82 625.437C1047.09 623.017 1044.8 616.481 1052.41 610.913L1051.69 586.947C1048.42 585.011 1045.64 580.895 1043.35 574.964L1067.4 568.428C1068.25 574.117 1069.7 578.838 1072.96 580.048C1072.96 580.048 1074.89 580.653 1075.62 584.405C1075.86 585.979 1075.86 590.578 1075.86 590.578L1079.85 605.224Z"
        fill="#98CE00" />
    <path
        d="M1086.98 625.316H1047.22C1046.85 624.832 1046.25 622.048 1046.98 620.596C1046.98 620.596 1057.49 620.838 1068.49 619.507C1080.7 618.054 1084.93 616.239 1084.93 616.239C1085.65 617.449 1087.58 621.201 1086.98 625.316Z"
        fill="#4E575E" />
    <path
        d="M1066.19 603.529C1056.04 606.797 1052.41 610.792 1052.41 610.792C1052.41 610.792 1052.41 609.944 1052.29 607.039C1059.67 603.529 1066.19 603.529 1066.19 603.529Z"
        fill="#FF7D00" />
    <path d="M1055.44 586.463C1058.94 587.794 1066.92 586.342 1069.33 583.8" stroke="white"
        stroke-width="0.75" stroke-miterlimit="10" stroke-linecap="round" />
    <path d="M1055.55 592.636C1060.51 594.209 1067.88 592.878 1070.78 589.61" stroke="white"
        stroke-width="0.75" stroke-miterlimit="10" stroke-linecap="round" />
    <path d="M1055.19 598.93C1059.42 601.108 1068.37 599.898 1072.84 595.783" stroke="white"
        stroke-width="0.75" stroke-miterlimit="10" stroke-linecap="round" />
    <path
        d="M1073.2 560.924C1062.21 564.313 1046.49 566.128 1042.99 566.492C1036.83 547.004 1021.48 497.5 1021.6 487.817C1021.84 473.776 1030.06 469.661 1035.37 468.208C1051.81 463.609 1063.9 482.249 1067.89 503.794C1070.79 520.013 1072.48 547.731 1073.2 560.924Z"
        fill="#F6511D" />
</svg>