<svg width="1392" height="688" viewBox="0 0 1392 688" fill="none" xmlns="http://www.w3.org/2000/svg">
    <path
        d="M1050.13 40C1037.61 40 1027.52 50.1003 1027.52 62.8127C1027.52 75.351 1037.61 85.4512 1050.13 85.4512C1062.65 85.4512 1072.91 75.351 1072.91 62.8127C1072.91 50.2744 1062.65 40 1050.13 40ZM1050.13 76.7441C1042.48 76.7441 1036.22 70.475 1036.22 62.8127C1036.22 54.9763 1042.48 48.7071 1050.13 48.7071C1057.95 48.7071 1064.21 54.9763 1064.21 62.8127C1064.21 70.475 1057.95 76.7441 1050.13 76.7441Z"
        fill="#F6511D" />
    <path
        d="M135.867 587.449C135.867 593.195 131.172 597.897 125.433 597.897C119.695 597.897 115 593.195 115 587.449C115 581.702 119.695 577 125.433 577C131.172 577 135.867 581.702 135.867 587.449Z"
        fill="#F6511D" />
    <path
        d="M479.65 450.836C479.65 455.19 476.172 458.673 471.825 458.673C467.478 458.673 464 455.19 464 450.836C464 446.483 467.478 443 471.825 443C475.998 443 479.65 446.483 479.65 450.836Z"
        fill="#46A6FF" />
    <path
        d="M1307.21 353.51C1307.21 357.864 1303.73 361.346 1299.39 361.346C1295.04 361.346 1291.56 357.864 1291.56 353.51C1291.56 349.156 1295.04 345.674 1299.39 345.674C1303.56 345.674 1307.21 349.156 1307.21 353.51Z"
        fill="#46A6FF" />
    <path
        d="M620.123 185.148C620.123 189.502 616.645 192.985 612.298 192.985C607.95 192.985 604.473 189.502 604.473 185.148C604.473 180.795 607.95 177.312 612.298 177.312C616.471 177.312 620.123 180.795 620.123 185.148Z"
        fill="#46A6FF" />
    <path
        d="M1283.13 566.196C1292.35 566.196 1299.82 558.711 1299.82 549.479C1299.82 540.246 1292.35 532.761 1283.13 532.761C1273.91 532.761 1266.44 540.246 1266.44 549.479C1266.44 558.711 1273.91 566.196 1283.13 566.196Z"
        fill="#FF7D00" />
    <path
        d="M699.176 85.4784C708.395 85.4784 715.869 77.9937 715.869 68.7607C715.869 59.5278 708.395 52.043 699.176 52.043C689.956 52.043 682.482 59.5278 682.482 68.7607C682.482 77.9937 689.956 85.4784 699.176 85.4784Z"
        fill="#FF7D00" />
    <path
        d="M348.652 502.286C337.001 502.286 327.438 511.864 327.438 523.532C327.438 535.199 337.001 544.777 348.652 544.777C360.303 544.777 369.866 535.199 369.866 523.532C369.866 511.69 360.476 502.286 348.652 502.286ZM348.652 541.643C338.566 541.643 330.567 533.458 330.567 523.532C330.567 513.432 338.74 505.421 348.652 505.421C358.564 505.421 366.736 513.606 366.736 523.532C366.91 533.458 358.738 541.643 348.652 541.643Z"
        fill="#F6511D" />
    <path
        d="M1227.55 411.816C1218.76 411.816 1211.55 419.044 1211.55 427.85C1211.55 436.656 1218.76 443.884 1227.55 443.884C1236.34 443.884 1243.55 436.656 1243.55 427.85C1243.55 418.913 1236.47 411.816 1227.55 411.816ZM1227.55 441.519C1219.95 441.519 1213.91 435.341 1213.91 427.85C1213.91 420.227 1220.08 414.181 1227.55 414.181C1235.03 414.181 1241.19 420.359 1241.19 427.85C1241.33 435.341 1235.16 441.519 1227.55 441.519Z"
        fill="#F6511D" />
    <path
        d="M423.77 72.3286C423.77 74.2441 422.205 75.8114 420.292 75.8114C418.379 75.8114 416.814 74.2441 416.814 72.3286C416.814 70.413 418.379 68.8457 420.292 68.8457C422.205 68.8457 423.77 70.413 423.77 72.3286Z"
        fill="#4E575E" />
    <path
        d="M861.459 180.795C861.459 182.71 859.894 184.278 857.982 184.278C856.069 184.278 854.504 182.71 854.504 180.795C854.504 178.879 856.069 177.312 857.982 177.312C859.894 177.312 861.459 178.879 861.459 180.795Z"
        fill="#4E575E" />
    <path
        d="M1333.56 512.213C1333.56 516.741 1329.91 520.224 1325.57 520.224C1321.04 520.224 1317.57 516.567 1317.57 512.213C1317.57 507.685 1321.22 504.202 1325.57 504.202C1329.91 504.202 1333.56 507.685 1333.56 512.213Z"
        fill="#46A6FF" />
    <path
        d="M374.439 182.316C374.439 186.844 370.787 190.327 366.44 190.327C361.919 190.327 358.441 186.67 358.441 182.316C358.441 177.788 362.093 174.306 366.44 174.306C370.787 174.306 374.439 177.788 374.439 182.316Z"
        fill="#F6511D" />
    <path
        d="M196.042 135.528C196.042 137.966 193.956 140.055 191.521 140.055C189.087 140.055 187 137.966 187 135.528C187 133.09 189.087 131 191.521 131C193.956 131 196.042 133.09 196.042 135.528Z"
        fill="#1890FF" />
    <path
        d="M466.2 99.8431C466.2 107.854 459.766 114.297 451.767 114.297C443.768 114.297 437.334 107.854 437.334 99.8431C437.334 91.8326 443.768 85.3893 451.767 85.3893C459.766 85.3893 466.2 91.8326 466.2 99.8431Z"
        fill="#46A6FF" />
    <path
        d="M310.295 66.4969C310.295 74.5074 303.861 80.9507 295.862 80.9507C287.864 80.9507 281.43 74.5074 281.43 66.4969C281.43 58.4863 287.864 52.043 295.862 52.043C303.861 52.043 310.295 58.4863 310.295 66.4969Z"
        fill="#1890FF" />
    <path
        d="M1019.17 190.095C1019.17 193.404 1016.56 196.19 1013.09 196.19C1009.78 196.19 1007 193.578 1007 190.095C1007 186.786 1009.61 184 1013.09 184C1016.56 184 1019.17 186.786 1019.17 190.095Z"
        fill="#46A6FF" />
    <path
        d="M95.825 296.673C100.147 296.673 103.65 293.164 103.65 288.836C103.65 284.508 100.147 281 95.825 281C91.5034 281 88 284.508 88 288.836C88 293.164 91.5034 296.673 95.825 296.673Z"
        fill="#4E575E" />
    <path d="M165 530.823L195.778 522.639L173.347 500L165 530.823Z" fill="#46A6FF" />
    <path d="M1303 96.9314L1321.43 101.111L1315.87 83L1303 96.9314Z" fill="#4E575E" />
    <path d="M1083.54 401.695L1101.97 405.875L1096.4 387.764L1083.54 401.695Z" fill="#4E575E" />
    <path d="M1263.55 350.755L1286.04 316.641L1245.19 314.231L1263.55 350.755Z" fill="#FF7D00" />
</svg>