<svg width="288" height="186" viewBox="0 0 288 186" fill="none" xmlns="http://www.w3.org/2000/svg">
<path d="M26.8445 158.833C-16.9907 126.368 -0.573037 67.4073 29.4166 52.8503C52.8392 41.4875 65.645 40.0213 77.8489 34.4184C112.545 20.7516 132.41 -3.54489 170.883 0.434719C234.747 7.03249 214.389 52.5361 256.364 84.373C267.966 93.7983 300.801 113.592 282.632 154.435C264.026 196.326 194.743 188.681 154.191 175.852C89.5054 153.335 84.3612 201.457 26.8445 158.833Z" fill="#1890FF"/>
<path d="M194.382 166.156C194.382 166.156 220.742 114.333 234.707 114.118C253.63 113.831 208.512 159.696 208.512 159.696C208.512 159.696 242.888 123.52 255.696 130.985C268.008 138.163 222.229 160.629 222.229 160.629C222.229 160.629 258.919 145.125 263.794 154.456C267.347 161.418 240.078 164.505 223.304 166.156C223.304 166.156 259.414 162.926 257.018 170.534C255.696 174.769 228.344 173.118 228.344 173.118C228.344 173.118 245.119 174.338 246.854 177.712H194.464V166.156H194.382Z" fill="#98CE00"/>
<path d="M104.779 177.904C104.779 177.904 97.5379 172.373 86.8216 172.227C86.8216 172.227 116.871 168.953 116.436 162.84C116.002 156.799 97.3931 159.637 85.4458 167.788C85.4458 167.788 98.986 157.673 96.5242 153.161C94.1347 148.721 74.8743 158.182 71.5436 177.976L104.779 177.904Z" fill="#98CE00"/>
<path d="M64.9733 170.223C64.9733 170.223 49.5181 135.451 41.3302 135.307C30.2354 135.114 56.6885 165.888 56.6885 165.888C56.6885 165.888 36.5338 141.616 29.0242 146.624C21.8053 151.44 48.646 166.514 48.646 166.514C48.646 166.514 27.1347 156.112 24.2762 162.373C22.1929 167.044 38.181 169.115 48.0162 170.223C48.0162 170.223 26.844 168.055 28.249 173.16C29.0242 176.002 45.0608 174.894 45.0608 174.894C45.0608 174.894 35.2256 175.713 34.2082 177.976H71.7261L74.2812 170.865L64.9733 170.223Z" fill="#98CE00"/>
<path d="M111.372 100.925C111.372 96.7414 109.738 93.3276 107.768 93.2795C107.72 93.2795 107.672 93.2795 107.624 93.2795C106.038 93.4238 93.6883 94.3373 83.405 94.3373C68.7488 94.3373 57.168 93.2314 57.168 93.2314C53.3238 101.838 57.168 108.521 57.168 108.521H107.816C109.738 108.521 111.372 105.108 111.372 100.925Z" fill="#1373CC"/>
<path d="M57.2165 108.57C59.2334 108.57 60.8685 105.147 60.8685 100.925C60.8685 96.7024 59.2334 93.2797 57.2165 93.2797C55.1995 93.2797 53.5645 96.7024 53.5645 100.925C53.5645 105.147 55.1995 108.57 57.2165 108.57Z" fill="#4E575E"/>
<path d="M58.2735 94.7221C56.4475 93.7604 54.5254 95.9722 54.5254 100.828C54.5254 105.685 55.8228 107.464 56.928 107.464C60.1476 107.464 60.5801 96.3569 57.5527 96.1164C54.5254 95.828 54.9098 105.252 56.9761 105.252C58.8502 105.252 58.9463 97.1743 57.2164 97.8474C56.1111 98.2801 55.967 102.848 57.0722 102.944C57.3605 102.944 57.793 102.175 57.7449 100.973" stroke="white" stroke-width="0.25" stroke-miterlimit="10" stroke-linecap="round"/>
<path d="M72.7373 108.57C72.7373 108.57 73.8906 106.502 73.8906 101.117C73.8906 95.7798 71.8724 93.9046 71.8724 93.9046H69.4697C69.4697 93.9046 71.6321 95.7798 71.6321 101.117C71.6321 106.454 70.3827 108.57 70.3827 108.57H72.7373Z" fill="#F6511D"/>
<path d="M94.938 108.57C94.938 108.57 96.0913 106.502 96.0913 101.117C96.0913 95.7798 94.0731 93.9046 94.0731 93.9046H91.6704C91.6704 93.9046 93.8328 95.7798 93.8328 101.117C93.8328 106.454 92.5834 108.57 92.5834 108.57H94.938Z" fill="#F6511D"/>
<path d="M93.4015 171.076H57.65C55.776 171.076 54.2383 169.537 54.2383 167.662V111.984C54.2383 110.108 55.776 108.57 57.65 108.57H93.4015C95.2755 108.57 96.8132 110.108 96.8132 111.984V167.662C96.8132 169.537 95.2755 171.076 93.4015 171.076Z" fill="#FF7D00"/>
<path opacity="0.5" d="M93.4015 171.076H57.65C55.776 171.076 54.2383 169.537 54.2383 167.662V111.984C54.2383 110.108 55.776 108.57 57.65 108.57H93.4015C95.2755 108.57 96.8132 110.108 96.8132 111.984V167.662C96.8132 169.537 95.2755 171.076 93.4015 171.076Z" fill="#FF7D00"/>
<path d="M63.7526 171.076C61.8785 171.076 60.3408 169.537 60.3408 167.662V111.984C60.3408 110.108 61.8785 108.57 63.7526 108.57" stroke="#4E575E" stroke-width="0.5" stroke-miterlimit="10" stroke-linecap="round"/>
<path d="M105.175 171.076H69.4232C67.5492 171.076 66.0115 169.537 66.0115 167.662V111.984C66.0115 110.108 67.5492 108.57 69.4232 108.57H105.175C107.049 108.57 108.586 110.108 108.586 111.984V167.662C108.586 169.537 107.049 171.076 105.175 171.076Z" fill="#FF9733"/>
<path d="M60.3391 172.374C60.195 172.374 60.0508 172.374 59.9547 172.422V171.076H57.6001V175.115C57.6001 176.606 58.8014 177.808 60.2911 177.808C61.7807 177.808 62.982 176.606 62.982 175.115C62.982 173.625 61.8288 172.374 60.3391 172.374Z" fill="#4E575E"/>
<path d="M73.6985 172.374C73.5544 172.374 73.4102 172.374 73.3141 172.422V171.076H71.0076V175.115C71.0076 176.606 72.2089 177.808 73.6985 177.808C75.1882 177.808 76.3895 176.606 76.3895 175.115C76.3895 173.625 75.2362 172.374 73.6985 172.374Z" fill="#4E575E"/>
<path d="M91.9102 172.374C91.766 172.374 91.6219 172.374 91.5258 172.422V171.076H89.2192V175.115C89.2192 176.606 90.4206 177.808 91.9102 177.808C93.3998 177.808 94.6012 176.606 94.6012 175.115C94.6012 173.625 93.3998 172.374 91.9102 172.374Z" fill="#4E575E"/>
<path d="M105.317 172.374C105.173 172.374 105.029 172.374 104.933 172.422V171.076H102.626V175.115C102.626 176.606 103.827 177.808 105.317 177.808C106.807 177.808 108.008 176.606 108.008 175.115C108.008 173.625 106.807 172.374 105.317 172.374Z" fill="#4E575E"/>
<path d="M72.9776 165.595H69.9983C69.4217 165.595 68.8931 165.114 68.8931 164.489V116.07C68.8931 115.493 69.3736 114.964 69.9983 114.964H72.9776C73.5542 114.964 74.0828 115.445 74.0828 116.07V164.537C74.0828 165.114 73.6023 165.595 72.9776 165.595Z" stroke="#4E575E" stroke-width="0.5" stroke-miterlimit="10" stroke-linecap="round"/>
<path d="M83.5489 165.595H80.5696C79.9929 165.595 79.4644 165.114 79.4644 164.489V116.07C79.4644 115.493 79.9449 114.964 80.5696 114.964H83.5489C84.1255 114.964 84.6541 115.445 84.6541 116.07V164.537C84.606 165.114 84.1255 165.595 83.5489 165.595Z" stroke="#4E575E" stroke-width="0.5" stroke-miterlimit="10" stroke-linecap="round"/>
<path d="M94.073 165.595H91.0937C90.5171 165.595 89.9885 165.114 89.9885 164.489V116.07C89.9885 115.493 90.4691 114.964 91.0937 114.964H94.073C94.6497 114.964 95.1782 115.445 95.1782 116.07V164.537C95.1302 165.114 94.6497 165.595 94.073 165.595Z" stroke="#4E575E" stroke-width="0.5" stroke-miterlimit="10" stroke-linecap="round"/>
<path d="M104.596 165.595H101.617C101.04 165.595 100.511 165.114 100.511 164.489V116.07C100.511 115.493 100.992 114.964 101.617 114.964H104.596C105.173 114.964 105.701 115.445 105.701 116.07V164.537C105.701 165.114 105.221 165.595 104.596 165.595Z" stroke="#4E575E" stroke-width="0.5" stroke-miterlimit="10" stroke-linecap="round"/>
<path d="M77.5423 75.6816H76.1968V111.022H77.5423V75.6816Z" fill="#4E575E"/>
<path d="M98.397 75.6816H97.0515V111.022H98.397V75.6816Z" fill="#4E575E"/>
<path d="M76.8706 77.2203V73.1814H97.7256V77.2203" stroke="#FF7D00" stroke-width="5" stroke-miterlimit="10" stroke-linejoin="round"/>
<path d="M208.945 177.896H149.949C148.048 177.896 146.502 176.348 146.502 174.447V131.245C146.502 129.344 148.048 127.796 149.949 127.796H208.989C210.89 127.796 212.436 129.344 212.436 131.245V174.447C212.392 176.348 210.845 177.896 208.945 177.896Z" fill="#FF7D00"/>
<path d="M154.899 177.896C152.998 177.896 151.452 176.348 151.452 174.447V131.245C151.452 129.344 152.998 127.796 154.899 127.796" stroke="white" stroke-width="0.5" stroke-miterlimit="10" stroke-linecap="round"/>
<path d="M219.86 177.896H160.819C158.919 177.896 157.372 176.348 157.372 174.447V131.245C157.372 129.344 158.919 127.796 160.819 127.796H219.86C221.76 127.796 223.307 129.344 223.307 131.245V174.447C223.307 176.348 221.76 177.896 219.86 177.896Z" fill="#F6511D"/>
<path d="M219.86 177.896H160.819C158.919 177.896 157.372 176.348 157.372 174.447V131.245C157.372 129.344 158.919 127.796 160.819 127.796H219.86C221.76 127.796 223.307 129.344 223.307 131.245V174.447C223.307 176.348 221.76 177.896 219.86 177.896Z" fill="#FF9733"/>
<path d="M160.82 175.685C160.157 175.685 159.583 175.11 159.583 174.447V131.245C159.583 130.582 160.157 130.007 160.82 130.007H219.861C220.523 130.007 221.098 130.582 221.098 131.245V174.447C221.098 175.11 220.523 175.685 219.861 175.685H160.82Z" stroke="#4E575E" stroke-width="0.75" stroke-linecap="round" stroke-linejoin="round" stroke-dasharray="5 5"/>
<path d="M154.412 131.378L153.705 131.157C153.351 131.068 153.175 130.67 153.307 130.317L154.324 128.061C154.456 127.796 154.766 127.664 155.031 127.708C155.34 127.796 155.517 128.061 155.473 128.371L155.163 130.847C155.119 131.245 154.766 131.466 154.412 131.378Z" fill="white"/>
<path opacity="0.5" d="M212.79 160.695L198.87 166.532L198.604 165.824C198.958 165.692 199.135 165.294 198.958 164.94C198.825 164.586 198.428 164.409 198.074 164.586L197.765 163.834C198.118 163.702 198.295 163.304 198.118 162.95C197.986 162.596 197.588 162.419 197.235 162.596L196.925 161.845C197.279 161.712 197.455 161.314 197.279 160.96C197.146 160.606 196.748 160.43 196.395 160.606L196.086 159.855C196.439 159.722 196.616 159.324 196.439 158.97C196.306 158.617 195.909 158.44 195.555 158.617L195.29 157.909L209.211 152.072L209.476 152.78C209.122 152.912 208.945 153.31 209.122 153.664C209.255 154.018 209.652 154.195 210.006 154.018L210.315 154.77C209.962 154.902 209.785 155.3 209.962 155.654C210.094 156.008 210.492 156.185 210.846 156.008L211.155 156.759C210.801 156.892 210.625 157.29 210.801 157.644C210.934 157.998 211.332 158.174 211.685 157.998L211.995 158.749C211.641 158.882 211.464 159.28 211.641 159.634C211.774 159.987 212.171 160.164 212.525 159.987L212.79 160.695Z" fill="white"/>
<path d="M211.211 160.466L208.194 153.245L196.86 157.986L199.877 165.207L211.211 160.466Z" stroke="#4E575E" stroke-width="0.25" stroke-miterlimit="10" stroke-linecap="round" stroke-linejoin="round"/>
<path opacity="0.5" d="M179.027 146.766L177.745 147.783L178.673 149.11L177.126 149.684L177.568 151.232L175.977 151.276L175.933 152.868L174.386 152.426L173.812 153.974L172.486 153.045L171.514 154.327L170.497 153.045L169.172 153.974L168.597 152.426L167.05 152.868L167.006 151.276L165.415 151.232L165.857 149.684L164.311 149.11L165.239 147.783L163.957 146.766L165.239 145.793L164.311 144.467L165.857 143.892L165.415 142.344L167.006 142.3L167.05 140.664L168.597 141.106L169.172 139.603L170.497 140.531L171.514 139.249L172.486 140.531L173.812 139.603L174.386 141.106L175.933 140.664L175.977 142.3L177.568 142.344L177.126 143.892L178.673 144.467L177.745 145.793L179.027 146.766Z" fill="white"/>
<path d="M203.863 145.351L194.627 143.759L195.201 140.399L204.438 141.99L203.863 145.351Z" fill="#FF7D00"/>
<path d="M95.3146 66.0451C95.3146 66.0451 92.6622 66.302 92.0205 64.076C92.0205 64.076 93.5178 63.6908 94.8012 64.9322C94.8012 64.9322 94.1167 63.8192 94.2879 62.9203C94.2879 62.9203 95.6568 63.3912 95.828 65.3174L95.3146 66.0451Z" fill="#4E575E"/>
<path d="M128.811 84.6658C128.811 84.6658 136.255 86.8917 137.453 87.7051C138.693 88.5184 141.132 99.7763 140.875 102.987C140.618 106.154 131.806 109.022 131.806 109.022L128.811 84.6658Z" fill="#FF7D00"/>
<path d="M140.704 44.7706L141.944 39.9335C141.944 39.9335 134.928 40.7897 133.901 40.6184C132.875 40.4044 132.147 40.4044 131.591 40.49C131.035 40.5756 130.351 41.1749 130.821 41.6886C131.292 42.1594 134.03 42.6303 134.201 42.8871C134.372 43.144 135.527 45.0702 135.527 45.0702L134.458 59.7099L126.287 55.1725L124.832 65.3175C124.832 65.3175 137.966 71.3531 140.917 68.6135C143.998 65.7027 140.704 44.7706 140.704 44.7706Z" fill="#FFE5CC"/>
<path d="M117.903 154.011L118.673 168.737L128.084 168.223L129.667 154.011H117.903Z" fill="#FFE5CC"/>
<path d="M117.903 166.168C117.903 166.168 123.721 162.444 131.378 162.658L128.427 170.321C128.427 170.321 132.961 169.165 136.812 168.994C142.801 168.737 140.662 177.854 140.662 177.854H116.919C116.919 177.854 116.363 175.029 118.159 171.476C118.159 169.764 117.903 167.11 117.903 166.168Z" fill="#1373CC"/>
<path d="M140.961 175.971C140.875 177.084 140.661 177.855 140.661 177.855H116.918C116.918 177.855 116.704 176.87 116.918 175.329C118.116 175.415 121.667 175.671 123.293 176.656L140.961 175.971Z" fill="#4E575E"/>
<path d="M127.185 170.663C127.185 170.663 124.104 168.651 125.217 167.196C126.415 165.612 128.083 167.838 127.955 170.406C127.955 170.406 128.126 165.826 129.88 165.826C131.976 165.826 128.768 170.449 128.768 170.449C128.768 170.449 129.495 169.379 131.42 168.737C133.345 168.052 134.8 170.578 136.083 170.92" stroke="#4E575E" stroke-width="0.5" stroke-miterlimit="10" stroke-linecap="round" stroke-linejoin="round"/>
<path d="M85.0042 143.481L75.9775 155.338L83.5924 161.032L94.0736 151.143L85.0042 143.481Z" fill="#FFE5CC"/>
<path d="M76.1909 154.482C76.1909 154.482 84.3619 154.268 88.8538 159.747L81.9234 162.701L83.5919 168.779C83.5919 168.779 87.9555 168.309 89.9661 171.091C92.1907 174.173 88.8538 177.854 88.8538 177.854H78.3299L66.6509 162.316C66.6509 162.316 69.8166 157.907 73.239 157.479L76.1909 154.482Z" fill="#1373CC"/>
<path d="M81.7097 162.615C81.7097 162.615 86.8433 162.573 86.5866 164.542C86.2872 166.511 81.7097 163.086 81.7097 163.086C81.7097 163.086 85.3032 166.125 84.4904 166.939C83.5492 167.881 81.4958 163.942 81.4958 163.942C81.4958 163.942 82.0519 165.013 82.0091 167.196C81.9664 169.379 80.4263 171.861 80.4263 171.861" stroke="#4E575E" stroke-width="0.5" stroke-miterlimit="10" stroke-linecap="round" stroke-linejoin="round"/>
<path d="M129.623 82.5682C129.623 82.5682 131.677 87.9189 133.431 101.702C134.971 113.731 134.971 140.271 132.361 150.63C131.976 152.128 131.163 153.027 130.522 153.412C130.265 154.739 129.409 158.72 129.409 158.72L117.602 156.922C117.602 156.922 117.345 154.696 117.26 153.583C113.067 149.131 117.174 133.55 117.859 126.573C115.591 112.96 116.704 83.6383 116.704 83.6383L129.623 82.5682Z" fill="#46A6FF"/>
<path d="M122.266 100.418L120.255 103.329C120.255 103.329 119.87 118.14 117.688 125.289C116.918 120.023 116.619 112.832 116.49 105.94C117.474 103.757 118.244 102.045 118.244 102.045L122.266 100.418Z" fill="#4E575E"/>
<path d="M105.71 84.0664C105.71 84.0664 102.929 87.02 102.245 90.1449C101.175 94.9391 102.245 100.889 102.245 100.889L100.234 119.124C100.234 119.124 90.3517 129.398 86.2448 135.733C83.0363 140.699 84.4908 142.967 84.4908 142.967L80.8545 147.976L91.079 154.482L93.988 152.556C93.988 152.556 96.2982 152.513 98.3088 150.929C100.32 149.345 113.966 131.881 116.79 123.448C119.998 113.902 119.571 83.1675 119.571 83.1675L105.71 84.0664Z" fill="#46A6FF"/>
<path d="M121.41 52.39C121.41 52.39 126.416 54.4447 127.442 56.4994C128.982 59.4958 126.715 67.1581 127.143 70.6682C127.571 74.1783 130.223 82.7823 129.795 83.2103C129.367 83.6384 119.699 87.3625 105.624 84.1521C105.624 84.1521 106.223 79.4434 106.138 76.7038C105.496 72.6372 101.817 59.8811 101.389 55.5577C103.528 53.6314 113.197 50.9346 113.197 50.9346L121.41 52.39Z" fill="#98CE00"/>
<mask id="mask0_2847_9950" style="mask-type:luminance" maskUnits="userSpaceOnUse" x="101" y="50" width="29" height="36">
<path d="M121.411 52.3899C121.411 52.3899 126.416 54.4445 127.443 56.4992C128.983 59.4956 126.716 67.1579 127.143 70.668C127.571 74.1781 130.224 82.7821 129.796 83.2101C129.368 83.6382 119.7 87.3623 105.625 84.1519C105.625 84.1519 106.224 79.4432 106.138 76.7036C105.497 72.6371 101.817 59.8809 101.39 55.5575C103.529 53.6312 113.197 50.9344 113.197 50.9344L121.411 52.3899Z" fill="white"/>
</mask>
<g mask="url(#mask0_2847_9950)">
<path d="M95.7861 56.4993C95.7861 56.4993 101.39 61.9785 109.433 59.5385C118.631 56.7561 115.422 46.3971 115.422 46.3971" stroke="#EFCA08" stroke-width="2" stroke-miterlimit="10"/>
<path d="M102.118 73.2793C102.118 73.2793 106.31 66.944 113.711 68.1426C121.155 69.3412 119.358 80.1711 114.738 78.8441C109.604 77.3459 114.781 69.7264 122.096 72.9369C129.411 76.1473 127.101 86.1211 127.101 86.1211" stroke="#EFCA08" stroke-width="2" stroke-miterlimit="10"/>
<path d="M126.075 51.3627C126.075 51.3627 120.685 54.9156 121.926 60.1807C123.295 66.0451 132.621 65.7027 132.621 65.7027" stroke="#EFCA08" stroke-width="2" stroke-miterlimit="10"/>
</g>
<path d="M106.779 62.4066C106.779 62.4066 105.838 66.2592 104.598 69.7265C103.742 66.3876 102.801 62.5779 102.159 59.5386L106.779 62.4066Z" fill="#4E575E"/>
<path d="M111.486 36.5092C111.486 36.5092 110.373 38.1786 109.432 40.533C108.406 43.1013 108.149 45.0276 110.63 45.2844C113.839 45.3701 116.534 43.5294 116.534 43.5294L118.716 37.4081" fill="#F6511D"/>
<path d="M112.426 36.3807C112.426 36.3807 108.062 42.2452 109.389 44.5567C110.287 46.1833 116.148 44.9419 117.731 44.1714C119.87 43.1441 121.025 39.5056 121.025 39.5056" fill="#4E575E"/>
<path d="M120.554 47.8527C120.554 47.8527 122.779 48.3663 124.276 47.553C126.415 46.3544 128.64 34.0263 123.891 31.5864C119.143 29.1893 111.998 31.5864 112.854 37.8361C113.068 39.4627 114.095 44.257 114.095 44.257L113.239 50.9347C113.239 50.9347 115.635 53.289 121.41 52.4329L120.554 47.8527Z" fill="#FFE5CC"/>
<path d="M89.7945 176.464C89.2854 177.371 88.7763 177.976 88.7763 177.976H78.3389L66.7983 162.291C66.7983 162.291 67.8166 160.865 69.0895 159.741C69.0895 159.741 70.532 162.075 71.2958 165.056L79.1026 176.464H89.7945Z" fill="#4E575E"/>
<path d="M111.527 99.391C111.527 99.391 109.859 118.054 108.789 121.479C107.249 126.402 88.811 146.991 88.811 146.991" stroke="#4E575E" stroke-width="0.5" stroke-miterlimit="10" stroke-linecap="round" stroke-linejoin="round"/>
<path d="M84.7905 143.481C84.7905 143.481 88.1702 147.762 93.6888 151.914" stroke="#4E575E" stroke-width="0.5" stroke-miterlimit="10" stroke-linecap="round" stroke-linejoin="round"/>
<path d="M117.646 153.583C117.646 153.583 125.261 154.526 129.838 153.583" stroke="#4E575E" stroke-width="0.5" stroke-miterlimit="10" stroke-linecap="round" stroke-linejoin="round"/>
<path d="M108.875 90.5729L99.7631 74.221C99.7631 74.221 105.068 65.9166 106.394 63.3055C108.661 58.9393 105.196 53.7597 101.432 55.5148C101.432 55.5148 100.02 56.6705 97.6241 60.7799C94.8434 65.5742 90.437 74.649 91.2498 76.1901C92.5332 78.7156 104.94 93.3124 104.94 93.3124C104.897 95.2815 106.266 98.0211 106.266 98.0211L111.357 91.8998C110.672 91.3434 108.875 90.5729 108.875 90.5729Z" fill="#FFE5CC"/>
<path d="M111.741 91.0009L105.195 98.706L106.479 99.9474L112.767 91.7286L111.741 91.0009Z" fill="#4E575E"/>
<path d="M117.388 35.439C117.388 35.439 122.094 33.2131 125.987 34.6257C125.987 34.6257 126.501 35.9955 126.586 37.194C126.586 37.194 130.009 34.6257 129.324 33.1703C128.854 32.1429 127.57 32.571 127.57 32.571C127.57 32.571 130.265 29.0181 128.212 27.3059C126.244 25.722 123.335 28.2476 123.335 28.2476C123.335 28.2476 117.987 27.9051 114.351 29.6174C110.757 31.2868 111.955 36.8944 111.955 36.8944L113.538 40.3189L115.891 39.7196L115.763 38.7779C115.848 38.7779 117.645 38.1358 117.388 35.439Z" fill="#4E575E"/>
<path d="M123.421 28.2903C123.421 28.2903 117.774 28.8896 111.742 37.4079C111.742 37.4079 106.18 32.5709 111.87 27.0061C114.009 24.9086 119.613 23.0251 123.421 28.2903Z" fill="#F6511D"/>
<path d="M115.42 39.0347C115.163 38.307 114.222 36.3807 112.425 37.3224C110.329 38.4354 112.34 43.0156 114.35 42.7588C116.318 42.502 115.719 39.9336 115.42 39.0347Z" fill="#FFE5CC"/>
<path d="M118.715 27.8194C118.63 27.8622 118.544 27.905 118.501 27.9478C117.689 28.4187 117.432 29.4889 117.988 30.2594C117.988 30.2594 119.913 28.8468 121.496 28.4187C120.812 27.6054 119.656 27.3058 118.715 27.8194Z" fill="#4E575E"/>
<path d="M120.554 47.8527C120.554 47.8527 117.816 47.125 116.362 44.899C116.362 44.899 116.79 48.7088 120.939 49.8645L120.554 47.8527Z" fill="#4E575E"/>
<path d="M134.501 59.6671L136.854 61.0369L134.587 58.1261L134.501 59.6671Z" fill="#FEE5DD"/>
<path d="M105.924 53.289C105.924 53.289 124.875 62.1927 133.774 90.4018L136.469 89.5457C136.469 89.5457 129.881 65.1891 109.688 51.4056L105.924 53.289Z" fill="#F6511D"/>
<path d="M133.175 89.9737L136.683 88.9891L137.41 91.3007L133.945 92.328L133.175 89.9737Z" fill="#4E575E"/>
<path d="M135.357 106.069C134.929 102.559 133.774 96.0093 133.389 93.9118L138.522 92.2852C138.522 92.2852 139.72 98.5776 139.977 101.189C140.362 104.442 136.512 105.726 135.357 106.069Z" stroke="#4E575E" stroke-width="0.25" stroke-miterlimit="10" stroke-linecap="round" stroke-linejoin="round" stroke-dasharray="2 2"/>
<path d="M94.373 66.9442C94.373 66.9442 97.8383 69.9834 101.56 71.3104L103.229 68.6136C103.229 68.6136 98.9933 65.8312 95.9987 63.6909L94.373 66.9442Z" fill="#F6511D"/>
<path d="M144.681 32.1429C144.596 32.1429 144.51 32.1857 144.424 32.1857L130.05 35.5246C129.195 35.653 128.681 36.8944 128.852 38.307C129.023 39.7624 129.879 40.8325 130.735 40.7041L145.451 40.3188C145.537 40.3188 145.622 40.3188 145.708 40.3188C147.034 40.1476 147.89 38.1786 147.59 35.9098C147.333 33.6839 146.007 31.9717 144.681 32.1429Z" fill="#F6511D"/>
<path d="M147.163 35.9954C147.42 37.9216 146.692 39.5483 145.537 39.7195C144.382 39.8479 143.27 38.4353 143.013 36.509C142.757 34.5828 143.484 32.9562 144.639 32.7849C145.794 32.6565 146.949 34.1119 147.163 35.9954Z" fill="#46A6FF"/>
<path d="M137.793 33.0418C137.708 33.0418 137.622 33.0846 137.537 33.0846L123.205 36.3806C122.35 36.5091 121.836 37.7504 122.007 39.163C122.179 40.6184 123.034 41.6886 123.89 41.5602L138.606 41.1749C138.692 41.1749 138.777 41.1749 138.863 41.1749C140.189 41.0037 141.045 39.0346 140.745 36.7659C140.446 34.4972 139.12 32.8706 137.793 33.0418Z" fill="#F6511D"/>
<path d="M140.318 36.8943C140.575 38.8206 139.848 40.4472 138.693 40.6184C137.538 40.7469 136.425 39.3343 136.169 37.408C135.912 35.4817 136.639 33.8551 137.794 33.6839C138.949 33.5555 140.062 34.9681 140.318 36.8943Z" fill="#46A6FF"/>
<path d="M126.5 38.8206C126.5 38.8206 127.313 41.5601 127.313 51.4911C127.313 55.9001 125.987 63.9905 131.676 63.4768C137.623 62.9203 139.334 49.5649 137.794 41.3033L136.896 41.3461C136.896 41.3461 137.88 45.9692 137.281 50.7634C136.724 55.5577 136.339 62.6207 131.719 63.1343C127.313 63.648 128.468 54.0167 128.553 51.5767C128.639 48.2807 128.81 41.4317 128.126 38.5637L126.5 38.8206Z" fill="#4E575E"/>
<path d="M123.292 36.8515L135.869 34.3687" stroke="#4E575E" stroke-width="0.5" stroke-miterlimit="10" stroke-linecap="round" stroke-linejoin="round"/>
<path d="M180.796 83.7459C179.164 85.953 175.194 90.1467 175.194 90.1467C174.444 90.4557 164.341 80.082 164.65 79.7288C164.65 78.4486 163.988 77.1243 163.547 75.8442C163.194 74.873 162.973 73.2397 162.444 72.5334C162.091 72.092 161.297 72.0479 160.988 73.5046C160.856 74.1667 161.032 75.3586 160.944 75.7118C160.856 76.0649 160.326 75.3586 159.576 74.4757C158.826 73.5929 156.356 70.4145 155.87 70.1055C155.076 69.5758 154.326 70.8118 155.606 72.5776C156.4 73.6812 157.37 74.7847 157.856 75.491C156.664 75.3586 156.532 76.4622 156.488 76.5505C156.003 76.5946 155.738 76.8153 155.562 76.9478C155.385 77.1243 155.209 77.5216 155.473 77.8748C154.679 78.4045 154.988 79.2432 155.12 79.5081C155.253 79.7729 156.223 80.6558 156.929 80.5234C158.032 82.5098 158.561 82.9513 160.282 83.3927C160.856 83.5251 164.561 92.1772 172.679 98.7105C173.341 99.2402 174.797 100.609 176.296 100.079C180.046 98.7988 188.561 90.4557 188.561 90.4557C185.826 87.9395 182.517 85.1143 180.796 83.7459Z" fill="#FFE5CC"/>
<path d="M158.164 76.8154C158.429 77.2127 158.914 77.7866 159.002 78.3163C159.046 78.6695 158.737 79.0226 158.385 78.9343C157.943 78.846 157.502 78.3163 157.193 78.0514C156.84 77.6983 156.488 77.301 156.399 76.8154C156.399 77.3452 156.752 77.7866 157.061 78.1839C157.326 78.4929 157.767 78.9343 158.164 79.155C158.208 79.464 158.252 80.2145 157.458 79.9055C156.488 79.5523 155.429 78.0514 155.429 78.0514C155.517 78.3163 156.179 79.2875 156.929 79.8172C157.017 79.9496 157.105 80.3028 156.84 80.5235C156.84 80.5235 157.149 80.4352 157.149 79.9496C157.326 80.0379 157.502 80.1262 157.679 80.1262C158.473 80.2145 158.429 79.5082 158.385 79.1992C158.649 79.2433 158.87 79.1992 159.046 78.8902C159.532 78.1397 158.649 77.301 158.164 76.8154Z" fill="#FEE5DD"/>
<path d="M195.973 77.8749C195.973 77.8749 189.267 76.1091 187.767 76.5064C186.444 76.8154 182.341 81.5829 178.326 86.2621C179.385 87.5423 183.356 91.7359 185.65 93.9431L195.973 77.8749Z" fill="#1373CC"/>
<path d="M183.047 113.543C194.87 117.869 207.532 112.351 207.532 112.351C207.532 112.351 205.547 107.981 205.37 107.274C205.238 106.745 206.076 92.8395 206.076 92.8395C206.076 92.8395 203.076 84.4081 200.65 82.4217C198.223 80.4352 192.444 80.0821 192.444 80.0821C192.444 80.0821 185.429 86.5712 184.591 88.7783C183.797 90.9855 183.885 93.899 183.4 100.079C182.738 108.334 183.047 113.543 183.047 113.543Z" fill="#1373CC"/>
<path d="M201.312 90.1025L203.297 100.741L207.797 100.476L207.532 95.9736L201.312 90.1025Z" fill="#4E575E"/>
<path d="M186.665 79.5965L174.93 87.145L161.871 86.527L151.68 92.4422L163.239 116.103L171.842 109.923L183.577 110.1L194.606 102.639L186.665 79.5965Z" fill="white" stroke="#4E575E" stroke-width="0.5" stroke-miterlimit="10" stroke-linecap="round" stroke-linejoin="round"/>
<path opacity="0.3" d="M153.401 92.9721L162.445 87.8073L175.415 88.5136L185.959 81.6272L193.018 102.11L183.092 108.775L171.312 108.643L163.724 114.117L153.401 92.9721Z" fill="#46A6FF"/>
<path d="M161.871 86.527L171.842 109.923" stroke="#4E575E" stroke-width="0.5" stroke-miterlimit="10" stroke-linecap="round" stroke-linejoin="round"/>
<path d="M174.93 87.1452L183.577 110.1" stroke="#4E575E" stroke-width="0.5" stroke-miterlimit="10" stroke-linecap="round" stroke-linejoin="round"/>
<path d="M213.973 94.7816C210.135 95.7087 207.003 95.8852 204.488 95.8411C204.488 95.8411 205.591 98.4014 205.9 99.3726C204.312 98.8428 198.576 96.2384 195.179 94.6492C195.135 94.1195 195.179 93.4573 192.621 91.7357C191.121 90.7204 191.077 89.4403 190.282 89.7051C189.665 89.9259 189.841 90.9853 190.282 91.7799C190.371 91.9123 190.459 92.0448 190.547 92.133C189.665 92.0006 188.165 91.5592 188.165 91.5592C188.165 91.5592 186.444 90.897 185.518 90.6763C184.812 90.4997 184.194 90.8529 184.238 91.2502C183.533 90.9412 183.003 90.8087 182.474 90.9412C181.944 91.0736 181.812 91.6033 182.43 92.0889C182.694 92.2655 183.621 92.9718 184.018 93.2366C183.753 93.1483 183.533 93.0159 183.268 93.0159C182.297 92.8835 181.768 93.6781 182.871 94.3402C183.4 94.6492 183.886 94.9141 184.238 95.1789C184.15 95.1789 184.062 95.1348 184.018 95.1348C183.312 95.0024 182.43 95.6204 183.577 96.3267C184.68 96.9888 185.385 97.4302 186.003 97.6951C188.738 98.7987 191.474 99.505 192.488 99.2843C198.091 103.213 202.9 105.906 208.326 108.599C212.297 110.541 215.561 109.04 216.047 105.42C216.267 103.963 214.679 97.342 213.973 94.7816Z" fill="#FFE5CC"/>
<path d="M189.664 93.943C189.664 93.943 187.767 93.4574 186.928 93.1043C186.664 92.9719 184.458 92.089 184.149 91.6475C184.017 91.471 184.017 91.2944 184.017 91.2061C184.105 91.2503 184.149 91.2503 184.237 91.2944C184.237 91.2944 184.237 91.4268 184.325 91.5151C184.546 91.78 185.825 92.398 187.061 92.9277C188.164 93.325 189.664 93.943 189.664 93.943Z" fill="#FEE5DD"/>
<path d="M189.178 95.3557C188.913 95.3115 187.149 95.0025 186.443 94.7377C185.958 94.5611 184.678 93.8548 183.796 93.3692C183.531 93.1926 183.311 93.0602 183.178 92.9719C183.222 92.9719 183.266 92.9719 183.266 92.9719C183.487 93.0161 183.708 93.1044 183.972 93.1926C184.016 93.1926 184.016 93.2368 184.016 93.2368C184.016 93.2368 185.296 94.0755 186.531 94.5611C187.458 94.9584 188.913 95.3115 189.178 95.3557Z" fill="#FEE5DD"/>
<path d="M188.472 96.68C188.207 96.6359 186.134 96.3269 185.428 95.9737C184.81 95.6647 183.928 95.2674 183.575 95.0908C183.708 95.0467 183.884 95.0467 184.016 95.0908C184.105 95.0908 184.149 95.135 184.237 95.135C184.237 95.135 185.296 95.7089 186.09 95.9737C186.884 96.2386 188.252 96.6359 188.472 96.68Z" fill="#FEE5DD"/>
<path d="M209.737 81.627C209.119 80.5234 201.09 78.4928 201.09 78.4928L198.002 83.1279L201.09 89.4404L204.09 98.2249C205.105 98.0925 211.458 96.3267 214.502 95.2232C212.781 89.3521 210.311 82.6864 209.737 81.627Z" fill="#1373CC"/>
<path d="M214.237 67.6776C211.987 74.9171 203.384 78.6252 195.002 76.0649C186.619 73.4604 181.634 65.5146 183.84 58.3192C186.09 51.0797 194.693 47.3717 203.075 49.932C211.457 52.4923 216.486 60.4822 214.237 67.6776Z" fill="#FF9733"/>
<path opacity="0.5" d="M208.06 66.0885C206.781 70.238 201.663 72.3568 196.634 70.8118C191.604 69.2668 188.604 64.6317 189.884 60.4823C191.163 56.3328 196.281 54.2139 201.31 55.7589C206.339 57.3039 209.339 61.939 208.06 66.0885Z" fill="#FF7D00"/>
<path d="M207.927 76.6827C198.839 80.6998 190.766 76.0206 189.795 74.5639C190.854 72.7098 193.589 69.1784 192.751 67.6333C191.913 66.0883 189.751 65.9118 189.795 62.1154C189.795 61.8506 189.795 61.5857 189.839 61.3208C190.28 56.2443 194.648 58.5398 195.089 58.4515L204.177 58.8047C204.574 59.1578 205.06 59.5992 205.501 60.1731C206.648 61.6298 207.662 63.7487 207.089 66.5298C205.898 70.6351 206.383 74.608 207.927 76.6827Z" fill="#4E575E"/>
<path d="M201.001 71.827C204.134 68.163 203.869 63.7929 203.869 63.7929C203.913 56.465 193.854 56.5092 191.516 61.4533C189.972 64.6757 189.443 70.3261 190.237 72.445C191.031 74.5197 192.84 75.6674 195.046 75.4026L194.34 77.389C194.34 77.389 193.413 77.2125 193.193 77.2125C192.001 79.243 191.737 84.9375 195.972 84.7168C200.207 84.4961 201.795 78.6692 201.795 78.6692L200.295 78.2277L201.001 71.827Z" fill="#FFE5CC"/>
<path d="M205.325 64.764C204.31 69.0459 202.722 69.399 202.722 69.399C202.722 69.399 202.589 68.4279 201.928 67.5008C201.001 66.1765 199.545 64.6757 199.898 63.3514C199.501 63.5721 198.928 63.7928 197.957 63.8811C195.266 64.0577 192.045 62.3361 190.678 63.5279C190.678 63.5279 190.148 63.5279 189.972 62.6892C189.972 62.6892 189.84 62.1595 189.795 61.3208C189.795 61.2766 189.795 61.1883 189.795 61.1442C189.795 59.864 190.148 57.9659 191.825 56.3767C194.295 54.0812 200.163 54.4344 203.075 58.01C203.075 58.01 203.516 58.2749 204.133 58.8046C204.53 59.1577 205.016 59.5992 205.457 60.173C205.81 61.2325 205.81 62.7775 205.325 64.764Z" fill="#4E575E"/>
<path d="M201.619 67.192C201.619 67.192 203.516 65.8236 204.531 66.8389C205.898 68.2514 203.075 71.6505 201.663 71.0766C199.942 70.3703 201.619 67.192 201.619 67.192Z" fill="#FFE5CC"/>
<path d="M205.855 99.3726C205.855 99.3726 209.517 100.609 211.105 101.492C211.105 101.492 208.634 98.9754 205.458 98.2249L205.855 99.3726Z" fill="#4E575E"/>
<path d="M165.444 140.161L157.811 147.224C157.811 147.224 153.532 145.105 152.562 141.883C156.488 136.321 159.267 132.392 159.267 132.392" fill="#FFE5CC"/>
<path d="M138.311 140.249L151.679 153.095C152.164 153.537 152.914 153.537 153.355 153.095C154.458 152.036 156.223 151.109 157.193 149.078C157.634 148.195 157.811 147.798 157.767 147.224C157.767 147.224 156.355 146.429 155.914 145.591C155.473 144.708 155.87 143.339 155.914 143.163C155.958 142.986 158.031 141.574 157.855 140.426C156.973 138.219 153.62 136.144 153.223 135.923C151.987 137.733 151.105 138.66 150.267 139.058C148.105 138.263 145.899 137.071 142.149 136.144C140.782 135.791 139.282 136.012 137.738 137.998C137.429 138.528 137.826 139.808 138.311 140.249Z" fill="#98CE00"/>
<path d="M137.738 137.954C137.958 137.689 153.576 152.919 153.576 152.919C153.576 153.007 152.958 154.552 151.546 155.258C151.546 155.258 140.473 142.633 137.164 139.499C136.811 139.146 137.473 138.263 137.738 137.954Z" fill="#4E575E"/>
<path d="M150.664 139.19C150.664 139.19 152.605 140.779 152.914 143.119" stroke="white" stroke-width="0.75" stroke-miterlimit="10" stroke-linecap="round"/>
<path d="M150.664 142.501C150.046 140.161 148.546 138.66 148.546 138.66" stroke="white" stroke-width="0.75" stroke-miterlimit="10" stroke-linecap="round"/>
<path d="M146.076 137.689C146.076 137.689 147.664 138.616 148.591 141.75" stroke="white" stroke-width="0.75" stroke-miterlimit="10" stroke-linecap="round"/>
<path d="M207.532 112.351C207.532 112.351 206.032 112.925 204.708 113.366C199.459 111.071 186.444 103.434 181.724 105.2C175.856 107.407 158.033 133.805 158.033 133.805C159.356 136.806 164.341 141 167.518 141.485C167.518 141.485 182.032 126.388 184.723 122.106C184.723 122.106 191.12 127.139 194.297 127.933H208.282C208.282 127.933 213.091 121.047 207.532 112.351Z" fill="#F6511D"/>
<path d="M209.297 115.882C207.532 114.911 204.708 113.366 204.708 113.366C206.032 112.925 207.532 112.351 207.532 112.351C208.326 113.587 208.9 114.735 209.297 115.882Z" fill="#4E575E"/>
<path d="M194.341 127.933H199.9C199.9 127.933 190.283 116.809 182.474 120.782C181.592 121.224 180.489 122.195 179.739 123.431C177.577 126.83 176.033 131.995 175.592 132.922C177.577 130.759 179.606 128.507 181.283 126.521V126.477L187.592 122.371L194.341 127.933Z" fill="#4E575E"/>
<path d="M186.885 153.051L190.238 163.513C190.238 163.513 195.267 163.778 197.826 161.306C197.12 154.155 196.59 149.078 196.59 149.078" fill="#FFE5CC"/>
<path d="M200.34 170.399C201.84 172.077 202.281 174.461 202.281 175.608L188.649 177.771C188.384 176.888 187.546 174.505 190.325 172.474L190.061 163.734C188.87 163.027 187.855 161.527 187.017 159.364L195.796 156.98C196.105 159.055 196.634 160.776 197.825 161.218C197.825 161.218 198.531 161.438 198.796 162.807C198.884 163.381 198.884 165.058 198.884 165.058L200.34 170.399Z" fill="#98CE00"/>
<path d="M202.943 177.727H188.429C188.296 177.551 188.076 176.535 188.341 176.006C188.341 176.006 192.179 176.094 196.193 175.608C200.649 175.079 202.193 174.416 202.193 174.416C202.458 174.858 203.164 176.226 202.943 177.727Z" fill="#4E575E"/>
<path d="M195.355 169.781C191.649 170.973 190.326 172.43 190.326 172.43C190.326 172.43 190.326 172.121 190.282 171.061C192.973 169.781 195.355 169.781 195.355 169.781Z" fill="#FF7D00"/>
<path d="M191.429 163.558C192.708 164.044 195.62 163.514 196.502 162.586" stroke="white" stroke-width="0.75" stroke-miterlimit="10" stroke-linecap="round"/>
<path d="M191.473 165.808C193.281 166.382 195.973 165.897 197.031 164.705" stroke="white" stroke-width="0.75" stroke-miterlimit="10" stroke-linecap="round"/>
<path d="M191.34 168.104C192.884 168.898 196.149 168.457 197.781 166.956" stroke="white" stroke-width="0.75" stroke-miterlimit="10" stroke-linecap="round"/>
<path d="M197.915 154.243C193.9 155.479 188.165 156.141 186.886 156.273C184.636 149.166 179.033 131.112 179.077 127.58C179.165 122.46 182.165 120.959 184.106 120.429C190.106 118.752 194.518 125.55 195.974 133.407C197.033 139.322 197.65 149.431 197.915 154.243Z" fill="#F6511D"/>
</svg>
