<svg width="448" height="448" viewBox="0 0 448 448" fill="none" xmlns="http://www.w3.org/2000/svg">
<circle cx="224" cy="224" r="180" fill="#EAEDF7"/>
<path d="M224.086 448C164.154 448 115.571 442.494 115.571 435.702C115.571 428.91 164.154 423.404 224.086 423.404C284.017 423.404 332.601 428.91 332.601 435.702C332.601 442.494 284.017 448 224.086 448Z" fill="#CAD2EA"/>
<path d="M389.341 435.711C392.952 434.216 394.667 430.079 393.171 426.471C391.675 422.862 387.535 421.148 383.923 422.643C380.312 424.138 378.597 428.275 380.093 431.883C381.589 435.492 385.729 437.205 389.341 435.711Z" fill="#353767"/>
<path d="M430.869 435.71C434.481 434.216 436.196 430.079 434.7 426.47C433.204 422.862 429.063 421.148 425.452 422.643C421.84 424.138 420.125 428.275 421.621 431.883C423.117 435.492 427.258 437.205 430.869 435.71Z" fill="#353767"/>
<path d="M388.625 431.148C389.615 430.158 389.615 428.553 388.625 427.563C387.634 426.574 386.028 426.574 385.037 427.563C384.047 428.553 384.047 430.158 385.037 431.148C386.028 432.138 387.634 432.138 388.625 431.148Z" fill="#46A6FF"/>
<path d="M430.684 429.581C430.908 428.199 429.969 426.897 428.586 426.673C427.203 426.448 425.9 427.387 425.676 428.769C425.451 430.15 426.39 431.452 427.773 431.677C429.156 431.901 430.459 430.962 430.684 429.581Z" fill="#46A6FF"/>
<path d="M440.985 423.944H372.555C368.672 423.944 365.54 420.815 365.54 416.935V312.483C365.54 308.602 368.672 305.473 372.555 305.473H440.985C444.868 305.473 448 308.602 448 312.483V416.935C448 420.815 444.837 423.944 440.985 423.944Z" fill="#353767"/>
<mask id="mask0_2043_11553" style="mask-type:luminance" maskUnits="userSpaceOnUse" x="365" y="305" width="83" height="119">
<path d="M440.985 423.944H372.555C368.672 423.944 365.54 420.815 365.54 416.935V312.483C365.54 308.602 368.672 305.473 372.555 305.473H440.985C444.868 305.473 448 308.602 448 312.483V416.935C448 420.815 444.837 423.944 440.985 423.944Z" fill="white"/>
</mask>
<g mask="url(#mask0_2043_11553)">
<path d="M453.262 423.944H384.832C380.949 423.944 377.817 420.815 377.817 416.935V312.483C377.817 308.602 380.949 305.473 384.832 305.473H453.262C457.145 305.473 460.277 308.602 460.277 312.483V416.935C460.277 420.815 457.145 423.944 453.262 423.944Z" fill="#46A6FF"/>
</g>
<path d="M385.02 326.219C389.749 326 394.447 325.875 399.176 325.781C401.524 325.719 403.905 325.719 406.253 325.688L413.331 325.656L420.409 325.688C422.758 325.719 425.138 325.719 427.487 325.781C432.216 325.875 436.914 326 441.643 326.219C436.914 326.47 432.216 326.564 427.487 326.658C425.138 326.72 422.758 326.72 420.409 326.751L413.331 326.783L406.253 326.751C403.905 326.72 401.524 326.72 399.176 326.658C394.447 326.564 389.749 326.439 385.02 326.219Z" fill="#353767"/>
<path d="M385.02 346.465C389.749 346.246 394.447 346.121 399.176 346.027C401.524 345.964 403.905 345.964 406.253 345.933L413.331 345.902L420.409 345.933C422.758 345.964 425.138 345.964 427.487 346.027C432.216 346.121 436.914 346.246 441.643 346.465C436.914 346.715 432.216 346.809 427.487 346.903C425.138 346.966 422.758 346.966 420.409 346.997L413.331 347.028L406.253 346.997C403.905 346.966 401.524 346.966 399.176 346.903C394.447 346.809 389.749 346.715 385.02 346.465Z" fill="#353767"/>
<path d="M385.02 366.711C389.749 366.492 394.447 366.367 399.176 366.273C401.524 366.211 403.905 366.211 406.253 366.179L413.331 366.148L420.409 366.179C422.758 366.211 425.138 366.211 427.487 366.273C432.216 366.367 436.914 366.492 441.643 366.711C436.914 366.962 432.216 367.055 427.487 367.149C425.138 367.212 422.758 367.212 420.409 367.243L413.331 367.274L406.253 367.243C403.905 367.212 401.524 367.212 399.176 367.149C394.447 367.087 389.749 366.962 385.02 366.711Z" fill="#353767"/>
<path d="M385.02 386.988C389.749 386.769 394.447 386.644 399.176 386.55C401.524 386.488 403.905 386.488 406.253 386.456L413.331 386.425L420.409 386.456C422.758 386.488 425.138 386.488 427.487 386.55C432.216 386.644 436.914 386.769 441.643 386.988C436.914 387.239 432.216 387.332 427.487 387.426C425.138 387.489 422.758 387.489 420.409 387.52L413.331 387.552L406.253 387.52C403.905 387.489 401.524 387.489 399.176 387.426C394.447 387.332 389.749 387.207 385.02 386.988Z" fill="#353767"/>
<path d="M385.02 407.234C389.749 407.015 394.447 406.89 399.176 406.796C401.524 406.733 403.905 406.733 406.253 406.702L413.331 406.671L420.409 406.702C422.758 406.733 425.138 406.733 427.487 406.796C432.216 406.89 436.914 407.015 441.643 407.234C436.914 407.484 432.216 407.578 427.487 407.672C425.138 407.735 422.758 407.735 420.409 407.766L413.331 407.797L406.253 407.766C403.905 407.735 401.524 407.735 399.176 407.672C394.447 407.609 389.749 407.484 385.02 407.234Z" fill="#353767"/>
<path d="M426.453 306.037H388.809V237.289H426.453V306.037ZM389.937 304.879H425.295V238.415H389.937V304.879Z" fill="#46A6FF"/>
<path d="M416.901 235.442H398.361V240.23H416.901V235.442Z" fill="#353767"/>
<path d="M218.797 292.305C212.546 320.408 177.929 421.386 177.929 421.386L172.929 421.146L169.515 417.015L178.939 281.976L218.797 292.305Z" fill="#DA8C8D"/>
<mask id="mask1_2043_11553" style="mask-type:luminance" maskUnits="userSpaceOnUse" x="169" y="281" width="50" height="141">
<path d="M218.797 292.305C212.546 320.408 177.929 421.386 177.929 421.386L172.929 421.146L169.515 417.015L178.939 281.976L218.797 292.305Z" fill="white"/>
</mask>
<g mask="url(#mask1_2043_11553)">
<path d="M216.393 301.769C216.393 301.769 188.314 301.432 175.766 293.506L178.939 281.928L222.162 285.003C222.162 285.003 222.787 299.895 216.393 301.769Z" fill="#C17276"/>
</g>
<path d="M168.939 415.573L180.526 418.12L178.699 423.548C178.699 423.548 191.199 427.583 195.959 435.702L166.342 429.889L168.939 415.573Z" fill="#464A90"/>
<path d="M267.068 287.501C266.395 316.276 251.971 422.011 251.971 422.011L247.019 422.731L242.884 419.321L225.961 285.003L267.068 287.501Z" fill="#DA8C8D"/>
<mask id="mask2_2043_11553" style="mask-type:luminance" maskUnits="userSpaceOnUse" x="225" y="285" width="43" height="138">
<path d="M267.068 287.501C266.395 316.276 251.971 422.011 251.971 422.011L247.019 422.731L242.884 419.321L225.961 285.003L267.068 287.501Z" fill="white"/>
</mask>
<g mask="url(#mask2_2043_11553)">
<path d="M267.068 299.943C267.068 299.943 243.509 310.32 226.922 303.21L225.96 285.051L270.482 281.977L267.068 299.943Z" fill="#C17276"/>
</g>
<path d="M242.019 418.072L253.895 418.312L253.125 423.981C253.125 423.981 266.155 425.518 272.405 432.58H242.211L242.019 418.072Z" fill="#464A90"/>
<path d="M261.011 183.544L272.405 288.798C272.405 288.798 241.731 303.354 224.566 296.917C224.566 296.917 179.805 295.139 175.766 289.711C175.766 289.711 178.17 202.952 190.334 180.518C190.382 180.518 247.885 186.763 261.011 183.544Z" fill="#486DB9"/>
<path d="M224.566 296.965C224.566 296.965 225.528 233.937 226.153 221.831C226.153 221.831 241.779 288.51 236.634 298.598C236.634 298.55 227.259 298.838 224.566 296.965Z" fill="#353767"/>
<path d="M268.03 204.681C270.146 203.384 271.444 201.126 271.588 198.628C272.501 182.007 275.819 100.676 252.741 76.2724C234.134 56.5282 217.114 65.8478 217.114 65.8478C217.114 65.8478 169.323 85.0635 186.247 142.374C189.949 154.961 178.795 182.343 182.016 196.515C186.055 214.001 250.722 215.298 268.03 204.681Z" fill="#FFC185"/>
<path d="M246.154 70.3635C246.154 70.3635 280.627 95.2959 285.771 132.574C285.771 132.574 264.28 141.75 251.779 141.269C239.279 140.741 246.154 70.3635 246.154 70.3635Z" fill="#FFC185"/>
<path d="M370.006 96.9771C370.006 96.9771 322.264 120.276 262.597 110.62L251.587 194.208C251.587 194.208 332.36 207.275 351.784 173.84L370.006 96.9771Z" fill="white"/>
<path d="M202.161 42.2125C203.988 45.3351 220.383 40.4831 236.153 31.3556C251.923 22.2282 263.27 12.3321 261.491 9.20955C259.664 6.087 245.432 10.939 229.614 20.0664C213.844 29.1458 200.334 39.09 202.161 42.2125Z" fill="#FF9733"/>
<path d="M250.577 30.5868C250.577 30.5868 259.328 60.7074 243.317 59.7466C227.307 58.7858 217.547 40.8192 222.98 29.5299C228.413 18.2407 246.106 10.6505 250.577 30.5868Z" fill="#DA8C8D"/>
<mask id="mask3_2043_11553" style="mask-type:luminance" maskUnits="userSpaceOnUse" x="221" y="18" width="32" height="42">
<path d="M250.577 30.5868C250.577 30.5868 259.328 60.7074 243.317 59.7466C227.307 58.7858 217.547 40.8192 222.98 29.5299C228.413 18.2407 246.106 10.6505 250.577 30.5868Z" fill="white"/>
</mask>
<g mask="url(#mask3_2043_11553)">
<path d="M227.067 31.2596C225.24 30.539 223.22 29.4821 222.739 27.6086C222.162 25.3988 223.941 23.3331 225.816 22.036C230.432 18.9135 236.346 18.1929 241.923 18.5772C246.058 18.8655 250.241 19.7782 253.799 21.94C257.068 23.9576 260.097 27.5606 260.289 31.5958C260.434 34.6704 257.645 35.7272 255.049 36.0155C251.106 36.4478 246.971 36.0155 243.077 35.439C238.221 34.7664 233.413 33.5655 228.797 31.836C228.172 31.74 227.595 31.4998 227.067 31.2596Z" fill="#C17276"/>
</g>
<mask id="mask4_2043_11553" style="mask-type:luminance" maskUnits="userSpaceOnUse" x="221" y="18" width="32" height="42">
<path d="M250.577 30.5868C250.577 30.5868 259.328 60.7074 243.317 59.7466C227.307 58.7858 217.547 40.8192 222.98 29.5299C228.413 18.2407 246.106 10.6505 250.577 30.5868Z" fill="white"/>
</mask>
<g mask="url(#mask4_2043_11553)">
<path d="M247.458 54.029C248.362 54.3704 249.563 54.344 249.998 53.4657C250.336 52.7606 249.966 51.9153 249.344 51.4504C248.722 50.9855 247.92 50.8205 247.177 50.6216C246.434 50.4227 245.657 50.1649 245.165 49.5856C244.949 49.279 244.791 48.9385 244.587 48.5854C244.43 48.2449 244.167 47.9258 243.866 47.746C243.52 47.5537 243.077 47.5346 242.804 47.8097C242.401 48.1991 242.791 48.6019 242.995 48.9549C243.254 49.472 243.408 50.0106 243.68 50.4813C244.212 51.469 244.92 52.3549 245.771 53.08C246.3 53.5201 246.866 53.8209 247.458 54.029Z" fill="white"/>
</g>
<path d="M221.489 35.7271C221.489 35.7271 223.701 51.1957 218.797 66.232C218.797 66.232 228.172 73.63 236.009 73.4859C243.798 73.3418 235.432 45.0947 235.432 45.0947L221.489 35.7271Z" fill="#DA8C8D"/>
<path d="M238.605 58.9302C238.605 58.9302 237.5 59.3145 231.538 54.5586C231.538 54.5586 230.768 61.2841 239.327 64.791C239.279 64.791 238.942 60.7076 238.605 58.9302Z" fill="#C17276"/>
<path d="M230.336 27.8006C230.096 31.932 229.038 36.0153 227.211 39.7624C227.307 38.7055 227.115 37.4565 226.201 36.9281C225.48 36.5437 224.518 36.832 223.941 37.4084C223.364 37.9849 223.076 38.8016 222.884 39.6183C222.595 40.7232 222.499 41.8761 222.787 42.981C223.076 44.0859 223.845 45.0947 224.903 45.479C223.749 48.2173 222.691 51.0516 221.537 53.7898C216.537 48.5055 213.364 41.4918 212.739 34.2379C212.595 32.3163 212.595 30.3947 212.931 28.5212C213.508 25.4467 215.047 22.5163 217.258 20.3065C218.124 19.4418 219.133 18.6251 220.287 18.1928C222.932 17.1839 226.153 18.1447 228.076 20.2104C229.999 22.2761 230.48 24.9182 230.336 27.8006Z" fill="#464A90"/>
<path d="M246.827 11.4192C242.5 11.227 238.125 10.7466 234.471 9.92996C234.23 9.88193 234.038 9.83389 233.798 9.78585C222.787 7.86428 219.71 24.3417 230.576 26.8398C236.394 28.1849 242.692 29.4339 245.769 29.53C245.769 29.53 259.28 32.9408 265.049 28.8094C270.771 24.7261 262.212 11.6113 246.827 11.4192Z" fill="#464A90"/>
<path d="M235.961 73.4378L242.5 78.4339C242.5 78.4339 242.596 70.6515 241.586 67.0966L239.279 65.9917C239.279 65.9917 239.038 71.8525 235.961 73.4378Z" fill="white"/>
<path d="M235.961 73.4378L229.278 83.6221C229.278 83.6221 216.2 73.5819 215.047 66.9044L218.797 65.175C218.797 65.127 228.701 72.5731 235.961 73.4378Z" fill="white"/>
<path d="M249.471 10.5066C249.471 10.5066 219.855 24.1498 210.143 33.5655C210.143 33.5655 206.2 13.9655 211.873 9.64192C217.547 5.31839 221.489 5.36643 221.489 5.36643C221.489 5.36643 224.182 1.37917 229.374 0.178188C237.259 -1.59926 249.471 10.5066 249.471 10.5066Z" fill="#FFC185"/>
<path d="M261.491 9.20947C261.491 9.20947 218.845 41.4438 204.325 42.2124C189.805 42.933 245.625 1.90751 261.491 9.20947Z" fill="#FF9733"/>
<path d="M252.933 162.407C252.933 162.407 268.319 158.612 269.713 158.996C271.107 159.38 269.52 168.652 264.376 170.381C259.28 172.159 247.067 173.12 247.067 173.12C247.067 173.12 250.721 162.935 252.933 162.407Z" fill="#DA8C8D"/>
<path d="M251.01 162.167C251.347 162.215 258.366 156.786 258.366 156.786C258.366 156.786 258.462 158.66 257.933 159.476C257.405 160.293 254.087 163.896 254.087 163.896L251.01 162.167Z" fill="#DA8C8D"/>
<path d="M362.602 130.509C362.602 130.509 354.429 140.164 354.429 142.566C354.429 144.968 358.515 146.842 358.515 146.842C358.515 146.842 362.65 137.618 362.602 130.509Z" fill="#DA8C8D"/>
<path d="M209.037 70.3635C209.037 70.3635 171.295 93.5665 161.294 138.531C161.294 138.531 185.574 145.209 200.19 149.436C212.114 152.847 209.037 70.3635 209.037 70.3635Z" fill="#FFC185"/>
<path d="M200.238 149.436C200.238 149.436 203.123 128.251 205.767 123.591C208.412 118.979 204.181 153.712 202.979 160.341C201.777 166.922 181.487 191.855 181.487 191.855C181.487 191.855 187.401 153.231 189.901 149.676C192.449 146.169 200.238 149.436 200.238 149.436Z" fill="#FF9733"/>
<path d="M169.467 140.789C169.467 140.789 164.323 172.447 168.89 177.011C179.083 187.147 251.443 172.255 251.443 172.255L252.933 162.407C252.933 162.407 201.44 156.69 193.699 158.516L195.911 148.235C195.959 148.235 177.977 143.143 169.467 140.789Z" fill="#DA8C8D"/>
<mask id="mask5_2043_11553" style="mask-type:luminance" maskUnits="userSpaceOnUse" x="167" y="140" width="86" height="41">
<path d="M169.467 140.789C169.467 140.789 164.323 172.447 168.89 177.011C179.083 187.147 251.443 172.255 251.443 172.255L252.933 162.407C252.933 162.407 201.44 156.69 193.699 158.516L195.911 148.235C195.959 148.235 177.977 143.143 169.467 140.789Z" fill="white"/>
</mask>
<g mask="url(#mask5_2043_11553)">
<path d="M166.246 145.113C164.803 144.056 163.265 142.47 163.794 140.789C164.13 139.636 165.332 139.012 166.438 138.531C170.573 136.85 175.141 136.61 179.612 136.562C185.285 136.562 191.536 137.186 195.526 141.221C198.507 144.248 201.584 153.663 195.43 155.153C192.689 155.825 189.468 155.009 186.776 154.432C183.314 153.663 179.9 152.559 176.631 151.117C172.977 149.484 169.467 147.466 166.246 145.113Z" fill="#C17276"/>
</g>
<path d="M90.0538 434.262C84.5094 431.968 81.8765 425.617 84.1731 420.077C86.4697 414.537 92.8261 411.906 98.3705 414.201C103.915 416.496 106.548 422.847 104.251 428.387C101.955 433.926 95.5982 436.557 90.0538 434.262Z" fill="#834305"/>
<path d="M26.2992 434.262C20.7548 431.967 18.1219 425.616 20.4185 420.077C22.7151 414.537 29.0715 411.906 34.6159 414.201C40.1604 416.495 42.7932 422.847 40.4966 428.386C38.2 433.926 31.8436 436.557 26.2992 434.262Z" fill="#834305"/>
<path d="M91.1529 427.258C89.632 425.738 89.632 423.274 91.1529 421.755C92.6737 420.235 95.1395 420.235 96.6604 421.755C98.1812 423.274 98.1812 425.738 96.6604 427.258C95.1395 428.777 92.6737 428.777 91.1529 427.258Z" fill="#FF9733"/>
<path d="M26.5838 424.852C26.2392 422.73 27.681 420.731 29.804 420.387C31.9271 420.043 33.9275 421.484 34.2721 423.605C34.6167 425.726 33.1749 427.725 31.0518 428.069C28.9287 428.413 26.9283 426.973 26.5838 424.852Z" fill="#FF9733"/>
<path d="M10.7692 416.198H115.823C121.784 416.198 126.592 411.394 126.592 405.437V245.082C126.592 239.125 121.784 234.322 115.823 234.322H10.7692C4.80741 234.322 -0.000526428 239.125 -0.000526428 245.082V405.437C-0.000526428 411.394 4.85549 416.198 10.7692 416.198Z" fill="#834305"/>
<mask id="mask6_2043_11553" style="mask-type:luminance" maskUnits="userSpaceOnUse" x="-1" y="234" width="128" height="183">
<path d="M10.7692 416.198H115.823C121.784 416.198 126.592 411.394 126.592 405.437V245.082C126.592 239.125 121.784 234.322 115.823 234.322H10.7692C4.80741 234.322 -0.000526428 239.125 -0.000526428 245.082V405.437C-0.000526428 411.394 4.85549 416.198 10.7692 416.198Z" fill="white"/>
</mask>
<g mask="url(#mask6_2043_11553)">
<path d="M-8.07809 416.198H96.9752C102.937 416.198 107.745 411.394 107.745 405.437V245.082C107.745 239.125 102.937 234.321 96.9752 234.321H-8.07809C-14.0399 234.321 -18.8479 239.125 -18.8479 245.082V405.437C-18.8479 411.394 -14.0399 416.198 -8.07809 416.198Z" fill="#FF9733"/>
</g>
<path d="M96.6869 266.171C89.4269 265.835 82.215 265.643 74.955 265.499C71.3491 265.403 67.695 265.403 64.0891 265.355L53.2232 265.307L42.3573 265.355C38.7513 265.403 35.0973 265.403 31.4913 265.499C24.2313 265.643 17.0194 265.835 9.75945 266.171C17.0194 266.556 24.2313 266.7 31.4913 266.844C35.0973 266.94 38.7513 266.94 42.3573 266.988L53.2232 267.036L64.0891 266.988C67.695 266.94 71.3491 266.94 74.955 266.844C82.215 266.7 89.4269 266.508 96.6869 266.171Z" fill="#834305"/>
<path d="M96.6869 297.253C89.4269 296.917 82.215 296.724 74.955 296.58C71.3491 296.484 67.695 296.484 64.0891 296.436L53.2232 296.388L42.3573 296.436C38.7513 296.484 35.0973 296.484 31.4913 296.58C24.2313 296.724 17.0194 296.917 9.75945 297.253C17.0194 297.637 24.2313 297.781 31.4913 297.925C35.0973 298.021 38.7513 298.022 42.3573 298.07L53.2232 298.118L64.0891 298.07C67.695 298.022 71.3491 298.021 74.955 297.925C82.215 297.781 89.4269 297.637 96.6869 297.253Z" fill="#834305"/>
<path d="M96.6869 328.334C89.4269 327.998 82.215 327.806 74.955 327.662C71.3491 327.566 67.695 327.566 64.0891 327.518L53.2232 327.469L42.3573 327.518C38.7513 327.566 35.0973 327.566 31.4913 327.662C24.2313 327.806 17.0194 327.998 9.75945 328.334C17.0194 328.719 24.2313 328.863 31.4913 329.007C35.0973 329.103 38.7513 329.103 42.3573 329.151L53.2232 329.199L64.0891 329.151C67.695 329.103 71.3491 329.103 74.955 329.007C82.215 328.911 89.4269 328.719 96.6869 328.334Z" fill="#834305"/>
<path d="M96.6869 359.464C89.4269 359.127 82.215 358.935 74.955 358.791C71.3491 358.695 67.695 358.695 64.0891 358.647L53.2232 358.599L42.3573 358.647C38.7513 358.695 35.0973 358.695 31.4913 358.791C24.2313 358.935 17.0194 359.127 9.75945 359.464C17.0194 359.848 24.2313 359.992 31.4913 360.136C35.0973 360.232 38.7513 360.232 42.3573 360.28L53.2232 360.328L64.0891 360.28C67.695 360.232 71.3491 360.232 74.955 360.136C82.215 359.992 89.4269 359.8 96.6869 359.464Z" fill="#834305"/>
<path d="M96.6869 390.545C89.4269 390.209 82.215 390.016 74.955 389.872C71.3491 389.776 67.695 389.776 64.0891 389.728L53.2232 389.68L42.3573 389.728C38.7513 389.776 35.0973 389.776 31.4913 389.872C24.2313 390.016 17.0194 390.209 9.75945 390.545C17.0194 390.929 24.2313 391.073 31.4913 391.217C35.0973 391.314 38.7513 391.314 42.3573 391.362L53.2232 391.41L64.0891 391.362C67.695 391.314 71.3491 391.314 74.955 391.217C82.215 391.121 89.4269 390.929 96.6869 390.545Z" fill="#834305"/>
<path d="M33.078 235.186H90.8694V129.644H33.078V235.186ZM89.1385 233.409H34.8569V131.373H89.1385V233.409Z" fill="#FF9733"/>
<path d="M47.7422 126.81H76.2052V134.16H47.7422V126.81Z" fill="#834305"/>
</svg>
