<svg width="1392" height="688" viewBox="0 0 1392 688" fill="none" xmlns="http://www.w3.org/2000/svg">
    <path
        d="M131.439 560.366C-17.8747 455.64 38.0481 265.443 140.2 218.485C219.984 181.831 263.603 177.101 305.173 159.027C423.356 114.941 491.023 36.5649 622.069 49.4023C839.608 70.6854 770.264 217.471 913.24 320.171C952.759 350.575 1064.6 414.425 1002.72 546.177C939.337 681.308 703.343 656.647 565.214 615.263C344.878 542.63 327.355 697.862 131.439 560.366Z"
        fill="#1890FF" />
    <path
        d="M908.611 268.668C948.697 317.139 1016.56 334.103 1047.89 291.611C1083.31 227.791 967.342 121.802 904.696 139.252C843.727 156.216 881.39 235.546 908.611 268.668Z"
        fill="#1890FF" />
    <path
        d="M1031.02 579.141C1031.4 594.787 1038.31 611.114 1052.52 619.677C1122.1 661.629 1272.89 639.602 1321.85 571.802C1428.36 424.337 1219.59 408.28 1204.66 328.292C1195.01 276.532 1324.9 237.601 1290.1 169.058C1270.78 131.009 1120.88 67.7524 1090.01 122.173C1078.42 142.597 1105.24 195.181 1109.63 216.176C1116.4 248.554 1104.88 274.943 1097.98 305.869C1094.08 323.346 1093.46 340.652 1099.07 357.821C1113.87 403.188 1107.36 435.355 1074.79 474.305C1063.57 487.73 1055.13 503.518 1047.75 519.152C1038.94 537.8 1030.51 558.299 1031.02 579.141Z"
        fill="#1890FF" />
</svg>