<svg width="208" height="28" viewBox="0 0 208 28" fill="none" xmlns="http://www.w3.org/2000/svg">
<path d="M66.2389 1.95804C66.2389 1.39238 66.4394 0.924629 66.8406 0.554776C67.2418 0.184925 67.7321 0 68.3115 0C68.9356 0 69.437 0.184925 69.8159 0.554776C70.1948 0.924629 70.3842 1.39238 70.3842 1.95804C70.3842 2.50194 70.1948 2.9697 69.8159 3.3613C69.437 3.73116 68.9356 3.91608 68.3115 3.91608C67.7321 3.91608 67.2418 3.73116 66.8406 3.3613C66.4394 2.9697 66.2389 2.50194 66.2389 1.95804Z" fill="#020E19"/>
<path d="M69.5819 6.85315C69.8939 7.07071 70.0499 7.46231 70.0499 8.02797V21.8322C69.8939 21.8757 69.671 21.9301 69.3813 21.9953C69.1139 22.0606 68.813 22.0932 68.4787 22.0932C67.8547 22.0932 67.3866 21.9736 67.0746 21.7343C66.7626 21.495 66.6066 21.1033 66.6066 20.5594V6.72261C66.7626 6.6791 66.9855 6.63559 67.2752 6.59207C67.5649 6.52681 67.8769 6.49417 68.2112 6.49417C68.8353 6.49417 69.2922 6.61383 69.5819 6.85315Z" fill="#020E19"/>
<path d="M46.7863 21.7343C46.4966 21.4732 46.3518 21.0598 46.3518 20.4942V4.8951H40.4012C40.312 4.76457 40.2229 4.57964 40.1337 4.34033C40.0446 4.07925 40 3.8073 40 3.52447C40 3.04584 40.1114 2.68687 40.3343 2.44755C40.5795 2.18648 40.9026 2.05594 41.3038 2.05594H55.8125C55.9017 2.18648 55.9908 2.38228 56.08 2.64336C56.1691 2.88267 56.2137 3.13286 56.2137 3.39394C56.2137 3.87257 56.0911 4.24242 55.846 4.50349C55.6231 4.76457 55.3111 4.8951 54.9099 4.8951H49.8285V21.8322C49.6948 21.8757 49.4719 21.9301 49.1599 21.9953C48.8479 22.0606 48.5359 22.0932 48.2239 22.0932C47.5775 22.0932 47.0984 21.9736 46.7863 21.7343Z" fill="#020E19"/>
<path d="M57.7251 21.9953C58.0148 21.9301 58.2377 21.8757 58.3937 21.8322V9.88811C58.884 9.60528 59.4969 9.37685 60.2324 9.2028C60.9901 9.00699 61.8259 8.90909 62.7396 8.90909C63.0962 8.90909 63.4417 8.93085 63.776 8.97436C64.1326 9.01787 64.4223 9.06138 64.6452 9.10489C64.7566 8.93085 64.8458 8.73504 64.9126 8.51748C65.0018 8.29992 65.0463 8.0606 65.0463 7.79953C65.0463 6.73349 64.0769 6.20047 62.1379 6.20047C60.9344 6.20047 59.8201 6.331 58.7949 6.59207C57.792 6.85315 56.9785 7.17949 56.3545 7.57109C55.8864 7.87568 55.5299 8.20202 55.2847 8.55012C55.0618 8.87646 54.9504 9.3007 54.9504 9.82284V20.5594C54.9504 21.1033 55.1064 21.495 55.4184 21.7343C55.7304 21.9736 56.1985 22.0932 56.8225 22.0932C57.1568 22.0932 57.4577 22.0606 57.7251 21.9953Z" fill="#020E19"/>
<path fill-rule="evenodd" clip-rule="evenodd" d="M76.8355 21.9627C77.6155 22.202 78.4624 22.3217 79.3762 22.3217C80.8694 22.3217 82.1955 22.028 83.3544 21.4406C84.5356 20.8314 85.4494 19.9285 86.0957 18.7319C86.7643 17.5136 87.0986 16.0016 87.0986 14.1958C87.0986 12.3248 86.742 10.8019 86.0288 9.62704C85.3156 8.45222 84.335 7.58197 83.0869 7.01632C81.8612 6.45066 80.4794 6.16783 78.9416 6.16783C77.805 6.16783 76.7798 6.30925 75.866 6.59207C74.9745 6.85315 74.2168 7.16861 73.5927 7.53846C73.1247 7.82129 72.7904 8.115 72.5898 8.41958C72.4115 8.70241 72.3224 9.07226 72.3224 9.52914V26.4336C72.3224 26.9992 72.4784 27.4017 72.7904 27.641C73.1024 27.8803 73.5705 28 74.1945 28C74.5288 28 74.8297 27.9674 75.0971 27.9021C75.3868 27.8586 75.6097 27.8042 75.7657 27.7389V21.564C76.0743 21.7057 76.4309 21.8386 76.8355 21.9627ZM75.7657 18.7235C76.0208 18.8863 76.2994 19.0414 76.6015 19.1888C77.2478 19.4716 78.0055 19.6131 78.8747 19.6131C80.3234 19.6131 81.4711 19.1779 82.318 18.3077C83.1872 17.4375 83.6218 16.0668 83.6218 14.1958C83.6218 12.8904 83.4101 11.857 82.9867 11.0956C82.5632 10.3124 81.9949 9.7467 81.2817 9.3986C80.5685 9.0505 79.7885 8.87646 78.9416 8.87646C78.2284 8.87646 77.6155 8.96348 77.1029 9.13753C76.5903 9.31158 76.1446 9.50738 75.7657 9.72494V18.7235Z" fill="#020E19"/>
<path fill-rule="evenodd" clip-rule="evenodd" d="M95.0756 6.16783C97.1483 6.16783 98.7864 6.61383 99.9899 7.50583C101.216 8.37607 101.829 9.75758 101.829 11.6503V19.2541C101.829 19.7545 101.717 20.1461 101.494 20.4289C101.271 20.7117 100.959 20.9619 100.558 21.1795C99.9787 21.5058 99.221 21.7778 98.2849 21.9953C97.3712 22.2347 96.3348 22.3543 95.1759 22.3543C93.0141 22.3543 91.3203 21.9518 90.0945 21.1469C88.891 20.3201 88.2893 19.1127 88.2893 17.5245C88.2893 16.0886 88.7684 14.9899 89.7268 14.2284C90.6851 13.4452 92.0446 12.9775 93.8053 12.8252L98.4855 12.3683V11.6177C98.4855 10.6387 98.1623 9.93162 97.516 9.4965C96.8697 9.06138 95.9894 8.84382 94.875 8.84382C93.9836 8.84382 93.1144 8.96348 92.2675 9.2028C91.4429 9.44211 90.7074 9.71406 90.0611 10.0186C89.8605 9.8446 89.6822 9.63792 89.5262 9.3986C89.3702 9.13753 89.2922 8.86558 89.2922 8.58275C89.2922 7.90831 89.6711 7.39705 90.4288 7.04895C91.0528 6.76612 91.766 6.54856 92.5683 6.39627C93.393 6.24398 94.2287 6.16783 95.0756 6.16783ZM95.1759 19.7436C95.9782 19.7436 96.658 19.6674 97.2152 19.5152C97.7946 19.3411 98.2181 19.1779 98.4855 19.0256V14.8159L94.7747 15.1748C93.7496 15.2619 92.9695 15.4903 92.4346 15.8601C91.922 16.2082 91.6657 16.7304 91.6657 17.4266C91.6657 18.1445 91.9555 18.7102 92.5349 19.1235C93.1144 19.5369 93.9947 19.7436 95.1759 19.7436Z" fill="#020E19"/>
<path fill-rule="evenodd" clip-rule="evenodd" d="M118.135 0.81585C118.447 1.03341 118.603 1.42502 118.603 1.99068V19.1562C118.603 19.6131 118.502 19.9829 118.302 20.2657C118.101 20.5486 117.778 20.8205 117.332 21.0816C116.842 21.3862 116.162 21.669 115.293 21.9301C114.424 22.2129 113.421 22.3543 112.284 22.3543C110.591 22.3543 109.109 22.0715 107.838 21.5058C106.59 20.9402 105.609 20.0699 104.896 18.8951C104.205 17.6985 103.86 16.1756 103.86 14.3263C103.86 12.4336 104.205 10.8889 104.896 9.69231C105.587 8.49573 106.534 7.61461 107.738 7.04895C108.941 6.46154 110.256 6.16783 111.683 6.16783C112.53 6.16783 113.321 6.27661 114.056 6.49417C114.474 6.61787 114.842 6.75915 115.159 6.91802V0.717947C115.315 0.674435 115.538 0.620045 115.828 0.554776C116.118 0.489509 116.419 0.456876 116.731 0.456876C117.377 0.456876 117.845 0.576534 118.135 0.81585ZM114.257 9.3007C114.589 9.43981 114.89 9.59436 115.159 9.76436V18.8951C114.825 19.0909 114.424 19.265 113.956 19.4173C113.51 19.5695 112.942 19.6457 112.251 19.6457C110.758 19.6457 109.565 19.2214 108.674 18.373C107.782 17.5245 107.337 16.1865 107.337 14.359C107.337 13.0319 107.548 11.9658 107.972 11.1608C108.395 10.3559 108.964 9.77933 109.677 9.43123C110.412 9.06138 111.215 8.87646 112.084 8.87646C112.908 8.87646 113.633 9.01787 114.257 9.3007Z" fill="#020E19"/>
<path d="M133.333 6.331C133.824 6.331 134.225 6.45066 134.537 6.68998C134.849 6.90754 135.005 7.25563 135.005 7.73427C135.005 8.03885 134.882 8.59363 134.637 9.3986C134.392 10.2036 134.069 11.15 133.668 12.2378C133.289 13.3038 132.865 14.4242 132.397 15.5991C131.929 16.7739 131.45 17.8943 130.96 18.9604C130.492 20.0264 130.057 20.9293 129.656 21.669C129.5 21.7995 129.233 21.9083 128.854 21.9953C128.497 22.0824 128.107 22.1259 127.684 22.1259C127.193 22.1259 126.759 22.0497 126.38 21.8974C126.001 21.7669 125.745 21.5602 125.611 21.2774C125.366 20.8205 125.054 20.1787 124.675 19.352C124.296 18.5253 123.884 17.5789 123.438 16.5128C123.015 15.4468 122.58 14.3481 122.134 13.2168C121.711 12.0637 121.31 10.965 120.931 9.92074C120.574 8.87646 120.285 7.95183 120.062 7.14685C120.24 6.90754 120.496 6.71173 120.831 6.55944C121.165 6.40715 121.51 6.331 121.867 6.331C122.357 6.331 122.747 6.43978 123.037 6.65734C123.349 6.8749 123.594 7.26651 123.772 7.83217L125.644 13.4779C125.823 14 126.035 14.6092 126.28 15.3054C126.547 16.0016 126.803 16.6869 127.049 17.3613C127.294 18.0357 127.494 18.6014 127.65 19.0583H127.784C128.564 16.9915 129.3 14.9138 129.99 12.8252C130.704 10.7148 131.316 8.6589 131.829 6.65734C132.253 6.43978 132.754 6.331 133.333 6.331Z" fill="#020E19"/>
<path fill-rule="evenodd" clip-rule="evenodd" d="M147.141 7.50583C145.937 6.61383 144.299 6.16783 142.227 6.16783C141.38 6.16783 140.544 6.24398 139.719 6.39627C138.917 6.54856 138.204 6.76612 137.58 7.04895C136.822 7.39705 136.443 7.90831 136.443 8.58275C136.443 8.86558 136.521 9.13753 136.677 9.3986C136.833 9.63792 137.012 9.8446 137.212 10.0186C137.858 9.71406 138.594 9.44211 139.419 9.2028C140.265 8.96348 141.135 8.84382 142.026 8.84382C143.14 8.84382 144.021 9.06138 144.667 9.4965C145.313 9.93162 145.637 10.6387 145.637 11.6177V12.3683L140.956 12.8252C139.196 12.9775 137.836 13.4452 136.878 14.2284C135.92 14.9899 135.44 16.0886 135.44 17.5245C135.44 19.1127 136.042 20.3201 137.246 21.1469C138.471 21.9518 140.165 22.3543 142.327 22.3543C143.486 22.3543 144.522 22.2347 145.436 21.9953C146.372 21.7778 147.13 21.5058 147.709 21.1795C148.11 20.9619 148.422 20.7117 148.645 20.4289C148.868 20.1461 148.98 19.7545 148.98 19.2541V11.6503C148.98 9.75758 148.367 8.37607 147.141 7.50583ZM144.366 19.5152C143.809 19.6674 143.129 19.7436 142.327 19.7436C141.146 19.7436 140.265 19.5369 139.686 19.1235C139.107 18.7102 138.817 18.1445 138.817 17.4266C138.817 16.7304 139.073 16.2082 139.586 15.8601C140.121 15.4903 140.901 15.2619 141.926 15.1748L145.637 14.8159V19.0256C145.369 19.1779 144.946 19.3411 144.366 19.5152Z" fill="#020E19"/>
<path d="M163.514 7.60373C164.74 8.53924 165.353 9.96426 165.353 11.8788V21.8322C165.197 21.8757 164.974 21.9301 164.684 21.9953C164.394 22.0606 164.093 22.0932 163.781 22.0932C163.135 22.0932 162.656 21.9736 162.344 21.7343C162.054 21.495 161.909 21.1033 161.909 20.5594V12.0093C161.909 10.9215 161.597 10.1274 160.973 9.62704C160.349 9.12665 159.513 8.87646 158.466 8.87646C157.686 8.87646 156.984 8.97436 156.36 9.17016C155.736 9.36597 155.201 9.58353 154.755 9.82284V21.8322C154.599 21.8757 154.376 21.9301 154.087 21.9953C153.819 22.0606 153.518 22.0932 153.184 22.0932C152.56 22.0932 152.092 21.9736 151.78 21.7343C151.468 21.495 151.312 21.1033 151.312 20.5594V9.75757C151.312 9.25719 151.412 8.8547 151.613 8.55012C151.836 8.22377 152.181 7.91919 152.649 7.63636C153.273 7.26651 154.087 6.92929 155.09 6.62471C156.092 6.32012 157.218 6.16783 158.466 6.16783C160.628 6.16783 162.31 6.64646 163.514 7.60373Z" fill="#020E19"/>
<path d="M172.226 10.3124C173.185 9.37685 174.366 8.90909 175.77 8.90909C176.617 8.90909 177.33 9.01787 177.91 9.23543C178.489 9.45299 179.013 9.71406 179.481 10.0186C179.726 9.86635 179.927 9.67055 180.083 9.43123C180.261 9.19192 180.35 8.91997 180.35 8.61539C180.35 7.96271 179.893 7.39705 178.979 6.91841C178.088 6.41803 176.929 6.16783 175.503 6.16783C174.009 6.16783 172.639 6.47242 171.391 7.08158C170.143 7.69075 169.151 8.59363 168.415 9.79021C167.68 10.9868 167.312 12.488 167.312 14.2937C167.312 16.0777 167.658 17.568 168.349 18.7646C169.062 19.9612 170.042 20.8531 171.29 21.4406C172.538 22.028 173.976 22.3217 175.603 22.3217C177.052 22.3217 178.233 22.1041 179.147 21.669C180.06 21.2121 180.517 20.6465 180.517 19.972C180.517 19.6457 180.428 19.3629 180.25 19.1235C180.071 18.8842 179.837 18.6775 179.548 18.5035C179.102 18.7863 178.578 19.0474 177.976 19.2867C177.375 19.5043 176.639 19.6131 175.77 19.6131C174.299 19.6131 173.096 19.1562 172.16 18.2424C171.246 17.3287 170.789 16.0124 170.789 14.2937C170.789 12.5532 171.268 11.2261 172.226 10.3124Z" fill="#020E19"/>
<path fill-rule="evenodd" clip-rule="evenodd" d="M186.326 18.5361C185.565 17.9142 185.05 17.0523 184.781 15.9503L194.583 14.5874C195.073 14.5221 195.452 14.3699 195.72 14.1305C195.987 13.8695 196.121 13.467 196.121 12.9231C196.121 11.6177 195.82 10.4538 195.218 9.43123C194.616 8.4087 193.77 7.61461 192.677 7.04895C191.608 6.46154 190.371 6.16783 188.967 6.16783C187.897 6.16783 186.894 6.34188 185.958 6.68998C185.022 7.03807 184.208 7.54934 183.518 8.22378C182.827 8.89821 182.281 9.73582 181.879 10.7366C181.501 11.7156 181.311 12.8469 181.311 14.1305C181.311 15.9145 181.668 17.4266 182.381 18.6667C183.094 19.885 184.097 20.8096 185.39 21.4406C186.682 22.0497 188.187 22.3543 189.903 22.3543C190.95 22.3543 191.886 22.2455 192.711 22.028C193.558 21.8104 194.226 21.5058 194.717 21.1142C195.207 20.7226 195.452 20.2875 195.452 19.8089C195.452 19.5043 195.363 19.2214 195.185 18.9604C195.029 18.6993 194.817 18.4926 194.55 18.3403C194.082 18.6667 193.457 18.9713 192.677 19.2541C191.897 19.5369 191.039 19.6783 190.103 19.6783C188.543 19.6783 187.284 19.2976 186.326 18.5361ZM192.878 12.3683L184.563 13.5116C184.63 12.0432 185.05 10.9007 185.824 10.0839C186.649 9.21367 187.685 8.77855 188.933 8.77855C190.159 8.77855 191.106 9.12665 191.775 9.82284C192.443 10.4973 192.811 11.3458 192.878 12.3683Z" fill="#020E19"/>
<path d="M200.679 21.9953C200.969 21.9301 201.191 21.8757 201.347 21.8322V9.88811C201.838 9.60528 202.451 9.37685 203.186 9.2028C203.944 9.00699 204.78 8.90909 205.693 8.90909C206.05 8.90909 206.395 8.93085 206.73 8.97436C207.086 9.01787 207.376 9.06138 207.599 9.10489C207.71 8.93085 207.799 8.73504 207.866 8.51748C207.955 8.29992 208 8.0606 208 7.79953C208 6.73349 207.031 6.20047 205.092 6.20047C203.888 6.20047 202.774 6.331 201.749 6.59207C200.746 6.85315 199.932 7.17949 199.308 7.57109C198.84 7.87568 198.484 8.20202 198.238 8.55012C198.016 8.87646 197.904 9.3007 197.904 9.82284V20.5594C197.904 21.1033 198.06 21.495 198.372 21.7343C198.684 21.9736 199.152 22.0932 199.776 22.0932C200.11 22.0932 200.411 22.0606 200.679 21.9953Z" fill="#020E19"/>
<path d="M5.50007 26.5519L13.0526 13.7009V25.1176C13.0526 26.7095 14.3722 28 16 28C17.6278 28 18.9474 26.7095 18.9474 25.1176V13.7009L26.4999 26.5519C27.3138 27.9367 29.1163 28.4111 30.5259 27.6116C31.9355 26.8121 32.4185 25.0414 31.6047 23.6566L18.629 1.57792C18.1714 0.697631 17.265 0.0779212 16.2045 0.00683225C16.137 0.00226207 16.0695 -4.50639e-06 16.0022 6.72635e-09L15.9978 7.76181e-07C15.9304 -4.56953e-06 15.8628 0.00226808 15.7952 0.0068506C14.7348 0.078028 13.8286 0.69771 13.371 1.57793L0.395344 23.6566C-0.418507 25.0414 0.0644685 26.8121 1.4741 27.6116C2.88373 28.4111 4.68622 27.9367 5.50007 26.5519Z" fill="#1890FF"/>
</svg>
