<svg width="32" height="28" viewBox="0 0 32 28" fill="none" xmlns="http://www.w3.org/2000/svg">
<path d="M5.50007 26.5519L13.0526 13.7009V25.1176C13.0526 26.7095 14.3722 28 16 28C17.6278 28 18.9474 26.7095 18.9474 25.1176V13.7009L26.4999 26.5519C27.3138 27.9367 29.1163 28.4111 30.5259 27.6116C31.9355 26.8121 32.4185 25.0414 31.6047 23.6566L18.629 1.57792C18.1714 0.697631 17.265 0.0779212 16.2045 0.00683225C16.137 0.00226207 16.0695 -4.50639e-06 16.0022 6.72635e-09L15.9978 7.76181e-07C15.9304 -4.56953e-06 15.8628 0.00226808 15.7952 0.0068506C14.7348 0.078028 13.8286 0.69771 13.371 1.57793L0.395344 23.6566C-0.418507 25.0414 0.0644685 26.8121 1.4741 27.6116C2.88373 28.4111 4.68622 27.9367 5.50007 26.5519Z" fill="#1890FF"/>
</svg>
