<svg width="140" height="24" viewBox="0 0 140 24" fill="none" xmlns="http://www.w3.org/2000/svg">
<path d="M21.8657 1.67832C21.8657 1.19347 22.0329 0.792539 22.3672 0.475523C22.7015 0.158507 23.1101 0 23.5929 0C24.113 0 24.5309 0.158507 24.8466 0.475523C25.1623 0.792539 25.3202 1.19347 25.3202 1.67832C25.3202 2.14452 25.1623 2.54545 24.8466 2.88112C24.5309 3.19813 24.113 3.35664 23.5929 3.35664C23.1101 3.35664 22.7015 3.19813 22.3672 2.88112C22.0329 2.54545 21.8657 2.14452 21.8657 1.67832Z" fill="#020E19"/>
<path d="M24.6516 5.87413C24.9116 6.06061 25.0416 6.39627 25.0416 6.88112V18.7133C24.9116 18.7506 24.7259 18.7972 24.4844 18.8531C24.2616 18.9091 24.0108 18.9371 23.7322 18.9371C23.2122 18.9371 22.8222 18.8345 22.5622 18.6294C22.3022 18.4242 22.1722 18.0886 22.1722 17.6224V5.76224C22.3022 5.72494 22.4879 5.68765 22.7293 5.65035C22.9708 5.59441 23.2308 5.56643 23.5094 5.56643C24.0294 5.56643 24.4101 5.669 24.6516 5.87413Z" fill="#020E19"/>
<path d="M5.65529 18.6294C5.41385 18.4056 5.29313 18.0513 5.29313 17.5664V4.1958H0.334303C0.260013 4.08392 0.185724 3.92541 0.111434 3.72028C0.0371448 3.4965 0 3.2634 0 3.02098C0 2.61072 0.0928619 2.30303 0.278586 2.0979C0.482882 1.87412 0.752182 1.76224 1.08648 1.76224H13.1771C13.2514 1.87412 13.3257 2.04196 13.4 2.26573C13.4743 2.47086 13.5114 2.68531 13.5114 2.90909C13.5114 3.31935 13.4093 3.63636 13.205 3.86014C13.0192 4.08391 12.7592 4.1958 12.4249 4.1958H8.19042V18.7133C8.07899 18.7506 7.89326 18.7972 7.63325 18.8531C7.37324 18.9091 7.11322 18.9371 6.85321 18.9371C6.31461 18.9371 5.9153 18.8345 5.65529 18.6294Z" fill="#020E19"/>
<path d="M14.7709 18.8531C15.0124 18.7972 15.1981 18.7506 15.3281 18.7133V8.47552C15.7367 8.2331 16.2474 8.0373 16.8603 7.88811C17.4918 7.72028 18.1882 7.63636 18.9497 7.63636C19.2469 7.63636 19.5347 7.65501 19.8133 7.69231C20.1105 7.7296 20.3519 7.7669 20.5376 7.80419C20.6305 7.65501 20.7048 7.48718 20.7605 7.3007C20.8348 7.11422 20.8719 6.90909 20.8719 6.68531C20.8719 5.77156 20.0641 5.31468 18.4483 5.31468C17.4453 5.31468 16.5167 5.42657 15.6624 5.65035C14.8266 5.87413 14.1487 6.15385 13.6287 6.48951C13.2387 6.75058 12.9415 7.0303 12.7372 7.32867C12.5515 7.60839 12.4587 7.97203 12.4587 8.41958V17.6224C12.4587 18.0886 12.5887 18.4242 12.8487 18.6294C13.1087 18.8345 13.4987 18.9371 14.0187 18.9371C14.2973 18.9371 14.5481 18.9091 14.7709 18.8531Z" fill="#020E19"/>
<path fill-rule="evenodd" clip-rule="evenodd" d="M30.6962 18.8252C31.3463 19.0303 32.052 19.1329 32.8135 19.1329C34.0578 19.1329 35.1629 18.8811 36.1287 18.3776C37.113 17.8555 37.8745 17.0816 38.4131 16.0559C38.9702 15.0117 39.2488 13.7156 39.2488 12.1678C39.2488 10.5641 38.9517 9.25874 38.3573 8.25175C37.763 7.24476 36.9458 6.49883 35.9058 6.01399C34.8843 5.52914 33.7328 5.28671 32.4513 5.28671C31.5041 5.28671 30.6498 5.40793 29.8883 5.65035C29.1454 5.87413 28.514 6.14452 27.994 6.46154C27.6039 6.70396 27.3253 6.95571 27.1582 7.21678C27.0096 7.45921 26.9353 7.77622 26.9353 8.16783V22.6573C26.9353 23.1422 27.0653 23.4872 27.3253 23.6923C27.5854 23.8974 27.9754 24 28.4954 24C28.774 24 29.0247 23.972 29.2476 23.9161C29.489 23.8788 29.6748 23.8322 29.8048 23.7762V18.4835C30.062 18.6049 30.3591 18.7188 30.6962 18.8252ZM29.8048 16.0487C30.0173 16.1882 30.2495 16.3212 30.5012 16.4476C31.0398 16.69 31.6713 16.8112 32.3956 16.8112C33.6028 16.8112 34.5593 16.4382 35.265 15.6923C35.9894 14.9464 36.3515 13.7716 36.3515 12.1678C36.3515 11.049 36.1751 10.1632 35.8222 9.51049C35.4693 8.83916 34.9957 8.35431 34.4014 8.05594C33.8071 7.75758 33.1571 7.60839 32.4513 7.60839C31.857 7.60839 31.3463 7.68298 30.9191 7.83217C30.4919 7.98135 30.1205 8.14918 29.8048 8.33566V16.0487Z" fill="#020E19"/>
<path fill-rule="evenodd" clip-rule="evenodd" d="M45.8964 5.28671C47.6236 5.28671 48.9887 5.669 49.9916 6.43357C51.013 7.17949 51.5238 8.36364 51.5238 9.98601V16.5035C51.5238 16.9324 51.4309 17.2681 51.2452 17.5105C51.0595 17.7529 50.7995 17.9674 50.4652 18.1538C49.9823 18.4336 49.3508 18.6667 48.5708 18.8531C47.8093 19.0583 46.9457 19.1608 45.9799 19.1608C44.1784 19.1608 42.7669 18.8159 41.7454 18.1259C40.7425 17.4172 40.2411 16.3823 40.2411 15.021C40.2411 13.7902 40.6404 12.8485 41.439 12.1958C42.2376 11.5245 43.3705 11.1235 44.8377 10.993L48.7379 10.6014V9.95804C48.7379 9.11888 48.4686 8.51282 47.93 8.13986C47.3914 7.7669 46.6578 7.58042 45.7292 7.58042C44.9863 7.58042 44.262 7.68298 43.5562 7.88811C42.8691 8.09324 42.2562 8.32634 41.7176 8.58741C41.5504 8.43823 41.4018 8.26107 41.2718 8.05594C41.1418 7.83217 41.0768 7.59907 41.0768 7.35664C41.0768 6.77855 41.3925 6.34033 42.024 6.04196C42.544 5.79953 43.1384 5.61305 43.807 5.48252C44.4941 5.35198 45.1906 5.28671 45.8964 5.28671ZM45.9799 16.9231C46.6485 16.9231 47.215 16.8578 47.6793 16.7273C48.1622 16.5781 48.5151 16.4382 48.7379 16.3077V12.6993L45.6456 13.007C44.7913 13.0816 44.1413 13.2774 43.6955 13.5944C43.2684 13.8928 43.0548 14.3403 43.0548 14.9371C43.0548 15.5524 43.2962 16.0373 43.7791 16.3916C44.262 16.7459 44.9956 16.9231 45.9799 16.9231Z" fill="#020E19"/>
<path fill-rule="evenodd" clip-rule="evenodd" d="M65.1122 0.6993C65.3723 0.88578 65.5023 1.22144 65.5023 1.70629V16.4196C65.5023 16.8112 65.4187 17.1282 65.2515 17.3706C65.0844 17.6131 64.8151 17.8462 64.4436 18.0699C64.035 18.331 63.4686 18.5734 62.7443 18.7972C62.0199 19.0396 61.1842 19.1608 60.237 19.1608C58.8255 19.1608 57.5904 18.9184 56.5318 18.4336C55.4917 17.9487 54.6746 17.2028 54.0802 16.1958C53.5045 15.1702 53.2166 13.8648 53.2166 12.2797C53.2166 10.6573 53.5045 9.33333 54.0802 8.30769C54.656 7.28205 55.4453 6.52681 56.4482 6.04196C57.4511 5.53846 58.5469 5.28671 59.7355 5.28671C60.4413 5.28671 61.1006 5.37995 61.7135 5.56643C62.062 5.67246 62.3684 5.79356 62.6328 5.92973V0.615383C62.7628 0.578087 62.9486 0.531467 63.19 0.475523C63.4314 0.419579 63.6822 0.391608 63.9422 0.391608C64.4808 0.391608 64.8708 0.494172 65.1122 0.6993ZM61.8806 7.97203C62.1577 8.09127 62.4085 8.22374 62.6328 8.36945V16.1958C62.3542 16.3636 62.0199 16.5128 61.6299 16.6434C61.2585 16.7739 60.7849 16.8392 60.2091 16.8392C58.9648 16.8392 57.9712 16.4755 57.2283 15.7483C56.4854 15.021 56.1139 13.8741 56.1139 12.3077C56.1139 11.1702 56.2904 10.2564 56.6432 9.56643C56.9961 8.87646 57.4697 8.38228 58.064 8.08391C58.6769 7.7669 59.3455 7.60839 60.0698 7.60839C60.757 7.60839 61.3606 7.7296 61.8806 7.97203Z" fill="#020E19"/>
<path d="M77.7779 5.42657C78.1865 5.42657 78.5208 5.52914 78.7808 5.73427C79.0408 5.92075 79.1708 6.21911 79.1708 6.62937C79.1708 6.89044 79.0687 7.36597 78.8644 8.05594C78.6601 8.74592 78.3908 9.55711 78.0565 10.4895C77.7407 11.4033 77.3879 12.3636 76.9978 13.3706C76.6078 14.3776 76.2085 15.338 75.7999 16.2517C75.4099 17.1655 75.0477 17.9394 74.7134 18.5734C74.5834 18.6853 74.3606 18.7786 74.0448 18.8531C73.7477 18.9277 73.4227 18.965 73.0698 18.965C72.6612 18.965 72.299 18.8998 71.9833 18.7692C71.6676 18.6573 71.454 18.4802 71.3426 18.2378C71.1383 17.8462 70.8782 17.296 70.5625 16.5874C70.2468 15.8788 69.9032 15.0676 69.5317 14.1538C69.1789 13.2401 68.8167 12.2984 68.4453 11.3287C68.0924 10.3403 67.7581 9.3986 67.4423 8.5035C67.1452 7.60839 66.9037 6.81585 66.718 6.12587C66.8666 5.92075 67.0802 5.75291 67.3588 5.62238C67.6374 5.49184 67.9252 5.42657 68.2224 5.42657C68.631 5.42657 68.956 5.51981 69.1974 5.70629C69.4575 5.89277 69.6618 6.22844 69.8103 6.71329L71.3704 11.5524C71.519 12 71.6954 12.5221 71.8997 13.1189C72.1226 13.7156 72.3362 14.303 72.5405 14.8811C72.7448 15.4592 72.9119 15.9441 73.0419 16.3357H73.1534C73.8034 14.5641 74.4163 12.7832 74.992 10.993C75.5863 9.18415 76.0971 7.42191 76.5242 5.70629C76.8771 5.51981 77.295 5.42657 77.7779 5.42657Z" fill="#020E19"/>
<path fill-rule="evenodd" clip-rule="evenodd" d="M89.2841 6.43357C88.2812 5.669 86.9162 5.28671 85.1889 5.28671C84.4832 5.28671 83.7867 5.35198 83.0995 5.48252C82.4309 5.61305 81.8366 5.79953 81.3166 6.04196C80.6851 6.34033 80.3694 6.77855 80.3694 7.35664C80.3694 7.59907 80.4344 7.83217 80.5644 8.05594C80.6944 8.26107 80.843 8.43823 81.0101 8.58741C81.5487 8.32634 82.1616 8.09324 82.8488 7.88811C83.5545 7.68298 84.2789 7.58042 85.0218 7.58042C85.9504 7.58042 86.684 7.7669 87.2226 8.13986C87.7612 8.51282 88.0305 9.11888 88.0305 9.95804V10.6014L84.1303 10.993C82.6631 11.1235 81.5302 11.5245 80.7316 12.1958C79.9329 12.8485 79.5336 13.7902 79.5336 15.021C79.5336 16.3823 80.0351 17.4172 81.038 18.1259C82.0595 18.8159 83.471 19.1608 85.2725 19.1608C86.2383 19.1608 87.1019 19.0583 87.8633 18.8531C88.6434 18.6667 89.2748 18.4336 89.7577 18.1538C90.092 17.9674 90.352 17.7529 90.5378 17.5105C90.7235 17.2681 90.8163 16.9324 90.8163 16.5035V9.98601C90.8163 8.36364 90.3056 7.17949 89.2841 6.43357ZM86.9719 16.7273C86.5076 16.8578 85.9411 16.9231 85.2725 16.9231C84.2882 16.9231 83.5546 16.7459 83.0717 16.3916C82.5888 16.0373 82.3473 15.5524 82.3473 14.9371C82.3473 14.3403 82.5609 13.8928 82.9881 13.5944C83.4338 13.2774 84.0839 13.0816 84.9382 13.007L88.0305 12.6993V16.3077C87.8076 16.4382 87.4548 16.5781 86.9719 16.7273Z" fill="#020E19"/>
<path d="M102.928 6.51748C103.95 7.31935 104.461 8.54079 104.461 10.1818V18.7133C104.331 18.7506 104.145 18.7972 103.903 18.8531C103.662 18.9091 103.411 18.9371 103.151 18.9371C102.613 18.9371 102.213 18.8345 101.953 18.6294C101.712 18.4242 101.591 18.0886 101.591 17.6224V10.2937C101.591 9.3613 101.331 8.68065 100.811 8.25175C100.291 7.82284 99.5946 7.60839 98.7216 7.60839C98.0716 7.60839 97.4866 7.69231 96.9666 7.86014C96.4465 8.02797 96.0008 8.21445 95.6294 8.41958V18.7133C95.4994 18.7506 95.3136 18.7972 95.0722 18.8531C94.8493 18.9091 94.5986 18.9371 94.32 18.9371C93.8 18.9371 93.41 18.8345 93.1499 18.6294C92.8899 18.4242 92.7599 18.0886 92.7599 17.6224V8.36364C92.7599 7.93473 92.8435 7.58974 93.0106 7.32867C93.1964 7.04895 93.4842 6.78788 93.8743 6.54545C94.3943 6.22844 95.0722 5.93939 95.9079 5.67832C96.7437 5.41725 97.6816 5.28671 98.7216 5.28671C100.523 5.28671 101.925 5.69697 102.928 6.51748Z" fill="#020E19"/>
<path d="M110.189 8.83916C110.987 8.0373 111.972 7.63636 113.142 7.63636C113.847 7.63636 114.442 7.7296 114.925 7.91608C115.408 8.10256 115.844 8.32634 116.234 8.58741C116.438 8.45688 116.605 8.28904 116.735 8.08391C116.884 7.87879 116.958 7.64569 116.958 7.38462C116.958 6.82518 116.578 6.34033 115.816 5.93007C115.073 5.50117 114.107 5.28671 112.919 5.28671C111.675 5.28671 110.532 5.54779 109.492 6.06993C108.452 6.59207 107.626 7.36597 107.013 8.39161C106.4 9.41725 106.094 10.704 106.094 12.2517C106.094 13.7809 106.381 15.0583 106.957 16.0839C107.551 17.1096 108.369 17.8741 109.409 18.3776C110.449 18.8811 111.647 19.1329 113.002 19.1329C114.21 19.1329 115.194 18.9464 115.955 18.5734C116.717 18.1818 117.098 17.697 117.098 17.1189C117.098 16.8392 117.023 16.5967 116.875 16.3916C116.726 16.1865 116.531 16.0093 116.29 15.8601C115.918 16.1026 115.482 16.3263 114.98 16.5315C114.479 16.718 113.866 16.8112 113.142 16.8112C111.916 16.8112 110.913 16.4196 110.133 15.6364C109.372 14.8531 108.991 13.7249 108.991 12.2517C108.991 10.7599 109.39 9.62238 110.189 8.83916Z" fill="#020E19"/>
<path fill-rule="evenodd" clip-rule="evenodd" d="M121.938 15.8881C121.304 15.3551 120.875 14.6162 120.65 13.6717L128.819 12.5035C129.228 12.4476 129.543 12.317 129.766 12.1119C129.989 11.8881 130.101 11.5431 130.101 11.0769C130.101 9.95804 129.85 8.96037 129.348 8.08391C128.847 7.20746 128.141 6.52681 127.231 6.04196C126.34 5.53846 125.309 5.28671 124.139 5.28671C123.247 5.28671 122.412 5.4359 121.632 5.73427C120.852 6.03263 120.174 6.47086 119.598 7.04895C119.022 7.62704 118.567 8.34499 118.233 9.2028C117.917 10.042 117.759 11.0117 117.759 12.1119C117.759 13.641 118.056 14.9371 118.651 16C119.245 17.0443 120.081 17.8368 121.158 18.3776C122.235 18.8998 123.489 19.1608 124.919 19.1608C125.792 19.1608 126.572 19.0676 127.259 18.8811C127.965 18.6946 128.522 18.4336 128.931 18.0979C129.339 17.7622 129.543 17.3893 129.543 16.979C129.543 16.7179 129.469 16.4755 129.321 16.2517C129.191 16.028 129.014 15.8508 128.791 15.7203C128.401 16 127.881 16.2611 127.231 16.5035C126.581 16.7459 125.866 16.8671 125.086 16.8671C123.786 16.8671 122.737 16.5408 121.938 15.8881ZM127.398 10.6014L120.469 11.5814C120.525 10.3228 120.875 9.34344 121.52 8.64336C122.207 7.89744 123.071 7.52447 124.111 7.52447C125.133 7.52447 125.922 7.82284 126.479 8.41958C127.036 8.99767 127.343 9.72494 127.398 10.6014Z" fill="#020E19"/>
<path d="M133.899 18.8531C134.14 18.7972 134.326 18.7506 134.456 18.7133V8.47552C134.865 8.2331 135.375 8.0373 135.988 7.88811C136.62 7.72028 137.316 7.63636 138.078 7.63636C138.375 7.63636 138.663 7.65501 138.941 7.69231C139.239 7.7296 139.48 7.7669 139.666 7.80419C139.759 7.65501 139.833 7.48718 139.889 7.3007C139.963 7.11422 140 6.90909 140 6.68531C140 5.77156 139.192 5.31468 137.576 5.31468C136.573 5.31468 135.645 5.42657 134.79 5.65035C133.955 5.87413 133.277 6.15385 132.757 6.48951C132.367 6.75058 132.07 7.0303 131.865 7.32867C131.68 7.60839 131.587 7.97203 131.587 8.41958V17.6224C131.587 18.0886 131.717 18.4242 131.977 18.6294C132.237 18.8345 132.627 18.9371 133.147 18.9371C133.425 18.9371 133.676 18.9091 133.899 18.8531Z" fill="#020E19"/>
</svg>
