<svg width="16" height="16" viewBox="0 0 16 16" fill="currentColor"
    xmlns="http://www.w3.org/2000/svg">
    <path fill-rule="evenodd" clip-rule="evenodd"
        d="M9.49475 4.61558C10.2174 4.61558 10.803 4.03 10.803 3.30815C10.803 2.58556 10.2174 2 9.49475 2C8.77284 2 8.18726 2.58557 8.18726 3.30815C8.18726 4.03002 8.77286 4.61558 9.49475 4.61558ZM6.97929 6.11052C7.00885 6.08023 7.05789 6.08023 7.08746 6.11052L8.30192 7.32492C8.50602 7.52901 8.76635 7.66819 9.04906 7.72444L9.99982 8.00007C10.3748 8.07507 10.7397 7.83205 10.8148 7.45705C10.8898 7.08206 10.646 6.71788 10.2717 6.64287L9.32095 6.36724C9.30581 6.36436 9.29211 6.35642 9.28129 6.34561L8.06683 5.1312C7.49639 4.56079 6.57039 4.56079 6 5.1312L5.40528 5.69247C4.80382 6.29462 4.84132 7.28188 5.48749 7.83564L7.28105 9.3724C7.29764 9.38682 7.30773 9.40845 7.30773 9.43081V12.1539C7.30773 12.5361 7.61784 12.8462 8.00006 12.8462C8.38228 12.8462 8.69239 12.5361 8.69239 12.1539V9.43081C8.69239 9.00389 8.50561 8.59861 8.1818 8.32097L6.38897 6.78422C6.35507 6.75537 6.35291 6.70345 6.38464 6.67172L6.97929 6.11052ZM3.00009 9.38467C2.108 9.38467 1.38466 10.108 1.38466 11C1.38466 11.8921 2.108 12.6154 3.00009 12.6154C3.89218 12.6154 4.61553 11.8921 4.61553 11C4.61553 10.108 3.89218 9.38467 3.00009 9.38467ZM0 11C0 9.34356 1.34282 8.00007 3.00009 8.00007C4.65664 8.00007 6.00018 9.34356 6.00018 11C6.00018 12.6565 4.65664 14 3.00009 14C1.34282 14 0 12.6565 0 11ZM11.3845 11C11.3845 10.108 12.1078 9.38467 12.9999 9.38467C13.892 9.38467 14.6153 10.108 14.6153 11C14.6153 11.8921 13.892 12.6154 12.9999 12.6154C12.1078 12.6154 11.3845 11.8921 11.3845 11ZM12.9999 8.00007C11.3434 8.00007 9.99982 9.34356 9.99982 11C9.99982 12.6565 11.3434 14 12.9999 14C14.6572 14 16 12.6565 16 11C16 9.34356 14.6572 8.00007 12.9999 8.00007Z" />
</svg>