<svg width="16" height="16" viewBox="0 0 16 16" fill="currentColor"
    xmlns="http://www.w3.org/2000/svg">
    <path fill-rule="evenodd" clip-rule="evenodd"
        d="M5.29855 4.42096C5.58187 3.83265 6.17581 3.45943 6.82657 3.45943H9.17353C9.82429 3.45943 10.4182 3.83265 10.7016 4.42096L11.5432 6.1677C11.2576 6.19658 10.9273 6.22774 10.5712 6.25967C9.42883 6.36076 9.0417 6.45957 8.00005 6.45957C6.9584 6.45957 6.57057 6.36075 5.42885 6.25967C5.07204 6.22774 4.74248 6.19658 4.45689 6.1677L5.29855 4.42096ZM3.10606 5.61812C2.69243 5.37489 2.21743 5.24339 1.72727 5.24339C1.32576 5.24339 1 5.56947 1 5.97309C1 6.37594 1.32576 6.70279 1.72727 6.70279C1.99545 6.70279 2.25455 6.78716 2.46893 6.94071L2.36439 7.15811C1.99848 7.91745 1.80833 8.74977 1.80833 9.59356V12.4593C1.80833 13.3098 2.49545 14 3.34318 14H4.95984C5.80757 14 6.49469 13.3098 6.49469 12.4593V12.083H9.50531V12.4593C9.50531 13.3098 10.1924 14 11.0402 14H12.6568C13.5045 14 14.1917 13.3098 14.1917 12.4593V9.59356C14.1917 8.74985 14.0015 7.91752 13.6356 7.15811L13.5311 6.94071C13.7455 6.78717 14.0045 6.70279 14.2727 6.70279C14.6742 6.70279 15 6.37594 15 5.97309C15 5.56947 14.6742 5.24339 14.2727 5.24339C13.7826 5.24339 13.3076 5.37488 12.8939 5.61812L12.0106 3.7855C11.4849 2.69398 10.3826 2 9.17347 2H6.82651C5.61742 2 4.51514 2.69398 3.98938 3.7855L3.10606 5.61812ZM12.2166 7.56555L12.3265 7.79359C12.5969 8.35455 12.7371 8.97024 12.7371 9.59353V12.4592C12.7371 12.5041 12.7015 12.5405 12.6568 12.5405H11.0401C10.9954 12.5405 10.9598 12.5041 10.9598 12.4592V11.3533C10.9598 10.9504 10.6341 10.6236 10.2326 10.6236H5.76741C5.3659 10.6236 5.04014 10.9504 5.04014 11.3533V12.4592C5.04014 12.5041 5.00453 12.5405 4.95984 12.5405H3.34318C3.29848 12.5405 3.26288 12.5041 3.26288 12.4592V9.59353C3.26288 8.97024 3.40303 8.35455 3.67348 7.79359L3.78333 7.56555C3.80455 7.56783 3.82652 7.57011 3.84924 7.57239C4.21439 7.61116 4.72348 7.66209 5.30076 7.71302C6.44925 7.81487 6.89024 7.91901 7.99996 7.91901C9.10968 7.91901 9.55065 7.81487 10.6992 7.71302C11.2764 7.66209 11.7855 7.61116 12.1507 7.57239C12.1734 7.57011 12.1954 7.56783 12.2166 7.56555Z"
    />
</svg>