<svg width="16" height="16" viewBox="0 0 16 16" fill="currentColor"
    xmlns="http://www.w3.org/2000/svg">
    <path fill-rule="evenodd" clip-rule="evenodd"
        d="M8 0C12.4183 0 16 3.58172 16 8C16 12.4183 12.4183 16 8 16C3.58172 16 0 12.4183 0 8C0 3.58172 3.58172 0 8 0ZM9.96718 9.00128H6.03282C6.12566 10.405 6.41122 11.6777 6.83555 12.6325C7.25414 13.5743 7.70144 14 8 14C8.29856 14 8.74586 13.5743 9.16445 12.6325C9.58878 11.6777 9.87434 10.405 9.96718 9.00128ZM4.03103 9.00146L2.08303 9.00042C2.38049 10.7727 3.45493 12.2815 4.94409 13.1646C4.45677 12.0103 4.1294 10.577 4.03103 9.00146ZM13.917 9.00042L11.969 9.00146C11.8706 10.577 11.5431 12.0101 11.0554 13.1634C12.545 12.2813 13.6195 10.7727 13.917 9.00042ZM4.9446 2.83658L4.91131 2.85502C3.43908 3.74075 2.37817 5.2405 2.08297 6.99991L4.03098 6.99955C4.12928 5.42366 4.45676 3.99013 4.9446 2.83658ZM8 2L7.93836 2.0057C7.64193 2.05905 7.22623 2.48847 6.83555 3.36752C6.41112 4.32249 6.12552 5.59556 6.03276 6.99971H9.96724C9.87448 5.59556 9.58888 4.32249 9.16445 3.36752C8.74586 2.42568 8.29856 2 8 2ZM11.0559 2.83544L11.0593 2.8457C11.545 3.99771 11.871 5.42789 11.969 6.99969L13.9171 7.00057C13.6199 5.22785 12.5453 3.71865 11.0559 2.83544Z"
    />
</svg>
    