<svg width="16" height="16" viewBox="0 0 16 16" fill="none" xmlns="http://www.w3.org/2000/svg">
<path fill-rule="evenodd" clip-rule="evenodd" d="M8.00016 11.3333C6.15921 11.3333 4.66683 9.84093 4.66683 7.99998C4.66683 6.15903 6.15921 4.66665 8.00016 4.66665C9.84111 4.66665 11.3335 6.15903 11.3335 7.99998C11.3335 9.84093 9.84111 11.3333 8.00016 11.3333ZM8.00016 9.99998C9.10473 9.99998 10.0002 9.10455 10.0002 7.99998C10.0002 6.89541 9.10473 5.99998 8.00016 5.99998C6.89559 5.99998 6.00016 6.89541 6.00016 7.99998C6.00016 9.10455 6.89559 9.99998 8.00016 9.99998Z" fill="#1890FF"/>
<path d="M12.0002 4.66665C12.0002 5.03484 11.7017 5.33331 11.3335 5.33331C10.9653 5.33331 10.6668 5.03484 10.6668 4.66665C10.6668 4.29846 10.9653 3.99998 11.3335 3.99998C11.7017 3.99998 12.0002 4.29846 12.0002 4.66665Z" fill="#1890FF"/>
<path fill-rule="evenodd" clip-rule="evenodd" d="M10.6668 1.33331H5.3335C3.12436 1.33331 1.3335 3.12417 1.3335 5.33331V10.6666C1.3335 12.8758 3.12436 14.6666 5.3335 14.6666H10.6668C12.876 14.6666 14.6668 12.8758 14.6668 10.6666V5.33331C14.6668 3.12417 12.876 1.33331 10.6668 1.33331ZM2.66683 5.33331C2.66683 3.86055 3.86074 2.66665 5.3335 2.66665H10.6668C12.1396 2.66665 13.3335 3.86055 13.3335 5.33331V10.6666C13.3335 12.1394 12.1396 13.3333 10.6668 13.3333H5.3335C3.86074 13.3333 2.66683 12.1394 2.66683 10.6666V5.33331Z" fill="#1890FF"/>
</svg>
