<svg width="16" height="16" viewBox="0 0 16 16" fill="currentColor" xmlns="http://www.w3.org/2000/svg">
    <path d="M9.05279 6.85557C7.62458 7.56968 7 8.29835 7 10H9C9 9.20165 9.12542 9.05532 9.94721 8.64443C11.3754 7.93032 12 7.20165 12 5.5C12 3.32063 10.2843 2 8 2C5.79086 2 4 3.79086 4 6H6C6 4.89543 6.89543 4 8 4C9.27716 4 10 4.55641 10 5.5C10 6.29835 9.87458 6.44468 9.05279 6.85557Z" />
    <path d="M9.5 12.5C9.5 13.3284 8.82843 14 8 14C7.17157 14 6.5 13.3284 6.5 12.5C6.5 11.6716 7.17157 11 8 11C8.82843 11 9.5 11.6716 9.5 12.5Z" />
</svg>
    