<svg width="16" height="16" viewBox="0 0 16 16" fill="currentColor"
    xmlns="http://www.w3.org/2000/svg">
    <path fill-rule="evenodd" clip-rule="evenodd"
        d="M8.93669 12.8542C10.3799 14.0112 12.3861 13.1589 13.1489 11.4912C14.2091 9.17234 11.7327 6.448 8.44038 8.67235C3.47801 12.025 -0.240869 7.53084 1.38807 3.89731C2.61346 1.16398 5.9424 0.0403284 8.21179 1.9567L8.88837 1.27944C9.18173 0.984644 9.67753 1.09692 9.77311 1.49437L10.5718 4.80361C10.6712 5.19245 10.3028 5.57784 9.90334 5.48185L6.62919 4.68848C6.21777 4.62045 6.06389 4.10744 6.37811 3.79263L7.03957 3.13052C5.58811 2.02113 3.59995 2.79443 2.84115 4.48646C1.8051 6.79797 4.2728 9.60665 7.5962 7.36094C12.5386 4.0221 16.2619 8.4528 14.5974 12.0935C13.3614 14.7953 10.0222 15.9921 7.76692 14.0271L7.09546 14.7001C6.78139 15.0147 6.26949 14.8607 6.20144 14.4484L5.40955 11.1681C5.31358 10.7681 5.69841 10.3988 6.08668 10.4985L9.38957 11.2989C9.78644 11.3945 9.89834 11.8913 9.60426 12.1851L8.93669 12.8542Z" />
</svg>