<svg width="16" height="16" viewBox="0 0 16 16" fill="currentColor" xmlns="http://www.w3.org/2000/svg">
    <path fill-rule="evenodd" clip-rule="evenodd" d="M2.78565 11.4075C5.16652 13.7884 9.02668 13.7884 11.4075 11.4075C13.7884 9.02668 13.7884 5.16652 11.4075 2.78565C9.02668 0.404782 5.16652 0.404782 2.78565 2.78565C0.404783 5.16652 0.404782 9.02668 2.78565 11.4075ZM4.22263 9.97056C5.80988 11.5578 8.38332 11.5578 9.97056 9.97056C11.5578 8.38332 11.5578 5.80988 9.97056 4.22263C8.38332 2.63539 5.80988 2.63539 4.22263 4.22263C2.63539 5.80988 2.63539 8.38332 4.22263 9.97056Z" />
    <path d="M10.6891 9.25207L15 13.563L13.563 15L9.25207 10.6891L10.6891 9.25207Z" />
</svg>    