<svg width="16" height="16" viewBox="0 0 16 16" fill="currentColor" xmlns="http://www.w3.org/2000/svg">
    <path d="M8 10C9.10457 10 10 9.10457 10 8C10 6.89543 9.10457 6 8 6C6.89543 6 6 6.89543 6 8C6 9.10457 6.89543 10 8 10Z" />
    <path fill-rule="evenodd" clip-rule="evenodd" d="M12.8408 14.4712L10.777 13.8963L10.1867 14.1397L9.12716 16H6.84747L5.79377 14.1334L5.20413 13.8861L3.14043 14.454L1.5287 12.8422L2.10365 10.7782L1.86017 10.1878L0 9.12742V6.84769L1.86733 5.79397L2.11453 5.20437L1.54669 3.14057L3.15781 1.52939L5.22171 2.10516L5.81143 1.86194L6.86941 0H9.14968L10.2034 1.86741L10.7929 2.11463L12.8563 1.54686L14.4699 3.15822L13.8949 5.22255L14.1382 5.81243L16 6.87046V9.15084L14.1328 10.2045L13.8854 10.7954L14.4533 12.8587L12.8408 14.4712ZM8.78891 12.5528L7.99 13.9555L7.19877 12.5538L5.34001 11.7744L3.78295 12.2028L4.21497 10.6519L3.44728 8.79039L2.04424 7.9906L3.44688 7.1991L4.22624 5.34024L3.79816 3.7844L5.34762 4.21666L7.21029 3.44842L8.00744 2.04551L8.79817 3.44691L10.6571 4.22635L12.2157 3.79746L11.7836 5.34883L12.5516 7.21123L13.9547 8.00854L12.5528 8.79961L11.7738 10.6602L12.2024 12.2172L10.6507 11.7849L8.78891 12.5528Z" />
</svg>    