<svg width="16" height="16" viewBox="0 0 16 16" fill="currentColor"
    xmlns="http://www.w3.org/2000/svg">
    <path fill-rule="evenodd" clip-rule="evenodd"
        d="M9.33325 3.99998C9.33325 4.19159 9.35346 4.37849 9.39187 4.55865L6.01121 6.24898C5.52234 5.6879 4.80254 5.33331 3.99992 5.33331C2.52716 5.33331 1.33325 6.52722 1.33325 7.99998C1.33325 9.47274 2.52716 10.6666 3.99992 10.6666C4.80254 10.6666 5.52234 10.3121 6.01121 9.75098L9.39187 11.4413C9.35346 11.6215 9.33325 11.8084 9.33325 12C9.33325 13.4727 10.5272 14.6666 11.9999 14.6666C13.4727 14.6666 14.6666 13.4727 14.6666 12C14.6666 10.5272 13.4727 9.33331 11.9999 9.33331C11.1973 9.33331 10.4775 9.6879 9.98862 10.249L6.60797 8.55865C6.64637 8.37849 6.66658 8.19159 6.66658 7.99998C6.66658 7.80836 6.64637 7.62147 6.60797 7.44131L9.98862 5.75098C10.4775 6.31205 11.1973 6.66665 11.9999 6.66665C13.4727 6.66665 14.6666 5.47274 14.6666 3.99998C14.6666 2.52722 13.4727 1.33331 11.9999 1.33331C10.5272 1.33331 9.33325 2.52722 9.33325 3.99998ZM5.33325 7.99998C5.33325 8.73636 4.7363 9.33331 3.99992 9.33331C3.26354 9.33331 2.66659 8.73636 2.66659 7.99998C2.66659 7.2636 3.26354 6.66665 3.99992 6.66665C4.7363 6.66665 5.33325 7.2636 5.33325 7.99998ZM11.9999 5.33331C12.7363 5.33331 13.3333 4.73636 13.3333 3.99998C13.3333 3.2636 12.7363 2.66665 11.9999 2.66665C11.2635 2.66665 10.6666 3.2636 10.6666 3.99998C10.6666 4.73636 11.2635 5.33331 11.9999 5.33331ZM13.3333 12C13.3333 12.7364 12.7363 13.3333 11.9999 13.3333C11.2635 13.3333 10.6666 12.7364 10.6666 12C10.6666 11.2636 11.2635 10.6666 11.9999 10.6666C12.7363 10.6666 13.3333 11.2636 13.3333 12Z" />
</svg>
    