<svg width="16" height="16" viewBox="0 0 16 16" fill="none" xmlns="http://www.w3.org/2000/svg">
<path d="M13.7561 2.04904L1.68068 7.08282C1.67349 7.0858 1.66653 7.08936 1.65984 7.09348C1.56192 7.15323 0.878566 7.6035 1.84214 8.00721L1.85204 8.01113L4.7274 9.01183C4.74933 9.01951 4.77256 9.02193 4.79546 9.01892C4.81836 9.01592 4.84037 9.00756 4.85995 8.99444L11.9917 4.20108C12.0092 4.18932 12.0287 4.18141 12.049 4.1778C12.1482 4.16012 12.4339 4.12702 12.2532 4.37418C12.0487 4.65472 7.17748 9.35718 6.63684 9.87871C6.60566 9.90886 6.58637 9.95071 6.58293 9.99569L6.34698 13.0256C6.34695 13.0564 6.3536 13.0869 6.36639 13.1145C6.37918 13.1421 6.39777 13.1661 6.42068 13.1846C6.45319 13.2067 6.49142 13.2169 6.52973 13.2138C6.56804 13.2106 6.60441 13.1943 6.63345 13.1672L8.34184 11.5224C8.36884 11.4964 8.40326 11.4812 8.43941 11.4792C8.47555 11.4772 8.51124 11.4886 8.54055 11.5115L11.5211 13.8428L11.5308 13.8498C11.6029 13.8978 12.3821 14.3862 12.6071 13.2954L14.6645 2.75685C14.6673 2.72346 14.6952 2.35651 14.4517 2.13965C14.196 1.91297 13.834 2.02743 13.7795 2.03978C13.7715 2.04219 13.7637 2.04528 13.7561 2.04904Z" fill="#1890FF"/>
</svg>
