<svg width="16" height="16" viewBox="0 0 16 16" fill="currentColor"
    xmlns="http://www.w3.org/2000/svg">
    <path
        d="M14.0437 2.04904L1.36454 7.08282C1.357 7.0858 1.34968 7.08936 1.34266 7.09348C1.23985 7.15323 0.522323 7.6035 1.53408 8.00721L1.54447 8.01113L4.5636 9.01183C4.58663 9.01951 4.61102 9.02193 4.63506 9.01892C4.6591 9.01592 4.68222 9.00756 4.70278 8.99444L12.1911 4.20108C12.2095 4.18932 12.2299 4.18141 12.2513 4.1778C12.3555 4.16012 12.6554 4.12702 12.4657 4.37418C12.251 4.65472 7.13618 9.35718 6.56851 9.87871C6.53577 9.90886 6.51552 9.95071 6.51191 9.99569L6.26416 13.0256C6.26413 13.0564 6.27111 13.0869 6.28454 13.1145C6.29797 13.1421 6.31749 13.1661 6.34155 13.1846C6.37568 13.2067 6.41582 13.2169 6.45605 13.2138C6.49628 13.2106 6.53445 13.1943 6.56495 13.1672L8.35877 11.5224C8.38711 11.4964 8.42325 11.4812 8.46121 11.4792C8.49916 11.4772 8.53663 11.4886 8.56741 11.5115L11.697 13.8428L11.7071 13.8498C11.7829 13.8978 12.601 14.3862 12.8373 13.2954L14.9975 2.75685C15.0005 2.72346 15.0298 2.35651 14.7741 2.13965C14.5056 1.91297 14.1255 2.02743 14.0683 2.03978C14.0599 2.04219 14.0517 2.04528 14.0437 2.04904Z" />
</svg>