<svg width="16" height="16" viewBox="0 0 16 16" fill="none" xmlns="http://www.w3.org/2000/svg">
<path d="M13.3095 4.4569C12.622 4.31451 11.9995 3.9632 11.5327 3.4542C11.0658 2.94521 10.7791 2.30513 10.7143 1.62727V1.33331H8.34271V10.4468C8.34125 10.8503 8.20926 11.2431 7.9653 11.5702C7.72135 11.8973 7.37768 12.1421 6.9826 12.2704C6.58752 12.3986 6.16089 12.4037 5.76265 12.285C5.36441 12.1663 5.01459 11.9298 4.76234 11.6086C4.50617 11.2821 4.36407 10.8851 4.35664 10.4751C4.34921 10.0652 4.47683 9.66354 4.72101 9.32854C4.96519 8.99353 5.31322 8.74254 5.71464 8.61197C6.11606 8.4814 6.54999 8.47803 6.95352 8.60236V6.26933C6.05368 6.14888 5.13746 6.30379 4.33302 6.71239C3.52857 7.12098 2.87614 7.76283 2.46698 8.54816C2.05783 9.33349 1.9124 10.223 2.05106 11.0923C2.18971 11.9616 2.6055 12.7672 3.24028 13.3964C3.84563 13.9962 4.62182 14.4076 5.46978 14.5783C6.31773 14.749 7.19898 14.6712 8.00103 14.3547C8.80308 14.0382 9.48955 13.4975 9.97281 12.8016C10.4561 12.1057 10.7142 11.2861 10.7143 10.4475V5.79073C11.6727 6.4542 12.8218 6.80996 14 6.80793V4.52623C13.768 4.52651 13.5366 4.50327 13.3095 4.4569Z" fill="#1890FF"/>
</svg>
