<svg width="16" height="16" viewBox="0 0 16 16" fill="currentColor"
    xmlns="http://www.w3.org/2000/svg">
    <path
        d="M13.3095 4.27977C12.622 4.13025 11.9995 3.76138 11.5327 3.22694C11.0658 2.69249 10.7791 2.0204 10.7143 1.30866V1H8.34271V10.5691C8.34125 10.9928 8.20926 11.4053 7.9653 11.7487C7.72135 12.0922 7.37768 12.3493 6.9826 12.4839C6.58752 12.6185 6.16089 12.6239 5.76265 12.4993C5.36441 12.3746 5.01459 12.1263 4.76234 11.7891C4.50617 11.4463 4.36407 11.0294 4.35664 10.5989C4.34921 10.1684 4.47683 9.74674 4.72101 9.39499C4.96519 9.04323 5.31322 8.77969 5.71464 8.64259C6.11606 8.50549 6.54999 8.50196 6.95352 8.6325V6.18282C6.05368 6.05635 5.13746 6.219 4.33302 6.64803C3.52857 7.07705 2.87614 7.751 2.46698 8.57559C2.05783 9.40018 1.9124 10.3342 2.05106 11.2469C2.18971 12.1597 2.6055 13.0056 3.24028 13.6662C3.84563 14.296 4.62182 14.728 5.46978 14.9073C6.31773 15.0865 7.19898 15.0047 8.00103 14.6725C8.80308 14.3402 9.48955 13.7724 9.97281 13.0417C10.4561 12.311 10.7142 11.4504 10.7143 10.5698V5.68029C11.6727 6.37693 12.8218 6.75048 14 6.74835V4.35256C13.768 4.35285 13.5366 4.32846 13.3095 4.27977Z" />
</svg>