<svg width="16" height="16" viewBox="0 0 16 16" fill="currentColor"
    xmlns="http://www.w3.org/2000/svg">
    <path
        d="M8 10C9.17771 10 10 9.29839 10 7.2C10 5.95042 9.21566 5 8 5C6.73374 5 6 5.81582 6 7C6 9.26926 6.81821 10 8 10Z" />
    <path fill-rule="evenodd" clip-rule="evenodd"
        d="M2.15139 13.4584C0.816779 12.029 0 10.1099 0 8C0 3.58172 3.58172 0 8 0C12.4183 0 16 3.58172 16 8C16 9.90796 15.3321 11.6599 14.2173 13.0348C14.2173 13.0348 14.2173 13.0348 14.2173 13.0348C14.1623 13.1026 14.1063 13.1695 14.0492 13.2354C13.6483 13.6982 13.1952 14.1145 12.6991 14.4752C11.3797 15.4343 9.75594 16 8 16C6.24407 16 4.62027 15.4343 3.30092 14.4752C2.9604 14.2276 2.64015 13.9539 2.34315 13.6569C2.2781 13.5918 2.21418 13.5257 2.15139 13.4584ZM4.50222 12.8755C5.48693 13.5832 6.6948 14 8 14C9.30521 14 10.5131 13.5832 11.4978 12.8755C10.8133 12.3277 9.94494 12 9.00001 12H7.00001C6.05508 12 5.18668 12.3277 4.50222 12.8755ZM12.9102 11.449C13.5968 10.4733 14 9.28374 14 8C14 4.68629 11.3137 2 8 2C4.68629 2 2 4.68629 2 8C2 9.28374 2.40316 10.4733 3.08978 11.449C4.13996 10.5459 5.50624 10 7.00001 10H8H9.00001C10.4938 10 11.86 10.5459 12.9102 11.449Z" />
</svg>