<svg width="16" height="16" viewBox="0 0 16 16" fill="currentColor" xmlns="http://www.w3.org/2000/svg">
    <path fill-rule="evenodd" clip-rule="evenodd" d="M8 2C11.1993 2 13.7551 3.78386 15.5962 7.21474L15.7668 7.54121L16 8L15.7668 8.45879C13.9142 12.1029 11.2993 14 8 14C4.80071 14 2.24492 12.2161 0.403752 8.78526L0.233239 8.45879L0 8L0.233239 7.54121C2.08581 3.89709 4.70074 2 8 2ZM8 4C5.73671 4 3.89057 5.1877 2.4104 7.72318L2.25321 8L2.4104 8.27682C3.89057 10.8123 5.73671 12 8 12C10.3441 12 12.2408 10.7259 13.7468 8C12.2408 5.27405 10.3441 4 8 4ZM8 6C9.10457 6 10 6.89543 10 8C10 9.10457 9.10457 10 8 10C6.89543 10 6 9.10457 6 8C6 6.89543 6.89543 6 8 6Z" />
</svg>    