<svg width="16" height="16" viewBox="0 0 16 16" fill="currentColor"
    xmlns="http://www.w3.org/2000/svg">
    <path fill-rule="evenodd" clip-rule="evenodd"
        d="M14.683 12.7521C15.1385 11.9714 15.3332 10.0459 15.3332 7.99813C15.3332 5.95852 15.1404 4.04032 14.68 3.23869C14.2186 2.40624 13.6714 2.14202 12.5854 2.0786C11.844 2.02835 10.0013 2 8.00162 2C5.99758 2 4.15413 2.02834 3.40717 2.07899C2.32725 2.14217 1.77991 2.40698 1.31446 3.24173C0.86076 4.0406 0.666504 5.96492 0.666504 8.0056C0.666504 10.0347 0.8617 11.9653 1.31845 12.7616C1.77785 13.5856 2.31646 13.8472 3.40557 13.9237C4.18834 13.9695 6.13612 14 8.00162 14C9.86293 14 11.8098 13.9695 12.5854 13.9242C13.6845 13.8472 14.223 13.5852 14.683 12.7521ZM12.5014 3.40928C13.1808 3.44897 13.3067 3.51003 13.5221 3.89976C13.8355 4.44266 13.9998 6.17181 13.9998 8.0056C13.9998 9.82552 13.8347 11.5605 13.5235 12.094C13.3074 12.4849 13.1823 12.5458 12.4999 12.5936C11.7658 12.6365 9.83784 12.6667 8.00162 12.6667C6.16126 12.6667 4.23233 12.6365 3.49119 12.5931C2.81718 12.5458 2.69027 12.4841 2.47899 12.1052C2.16574 11.559 1.99984 9.81803 1.99984 7.99813C1.99984 6.17933 2.16486 4.44426 2.47644 3.89561C2.691 3.51085 2.8188 3.44902 3.49123 3.40966C4.20322 3.3614 6.02933 3.33333 8.00162 3.33333C9.96966 3.33333 11.7949 3.36141 12.5014 3.40928ZM6.6665 6L9.99984 8L6.6665 10V6Z" />
</svg>