<svg width="16" height="16" viewBox="0 0 16 16" fill="currentColor"
    xmlns="http://www.w3.org/2000/svg">
    <path fill-rule="evenodd" clip-rule="evenodd"
        d="M8 14C11.3137 14 14 11.3137 14 8C14 4.68629 11.3137 2 8 2C4.68629 2 2 4.68629 2 8C2 11.3137 4.68629 14 8 14ZM8 12C10.2091 12 12 10.2091 12 8C12 5.79086 10.2091 4 8 4C5.79086 4 4 5.79086 4 8C4 10.2091 5.79086 12 8 12Z" />
    <path d="M7 0H9V3H7V0Z" />
    <path d="M7 13H9V16H7V13Z" />
    <path d="M3 7V9H0L8.74224e-08 7H3Z" />
    <path d="M16 7V9H13V7H16Z" />
    <path
        d="M10 8C10 9.10457 9.10457 10 8 10C6.89543 10 6 9.10457 6 8C6 6.89543 6.89543 6 8 6C9.10457 6 10 6.89543 10 8Z">
        <animate attributeName="display" values="inline;none;inline" dur="1s"
            repeatCount="indefinite" />
    </path>
</svg>