<svg width="16" height="16" viewBox="0 0 16 16" fill="currentColor"
    xmlns="http://www.w3.org/2000/svg">
    <path fill-rule="evenodd" clip-rule="evenodd"
        d="M9.38823 3.79611C10.1646 3.79611 10.6953 3.17011 10.6953 2.39767C10.6953 1.62597 10.1646 1 9.38823 1C8.61258 1 8.04214 1.62599 8.04214 2.39767C8.04214 3.17013 8.6126 3.79611 9.38823 3.79611ZM8.6033 4.43751C8.09885 4.43751 7.53167 4.59015 7.03808 4.76206C6.52822 4.9386 6.02378 5.16293 5.62318 5.35489C4.8088 5.74652 4.3493 6.56754 4.3493 7.41863L4.34916 8.02384C4.34916 8.43243 4.68235 8.76393 5.09303 8.76393C5.5037 8.76393 5.8369 8.43243 5.8369 8.02384L5.83704 7.41863C5.83704 7.08637 6.01293 6.81193 6.27019 6.68781C6.6429 6.50896 7.09154 6.31082 7.52857 6.15896C7.55182 6.15125 7.57507 6.14277 7.59831 6.13506L7.08554 8.39748L6.49509 10.5522C6.36956 11.0109 5.90852 11.2938 5.43973 11.2005L4.8902 11.0027C4.48729 10.9225 4.0952 11.1823 4.0146 11.5832C3.93401 11.9841 4.19515 12.3734 4.59807 12.4536L5.14839 12.6522C6.38353 12.8981 7.59919 12.1503 7.93085 10.9415L8.19353 9.98249L9.44648 11.1828C9.6247 11.3532 9.72542 11.5883 9.72542 11.8342V14.2599C9.72542 14.6685 10.0578 15 10.4693 15C10.88 15 11.2132 14.6685 11.2132 14.2599V11.8342C11.2132 11.1859 10.9474 10.5661 10.4778 10.1159L8.63132 8.34739L9.04259 6.48896C9.12317 6.56836 9.20531 6.65162 9.28822 6.73796C9.72447 7.19049 9.7936 7.16913 10.0741 7.50139C10.3623 7.84215 10.7405 8.10656 11.1767 8.25073L12.0204 8.59298C12.4102 8.72172 12.8317 8.51281 12.9619 8.12503C13.0913 7.73727 12.8805 7.31789 12.4915 7.18837L11.6471 6.84689C11.4828 6.79215 11.3317 6.68962 11.2132 6.54854C10.9234 6.20625 10.831 6.19908 10.3614 5.71264C10.1274 5.4698 9.88332 5.23005 9.65165 5.02729C9.43081 4.83456 9.17976 4.63719 8.93567 4.51618C8.83261 4.46452 8.71874 4.43751 8.6033 4.43751Z" />
</svg>