<svg width="24" height="24" viewBox="0 0 24 24" fill="#1890ff"
    xmlns="http://www.w3.org/2000/svg">
    <path
        d="M20.6339 3.07356L2.52077 10.6242C2.50999 10.6287 2.49955 10.634 2.48952 10.6402C2.34264 10.7298 1.3176 11.4053 2.76297 12.0108L2.77781 12.0167L7.09085 13.5177C7.12376 13.5293 7.1586 13.5329 7.19295 13.5284C7.22729 13.5239 7.26031 13.5113 7.28969 13.4917L17.9873 6.30162C18.0135 6.28399 18.0428 6.27212 18.0733 6.26669C18.2221 6.24018 18.6506 6.19053 18.3795 6.56126C18.0729 6.98208 10.766 14.0358 9.95501 14.8181C9.90825 14.8633 9.87932 14.9261 9.87415 14.9935L9.52023 19.5383C9.52019 19.5846 9.53015 19.6303 9.54934 19.6717C9.56853 19.7131 9.59642 19.7491 9.63078 19.7769C9.67955 19.81 9.73689 19.8253 9.79436 19.8207C9.85182 19.816 9.90636 19.7915 9.94993 19.7508L12.5125 17.2836C12.553 17.2447 12.6046 17.2218 12.6589 17.2188C12.7131 17.2158 12.7666 17.2329 12.8106 17.2672L17.2814 20.7642L17.2959 20.7747C17.4041 20.8466 18.5729 21.5793 18.9104 19.9432L21.9964 4.13527C22.0007 4.08519 22.0425 3.53477 21.6773 3.20948C21.2937 2.86946 20.7507 3.04115 20.6691 3.05967C20.657 3.06328 20.6453 3.06792 20.6339 3.07356Z" />
</svg>