<svg width="24" height="24" viewBox="0 0 24 24" fill="#1890ff"
    xmlns="http://www.w3.org/2000/svg">
    <path fill-rule="evenodd" clip-rule="evenodd"
        d="M22.0247 19.1282C22.7081 17.9571 23 15.0689 23 11.9972C23 8.93778 22.7108 6.06048 22.0202 4.85803C21.3281 3.60936 20.5073 3.21303 18.8783 3.1179C17.7662 3.04252 15.0023 3 12.0027 3C8.99661 3 6.23145 3.04251 5.111 3.11849C3.49112 3.21326 2.67011 3.61047 1.97193 4.8626C1.29138 6.0609 1 8.94737 1 12.0084C1 15.052 1.29279 17.948 1.97791 19.1424C2.66701 20.3784 3.47493 20.7708 5.1086 20.8855C6.28276 20.9543 9.20442 21 12.0027 21C14.7946 21 17.7149 20.9542 18.8783 20.8863C20.527 20.7708 21.3348 20.3778 22.0247 19.1282ZM18.7524 5.11391C19.7714 5.17346 19.9603 5.26505 20.2833 5.84964C20.7535 6.664 21 9.25771 21 12.0084C21 14.7383 20.7522 17.3408 20.2855 18.141C19.9614 18.7274 19.7738 18.8187 18.7501 18.8904C17.6489 18.9547 14.757 19 12.0027 19C9.24213 19 6.34874 18.9547 5.23703 18.8897C4.22601 18.8186 4.03565 18.7262 3.71873 18.1578C3.24886 17.3385 3 14.727 3 11.9972C3 9.26899 3.24754 6.66639 3.7149 5.84342C4.03675 5.26627 4.22844 5.17353 5.23709 5.11449C6.30508 5.04211 9.04424 5 12.0027 5C14.9547 5 17.6926 5.04212 18.7524 5.11391ZM10 9L15 12L10 15V9Z"
    />
</svg>
    